<svg width="26" height="25" viewBox="0 0 26 25" fill="none" xmlns="http://www.w3.org/2000/svg">
<path d="M12.6153 0C5.65018 0 0 5.55478 0 12.4075C0 19.2603 5.65018 24.8151 12.6153 24.8151C19.5805 24.8151 25.2306 19.2603 25.2306 12.4075C25.2306 5.55478 19.584 0 12.6153 0ZM13.2025 10.1326C15.2523 10.1047 17.0068 11.8109 17.0208 13.8451C17.0314 15.8758 15.3261 17.575 13.2482 17.5994C11.1421 17.6239 9.47204 15.9944 9.45798 13.8974C9.44743 11.8179 11.0964 10.1605 13.2025 10.1326ZM19.3519 21.441C12.4395 25.8304 3.15032 21.0747 2.76707 12.9274C2.55963 8.55199 3.98009 4.78367 7.29917 1.78646C7.85821 1.33985 8.01994 1.36078 8.16761 1.33985L10.1084 1.47592C8.69853 3.97069 7.10579 6.37125 6.75419 9.3231C6.51159 11.3573 6.57136 13.3531 7.12337 15.314C7.95666 18.2729 10.7483 20.3489 14.0252 20.5304C16.402 20.6629 17.4744 20.4152 21.4158 18.7718C21.1908 20.1326 20.3118 20.8304 19.3519 21.441Z" fill="#214684"/>
</svg>
