<svg width="36" height="36" viewBox="0 0 36 36" fill="none" xmlns="http://www.w3.org/2000/svg">
<circle cx="14.2427" cy="14.2427" r="14.2427" transform="matrix(-1 0 0 1 32.1553 2.9707)" fill="#FDFDFD"/>
<path d="M18.0003 2.9707C26.4911 2.9707 33.3789 9.69915 33.3789 17.9998C33.3789 26.3005 26.4911 33.029 18.0003 33.029C9.50944 33.029 2.62162 26.3005 2.62162 17.9998C2.62162 9.69915 9.50515 2.9707 18.0003 2.9707ZM17.2845 15.2442C14.7857 15.2104 12.6469 17.2771 12.6297 19.7411C12.6169 22.2009 14.6957 24.2591 17.2288 24.2887C19.7962 24.3183 21.8321 22.3446 21.8492 19.8045C21.8621 17.2856 19.8519 15.278 17.2845 15.2442ZM9.78804 28.942C18.2146 34.2588 29.5385 28.4982 30.0057 18.6296C30.2586 13.3296 28.527 8.76512 24.4809 5.13463C23.7994 4.59365 23.6022 4.619 23.4222 4.59365L21.0563 4.75848C22.775 7.78036 24.7166 10.6881 25.1452 14.2637C25.441 16.7277 25.3681 19.1452 24.6952 21.5204C23.6794 25.1044 20.2762 27.6191 16.2815 27.8389C13.3841 27.9995 12.0768 27.6994 7.27208 25.7088C7.54639 27.3571 8.61792 28.2024 9.78804 28.942Z" fill="#214684"/>
</svg>
