<svg width="12" height="12" viewBox="0 0 12 12" fill="none" xmlns="http://www.w3.org/2000/svg">
<path opacity="0.4" d="M10.985 3.205V6.455H1V3.205C1 1.99 1.99 1 3.205 1H8.78C9.995 1 10.985 1.99 10.985 3.205Z" fill="#FDFDFD"/>
<path d="M1 6.45996V6.55996C1 7.77996 1.99 8.76496 3.205 8.76496H5.125C5.4 8.76496 5.625 8.98996 5.625 9.26496V9.74996C5.625 10.025 5.4 10.25 5.125 10.25H3.915C3.71 10.25 3.54 10.42 3.54 10.625C3.54 10.83 3.705 11 3.915 11H8.09C8.295 11 8.465 10.83 8.465 10.625C8.465 10.42 8.295 10.25 8.09 10.25H6.88C6.605 10.25 6.38 10.025 6.38 9.74996V9.26496C6.38 8.98996 6.605 8.76496 6.88 8.76496H8.785C10.005 8.76496 10.99 7.77496 10.99 6.55996V6.45996H1V6.45996Z" fill="#FDFDFD"/>
</svg>
