<svg width="183" height="37" viewBox="0 0 183 37" fill="none" xmlns="http://www.w3.org/2000/svg">
<g clip-path="url(#clip0_2004_32303)">
<path d="M18.4688 0C8.27186 0 0 8.22108 0 18.3632C0 28.5052 8.27186 36.7263 18.4688 36.7263C28.6658 36.7263 36.9377 28.5052 36.9377 18.3632C36.9377 8.22108 28.671 0 18.4688 0ZM19.3284 14.9962C22.3294 14.9549 24.8979 17.4801 24.9185 20.4907C24.934 23.4962 22.4375 26.011 19.3954 26.0472C16.3121 26.0833 13.8671 23.6717 13.8465 20.5682C13.831 17.4904 16.2452 15.0375 19.3284 14.9962ZM28.3312 31.7327C18.2115 38.229 4.61206 31.1905 4.051 19.1326C3.7473 12.6569 5.82685 7.07983 10.686 2.64396C11.5044 1.98297 11.7412 2.01396 11.9574 1.98297L14.7987 2.18437C12.7346 5.87662 10.4029 9.42945 9.88813 13.7982C9.53297 16.8088 9.62047 19.7626 10.4286 22.6648C11.6485 27.0438 15.7356 30.1164 20.5329 30.3849C24.0126 30.5812 25.5825 30.2145 31.3528 27.7823C31.0233 29.7962 29.7365 30.829 28.3312 31.7327Z" fill="white"/>
<path d="M84.1336 9.53271C72.6189 7.01268 66.7818 13.2611 66.231 22.3342C66.0972 28.4381 71.3269 31.5881 76.9788 28.7789C77.9928 28.2728 78.7649 27.3743 79.8253 28.9183C80.4893 29.884 81.9563 29.5587 82.96 29.2901C84.1645 28.9648 83.2689 27.8597 83.3204 27.1161C83.3821 26.1917 83.1917 25.2519 83.2123 24.3224C83.3101 20.0414 84.5609 15.9412 85.2764 11.7584C85.4771 10.5758 85.5389 9.84255 84.1336 9.53271ZM79.8356 15.7192C79.2745 18.7091 78.8988 21.792 76.9222 24.3069C75.9339 25.5669 74.5955 26.0781 73.0668 25.6031C71.5534 25.1228 71.0541 23.8783 71.1211 22.3704C71.2343 19.8607 71.8932 17.5162 73.3293 15.43C74.2352 14.108 75.4912 13.2766 77.0869 13.0132C79.6863 12.5743 80.3246 13.1527 79.8356 15.7192Z" fill="white"/>
<path d="M114.112 9.08349C106.741 9.02669 101.599 13.9893 101.156 21.6475C100.997 24.3586 101.203 27.049 103.848 28.6344C106.566 30.2662 109.418 30.07 112.146 28.6034C113.098 28.087 113.69 27.5396 114.581 28.8099C115.358 29.9202 116.804 29.409 117.947 29.3057C118.647 29.2437 118.41 28.4898 118.313 28.0508C117.329 23.6356 118.745 19.4373 119.466 15.1873C120.49 9.11964 120.541 9.12997 114.112 9.08349ZM114.745 15.5953C114.195 18.5026 113.803 21.4874 112.038 24.0126C110.998 25.4947 109.583 26.1402 107.822 25.5566C106.108 24.9886 105.985 23.5065 106.041 21.5494C106.211 19.587 106.824 17.3149 108.275 15.3268C109.227 14.0306 110.499 13.2302 112.089 12.9875C114.565 12.6105 115.193 13.194 114.745 15.5953Z" fill="white"/>
<path d="M154.736 9.08344C147.257 9.04729 142.027 14.2887 141.873 21.9728C141.739 28.5155 146.845 31.7069 152.693 28.6859C153.676 28.1799 154.345 27.4156 155.338 28.8667C156.074 29.9356 157.557 29.3779 158.715 29.3056C159.389 29.2695 159.086 28.7221 159.024 28.3451C158.283 23.9506 159.266 19.7006 160.11 15.4455C161.366 9.10409 161.386 9.10926 154.736 9.08344ZM155.4 15.6933C154.849 18.6936 154.474 21.7714 152.507 24.2914C151.462 25.6392 150.036 26.1401 148.415 25.5204C146.886 24.9369 146.696 23.5478 146.66 22.2619C146.922 19.7368 147.437 17.4388 148.899 15.4403C149.851 14.1441 151.071 13.2766 152.662 12.9977C155.204 12.5536 155.858 13.1991 155.4 15.6933Z" fill="white"/>
<path d="M177.729 29.3986C175.634 29.884 175.64 28.6912 176.01 26.9561C176.705 23.7182 177.323 20.4546 177.837 17.1806C178.1 15.5126 178.419 13.6536 175.912 13.2198C173.673 12.8274 171.089 14.2217 170.698 16.1995C169.957 19.9537 169.308 23.7234 168.598 27.4828C168.464 28.1954 168.567 29.2334 167.599 29.3315C166.348 29.4606 165.041 29.4141 163.811 29.1817C163.265 29.0785 163.677 28.2935 163.764 27.8339C164.454 24.0694 165.195 20.3203 165.865 16.5506C166.086 15.3009 166.127 14.0203 166.297 12.7551C166.431 11.7739 165.129 10.2919 166.585 9.92005C167.846 9.59471 169.782 7.75117 170.78 10.5449C171.012 11.1904 171.475 10.6017 171.805 10.4726C172.438 10.2196 173.019 9.81677 173.673 9.65668C181.049 7.86478 183.999 11.3092 182.707 17.351C182.033 20.5114 181.538 23.7027 180.972 26.8838C180.524 29.4193 180.535 29.4193 177.729 29.3986Z" fill="white"/>
<path d="M137.245 14.9446C135.834 13.9996 134.615 12.9823 132.988 13.0494C131.943 13.0907 130.867 13.3799 130.558 14.5573C130.265 15.6882 131.13 16.2408 131.969 16.7055C132.864 17.2013 133.786 17.6454 134.687 18.1359C138.686 20.3203 138.974 25.2209 135.268 27.9527C132.314 30.1371 126.981 30.3333 123.795 28.4588C123.043 28.0147 122.781 27.6687 123.285 26.8889C123.887 25.9594 124.212 24.7045 125.035 24.1055C125.982 23.4239 126.646 24.8543 127.521 25.1848C128.669 25.6237 129.797 25.9646 131.001 25.5463C131.928 25.2261 132.674 24.6891 132.813 23.6046C132.942 22.5873 132.35 22.0348 131.552 21.601C130.358 20.9452 129.127 20.341 127.98 19.6025C124.886 17.6195 124.572 13.54 127.29 11.1129C129.92 8.7633 135.768 8.40182 138.686 10.3177C139.309 10.7256 139.252 10.9993 138.99 11.5054C138.408 12.626 137.842 13.762 137.24 14.9446H137.245Z" fill="white"/>
<path d="M95.0722 9.08345C95.412 9.08345 95.762 9.12993 96.0966 9.07312C98.3923 8.67033 98.7526 9.636 98.3254 11.7223C97.1672 17.3768 96.251 23.083 95.1495 28.7531C93.9192 35.079 89.9249 36.716 83.9899 36.9948C83.0634 37.0361 82.6773 36.5972 82.8729 35.7916C83.1149 34.7795 82.0133 33.3181 83.7634 32.8068C84.4892 32.5951 85.2768 32.5796 86.0437 32.5125C88.4887 32.2853 89.9506 30.9684 90.4036 28.5827C91.3095 23.8266 92.1794 19.0654 93.0648 14.3094C93.1935 13.6278 93.4148 12.9616 92.2772 12.9151C91.5926 12.8893 90.2543 13.416 90.6815 11.8617C90.9955 10.7256 90.5683 8.88722 92.7714 9.07312C93.5332 9.14025 94.3053 9.08345 95.0722 9.08345Z" fill="white"/>
<path d="M61.4033 23.7648C61.5114 28.7377 61.4754 28.7893 57.898 29.4297C52.7866 30.3437 48.7871 28.7015 47.6856 24.9576C46.3472 20.3927 47.3407 16.1685 50.46 12.5796C53.3837 9.21263 57.2545 8.60328 61.4342 9.36755C63.7094 9.78067 64.4043 12.0012 62.999 13.8809C62.4431 14.6245 62.124 13.9635 61.7894 13.7983C59.2054 12.5073 56.7861 12.7551 54.7014 14.7071C52.3336 16.9225 51.5307 19.7782 52.3542 22.8662C52.9307 25.0196 54.6191 25.9853 56.9148 25.567C58.5002 25.2778 59.9158 24.498 61.4033 23.7596V23.7648Z" fill="white"/>
<path d="M96.2206 6.70814C94.558 6.42929 93.2763 5.52559 93.2042 3.48581C93.1373 1.59579 94.7021 0.0982309 96.6118 0.232495C98.6296 0.377087 99.6487 1.63194 99.7414 3.54261C99.8238 5.22091 98.1406 6.72363 96.2154 6.70814H96.2206Z" fill="white"/>
</g>
<defs>
<clipPath id="clip0_2004_32303">
<rect width="183" height="37" fill="white"/>
</clipPath>
</defs>
</svg>
