<svg width="120" height="120" viewBox="0 0 120 120" fill="none" xmlns="http://www.w3.org/2000/svg">
<path d="M101.649 56.4315L103.569 53.3379L102.623 52.7523C102.487 52.6674 102.378 52.5462 102.307 52.4025C102.236 52.2588 102.207 52.0982 102.222 51.9387C102.237 51.7587 102.242 51.5763 102.239 51.3939C102.235 51.2342 102.275 51.0764 102.354 50.9379C102.434 50.7994 102.55 50.6856 102.69 50.6091L103.672 50.0835L101.951 46.8771L100.97 47.4027C100.829 47.4771 100.67 47.5111 100.51 47.501C100.351 47.4908 100.198 47.4369 100.067 47.3451C99.9183 47.2406 99.7637 47.1445 99.6041 47.0571C99.4626 46.9817 99.3449 46.8683 99.2644 46.7296C99.1838 46.591 99.1435 46.4326 99.1481 46.2723L99.1841 45.1587L95.5481 45.0459L95.5145 46.1643C95.5071 46.3242 95.4557 46.479 95.3659 46.6116C95.2762 46.7442 95.1515 46.8493 95.0057 46.9155C94.9265 46.9539 94.8449 46.9947 94.7657 47.0379C94.6865 47.0811 94.6073 47.1243 94.5257 47.1699C94.3894 47.253 94.2329 47.297 94.0733 47.297C93.9137 47.297 93.7572 47.253 93.6209 47.1699L92.6609 46.5795L90.7409 49.6707L91.6889 50.2587C91.8247 50.3436 91.9342 50.4648 92.005 50.6085C92.0758 50.7522 92.1051 50.9128 92.0897 51.0723C92.0733 51.2526 92.0677 51.4337 92.0729 51.6147C92.0769 51.7746 92.0366 51.9325 91.9566 52.0709C91.8765 52.2094 91.7598 52.3231 91.6193 52.3995L90.6377 52.9251L92.3585 56.1339L93.3401 55.6059C93.4812 55.5315 93.6402 55.4975 93.7994 55.5076C93.9586 55.5178 94.112 55.5717 94.2425 55.6635C94.3909 55.7668 94.5447 55.8622 94.7033 55.9491C94.8451 56.0244 94.9631 56.1377 95.044 56.2764C95.125 56.415 95.1657 56.5734 95.1617 56.7339L95.1257 57.8499L98.7641 57.9627L98.7977 56.8467C98.8046 56.6869 98.8555 56.5322 98.9449 56.3996C99.0343 56.2671 99.1586 56.1618 99.3041 56.0955L99.5441 55.9755C99.6233 55.9323 99.7001 55.8867 99.7841 55.8411C99.9206 55.7575 100.078 55.7133 100.238 55.7133C100.398 55.7133 100.555 55.7575 100.691 55.8411L101.649 56.4315ZM98.5697 54.1347C98.0499 54.4129 97.4593 54.5307 96.8725 54.4732C96.2858 54.4158 95.7293 54.1856 95.2733 53.8118C94.8174 53.4381 94.4825 52.9375 94.3111 52.3734C94.1397 51.8093 94.1394 51.2071 94.3102 50.6428C94.4811 50.0785 94.8154 49.5776 95.271 49.2034C95.7265 48.8291 96.2828 48.5984 96.8695 48.5403C97.4562 48.4823 98.0469 48.5995 98.567 48.8771C99.0871 49.1548 99.5131 49.5805 99.7913 50.1003C99.9763 50.4453 100.091 50.8235 100.13 51.2131C100.169 51.6027 100.13 51.9961 100.017 52.3708C99.9035 52.7455 99.7173 53.0941 99.4689 53.3968C99.2206 53.6995 98.915 53.9502 98.5697 54.1347Z" fill="#EBEBEB"/>
<path d="M25.142 69.0768L27.7124 64.8696V64.9152L26.3684 64.08C26.1411 63.9198 25.9766 63.6857 25.9028 63.4176C25.8543 63.1525 25.843 62.8819 25.8692 62.6136V62.22C25.8672 62.0104 25.9186 61.8037 26.0186 61.6194C26.1185 61.435 26.2636 61.2792 26.4404 61.1664L27.8372 60.4104L27.8108 60.4992L25.478 56.16L25.5836 56.1912L24.182 56.9448C23.9874 57.0318 23.7739 57.0679 23.5615 57.0498C23.3491 57.0318 23.1448 56.9601 22.9676 56.8416L22.6316 56.64L22.2956 56.4336C22.1097 56.3277 21.9537 56.1764 21.842 55.9938C21.7304 55.8112 21.6668 55.6034 21.6572 55.3896L21.7028 53.7984L21.7916 53.8944L16.862 53.76L16.97 53.6592L16.922 55.2504C16.8988 55.4683 16.8205 55.6767 16.6946 55.856C16.5686 56.0353 16.3991 56.1795 16.202 56.2752L15.8516 56.4528L15.5108 56.6472C15.3222 56.7584 15.1082 56.8195 14.8894 56.8245C14.6705 56.8296 14.4539 56.7784 14.2604 56.676L12.902 55.8432L13.0676 55.8048L10.4684 59.9808L10.4324 59.8296L11.7812 60.6768C11.9572 60.8033 12.0979 60.9726 12.1899 61.1688C12.2819 61.365 12.3221 61.5815 12.3068 61.7976L12.2924 62.1912V62.5848C12.2926 62.8008 12.2382 63.0134 12.1341 63.2026C12.03 63.3919 11.8797 63.5517 11.6972 63.6672L10.2932 64.4184L10.3316 64.2912L12.6404 68.64L12.53 68.6064L13.9364 67.86C14.196 67.7443 14.4875 67.7214 14.762 67.7952C15.0183 67.889 15.2605 68.0174 15.482 68.1768L15.8156 68.3832C15.9988 68.4886 16.1522 68.6388 16.2614 68.8197C16.3706 69.0007 16.4319 69.2064 16.4396 69.4176L16.3892 71.0064L16.3196 70.944L21.2468 71.1192L21.2012 71.1624L21.266 69.576C21.302 68.9952 21.8108 68.6472 22.2956 68.4504C22.73 68.1624 23.2988 67.944 23.7932 68.2344L25.1372 69.0768H25.142ZM25.142 69.0768L23.7884 68.2536C23.2916 67.9728 22.7564 68.196 22.3196 68.4936C21.8396 68.7 21.3596 69.0264 21.3356 69.588L21.2948 71.1696V71.2128H21.2492L16.3196 71.076H16.2524V71.0088L16.2956 69.4272C16.2873 69.2406 16.232 69.059 16.1346 68.8996C16.0372 68.7401 15.9011 68.6079 15.7388 68.5152L15.398 68.3064L15.0596 68.0976C14.9049 67.994 14.7265 67.9313 14.5409 67.9154C14.3554 67.8994 14.1689 67.9307 13.9988 68.0064L12.6044 68.7552L12.5348 68.7936L12.494 68.7216L10.154 64.38L10.1084 64.2984L10.19 64.2528L11.5796 63.5016C11.7335 63.4037 11.8599 63.2681 11.9469 63.1077C12.0338 62.9472 12.0784 62.7673 12.0764 62.5848L12.0884 62.184L12.1028 61.7856C12.1142 61.6044 12.0795 61.4233 12.0019 61.2591C11.9242 61.095 11.8062 60.9533 11.6588 60.8472L10.3196 60.0144L10.2284 59.9592L10.286 59.8656L12.8732 55.68L12.9356 55.5792L13.0388 55.6416L14.3804 56.4744C14.5393 56.5586 14.717 56.6008 14.8968 56.597C15.0766 56.5932 15.2524 56.5436 15.4076 56.4528L15.7556 56.256L16.1132 56.0784C16.2752 55.999 16.4145 55.8799 16.5181 55.7322C16.6218 55.5845 16.6864 55.413 16.706 55.2336L16.7612 53.6544V53.5488H16.8668L21.794 53.7144H21.8876V53.8056L21.8396 55.38C21.8464 55.5643 21.9 55.7438 21.9953 55.9017C22.0906 56.0595 22.2245 56.1906 22.3844 56.2824L22.7252 56.4912L23.0636 56.7048C23.2172 56.8078 23.3942 56.8703 23.5784 56.8867C23.7626 56.9031 23.9479 56.8727 24.1172 56.7984L25.5116 56.0568L25.5812 56.0208L25.6172 56.088L27.938 60.4416L27.9692 60.5016L27.9116 60.5304L26.5172 61.2792C26.3579 61.3802 26.2269 61.5199 26.1362 61.6853C26.0456 61.8506 25.9983 62.0362 25.9988 62.2248C25.9988 62.424 25.9772 62.8224 25.9676 63.0216C25.9531 63.212 25.9874 63.4029 26.0672 63.5763C26.1469 63.7497 26.2696 63.9 26.4236 64.0128L27.7604 64.8576L27.7892 64.8768L27.7724 64.9032L25.1444 69.0768H25.142Z" fill="#EBEBEB"/>
<path d="M20.9682 65.9643C17.7858 67.6803 14.0922 64.6851 15.0954 61.2003C15.2516 60.6791 15.5093 60.194 15.8537 59.7728C16.1982 59.3516 16.6225 59.0027 17.1023 58.7461C17.5821 58.4896 18.108 58.3305 18.6495 58.278C19.1911 58.2255 19.7377 58.2807 20.2578 58.4403C23.7138 59.5299 24.153 64.2627 20.9778 65.9643H20.9682ZM20.9682 65.9643C24.0882 64.2579 23.6082 59.6403 20.1978 58.6371C19.197 58.3501 18.1237 58.4655 17.2068 58.9587C16.2898 59.4519 15.6019 60.2839 15.2898 61.2771C14.2386 64.6707 17.8146 67.6395 20.9682 65.9763V65.9643Z" fill="#EBEBEB"/>
<path d="M31.044 85.0328L33.252 83.7584L32.8632 83.084C32.8071 82.9866 32.7794 82.8753 32.7832 82.7629C32.787 82.6505 32.8222 82.5414 32.8848 82.448C32.9537 82.3409 33.0169 82.2304 33.0744 82.1168C33.1243 82.0168 33.201 81.9327 33.2959 81.8738C33.3908 81.8148 33.5003 81.7835 33.612 81.7832H34.3944V79.232H33.612C33.5003 79.2317 33.3908 79.2004 33.2959 79.1415C33.201 79.0826 33.1243 78.9984 33.0744 78.8984C33.0169 78.7848 32.9537 78.6743 32.8848 78.5672C32.8222 78.4738 32.787 78.3647 32.7832 78.2523C32.7794 78.1399 32.8071 78.0287 32.8632 77.9312L33.252 77.2568L31.044 75.9824L30.6552 76.6616C30.5974 76.7581 30.5143 76.8368 30.4148 76.8893C30.3154 76.9418 30.2035 76.966 30.0912 76.9592C30.0288 76.9592 29.9664 76.9592 29.904 76.9592C29.8416 76.9592 29.7792 76.9592 29.7168 76.9592C29.6055 76.9661 29.4944 76.9422 29.3958 76.8902C29.2971 76.8381 29.2147 76.7598 29.1576 76.664L28.764 75.9824L26.556 77.2568L26.9472 77.9336C27.003 78.0313 27.0303 78.1427 27.0261 78.2551C27.0218 78.3675 26.9862 78.4764 26.9232 78.5696C26.856 78.6752 26.7912 78.7856 26.7336 78.8984C26.6838 78.9984 26.6071 79.0826 26.5121 79.1415C26.4172 79.2004 26.3077 79.2317 26.196 79.232H25.416V81.7832H26.196C26.3077 81.7835 26.4172 81.8148 26.5121 81.8738C26.6071 81.9327 26.6838 82.0168 26.7336 82.1168C26.7912 82.2296 26.856 82.34 26.9232 82.4456C26.9862 82.5388 27.0218 82.6478 27.0261 82.7602C27.0303 82.8726 27.003 82.9839 26.9472 83.0816L26.556 83.7608L28.764 85.0352L29.1552 84.356C29.2121 84.26 29.2945 84.1816 29.3932 84.1295C29.4919 84.0774 29.603 84.0536 29.7144 84.0608C29.7768 84.0608 29.8416 84.0608 29.904 84.0608C29.9664 84.0608 30.0288 84.0608 30.0912 84.0608C30.2035 84.0535 30.3157 84.0775 30.4152 84.13C30.5148 84.1825 30.5978 84.2616 30.6552 84.3584L31.044 85.0328ZM29.904 82.5944C29.4909 82.5944 29.0872 82.4719 28.7437 82.2424C28.4003 82.0128 28.1327 81.6866 27.9747 81.3049C27.8168 80.9232 27.7756 80.5033 27.8563 80.0982C27.9371 79.6931 28.1362 79.3211 28.4284 79.0291C28.7207 78.7372 29.0929 78.5385 29.4981 78.4582C29.9033 78.378 30.3232 78.4196 30.7047 78.5781C31.0862 78.7365 31.4121 79.0045 31.6413 79.3481C31.8704 79.6918 31.9925 80.0958 31.992 80.5088C31.992 80.7829 31.938 81.0543 31.833 81.3075C31.7281 81.5607 31.5742 81.7907 31.3803 81.9844C31.1864 82.1781 30.9562 82.3317 30.7029 82.4364C30.4496 82.541 30.1781 82.5947 29.904 82.5944Z" fill="#EBEBEB"/>
<path d="M47.0831 19.2914L45.8087 17.0834L45.1343 17.4746C45.0366 17.5301 44.9255 17.5576 44.8132 17.5538C44.7009 17.5499 44.5919 17.515 44.4983 17.453C44.3918 17.3824 44.2812 17.3183 44.1671 17.261C44.0671 17.2111 43.9829 17.1344 43.924 17.0395C43.8651 16.9445 43.8338 16.8351 43.8335 16.7234V15.9434H41.2799V16.7234C41.2796 16.8351 41.2482 16.9445 41.1893 17.0395C41.1304 17.1344 41.0463 17.2111 40.9463 17.261C40.8322 17.3183 40.7216 17.3824 40.6151 17.453C40.5214 17.515 40.4124 17.5499 40.3001 17.5538C40.1878 17.5576 40.0767 17.5301 39.9791 17.4746L39.3047 17.0834L38.0303 19.2914L38.7119 19.6802C38.8085 19.7371 38.8875 19.8198 38.94 19.9189C38.9926 20.018 39.0166 20.1298 39.0095 20.2418C39.0095 20.3042 39.0095 20.3666 39.0095 20.429C39.0095 20.4914 39.0095 20.5538 39.0095 20.6162C39.016 20.7278 38.992 20.839 38.94 20.938C38.888 21.037 38.8099 21.1199 38.7143 21.1778L38.0327 21.569L39.3071 23.777L39.9839 23.3858C40.0817 23.3305 40.193 23.3035 40.3053 23.3078C40.4176 23.312 40.5265 23.3473 40.6199 23.4098C40.7259 23.479 40.8357 23.5423 40.9487 23.5994C41.0487 23.6492 41.1328 23.7259 41.1917 23.8208C41.2506 23.9158 41.282 24.0252 41.2823 24.137V24.9194H43.8335V24.137C43.8335 24.0264 43.864 23.918 43.9216 23.8236C43.9791 23.7292 44.0616 23.6524 44.1599 23.6018C44.2729 23.5447 44.3826 23.4814 44.4887 23.4122C44.5821 23.3497 44.691 23.3144 44.8033 23.3102C44.9156 23.3059 45.0268 23.3329 45.1247 23.3882L45.8015 23.7794L47.0759 21.5714L46.3967 21.1826C46.3007 21.1251 46.2223 21.0423 46.1703 20.9432C46.1182 20.8441 46.0944 20.7326 46.1015 20.621C46.1015 20.5586 46.1015 20.4962 46.1015 20.4314C46.1015 20.3666 46.1015 20.3066 46.1015 20.2442C46.094 20.131 46.1187 20.018 46.1726 19.9182C46.2265 19.8185 46.3075 19.7359 46.4063 19.6802L47.0831 19.2914ZM44.6399 20.4314C44.6399 20.8444 44.5173 21.2482 44.2878 21.5916C44.0583 21.9351 43.732 22.2027 43.3504 22.3606C42.9687 22.5186 42.5487 22.5598 42.1436 22.4791C41.7385 22.3983 41.3665 22.1992 41.0746 21.9069C40.7827 21.6147 40.584 21.2424 40.5037 20.8372C40.4234 20.432 40.4651 20.0121 40.6235 19.6307C40.7819 19.2492 41.0499 18.9232 41.3936 18.6941C41.7373 18.4649 42.1412 18.3429 42.5543 18.3434C42.8284 18.3434 43.0998 18.3974 43.353 18.5023C43.6061 18.6073 43.8362 18.7611 44.0299 18.9551C44.2236 19.149 44.3771 19.3792 44.4818 19.6325C44.5865 19.8858 44.6402 20.1573 44.6399 20.4314Z" fill="#EBEBEB"/>
<path d="M108.808 63.3296L107.476 61.2008L107.524 61.2128L106.804 61.6184C106.671 61.6838 106.52 61.7048 106.374 61.6784C106.237 61.6437 106.106 61.5861 105.988 61.508C105.722 61.3856 105.45 61.22 105.422 60.896C105.422 60.6104 105.422 60.3464 105.422 60.0704L105.491 60.14L102.887 60.1592L102.976 60.0704C102.976 60.3464 102.976 60.6056 102.976 60.8984C102.962 61.017 102.918 61.13 102.848 61.2266C102.777 61.3233 102.684 61.4003 102.575 61.4504L102.222 61.6496C102.118 61.7069 102.002 61.7385 101.883 61.7419C101.764 61.7452 101.646 61.7201 101.538 61.6688L100.818 61.2752L100.96 61.2368L99.6641 63.3968L99.6233 63.2408L100.343 63.6368C100.556 63.855 100.675 64.1479 100.675 64.4528C100.675 64.7576 100.556 65.0505 100.343 65.2688L99.6233 65.6696L99.6689 65.5016L100.965 67.6616L100.814 67.6208L101.534 67.2272C101.679 67.1566 101.843 67.1347 102.002 67.1648C102.146 67.2036 102.283 67.2652 102.407 67.3472C102.686 67.484 102.959 67.6616 102.988 68.0048C102.988 68.3 102.988 68.5568 102.988 68.8328L102.882 68.7272L105.486 68.7392L105.393 68.8328C105.422 68.372 105.256 67.6952 105.803 67.4672L105.978 67.3712C106.096 67.2778 106.237 67.218 106.385 67.1981C106.534 67.1782 106.685 67.1991 106.823 67.2584L107.543 67.6592L107.45 67.6856L108.772 65.5448L108.789 65.6096L108.069 65.204C107.954 65.1211 107.866 65.006 107.816 64.8732C107.766 64.7404 107.756 64.5958 107.788 64.4576C107.763 64.3221 107.777 64.1823 107.829 64.0547C107.881 63.927 107.968 63.817 108.081 63.7376L108.801 63.3536L108.808 63.3296ZM108.808 63.3296L108.1 63.7352C107.992 63.8142 107.909 63.9239 107.864 64.05C107.818 64.1761 107.811 64.313 107.843 64.4432C107.814 64.5713 107.825 64.7052 107.872 64.8276C107.92 64.9499 108.004 65.0551 108.112 65.1296L108.832 65.516L108.873 65.5376L108.849 65.5784L107.57 67.7384L107.536 67.796L107.476 67.7648L106.756 67.376C106.64 67.3297 106.514 67.3164 106.391 67.3376C106.268 67.3587 106.154 67.4136 106.06 67.496C105.943 67.5531 105.832 67.6214 105.729 67.7C105.644 67.7808 105.591 67.8886 105.578 68.0048C105.578 68.2904 105.578 68.612 105.578 68.9096H105.482H102.878H102.772C102.772 68.6096 102.772 68.2784 102.772 67.9952C102.772 67.712 102.501 67.6136 102.292 67.5152C102.189 67.445 102.074 67.3922 101.954 67.3592C101.842 67.3379 101.727 67.3539 101.625 67.4048L100.905 67.7984L100.811 67.8488L100.754 67.7552L99.4457 65.5952L99.3809 65.4872L99.4913 65.4272L100.211 65.036C100.304 64.9817 100.375 64.8969 100.413 64.796C100.439 64.6745 100.445 64.5498 100.432 64.4264C100.462 64.3131 100.457 64.1936 100.418 64.0833C100.379 63.9729 100.308 63.8767 100.214 63.8072L99.4937 63.4136L99.3905 63.356L99.4505 63.2576L100.758 61.1096L100.811 61.0208L100.9 61.0712L101.62 61.4648C101.733 61.5085 101.855 61.5211 101.974 61.5013C102.093 61.4814 102.205 61.4298 102.297 61.352C102.413 61.2973 102.523 61.2314 102.626 61.1552C102.71 61.0782 102.765 60.9735 102.779 60.86C102.779 60.5792 102.779 60.2552 102.779 59.96H102.868L105.472 59.9792H105.544V60.0488C105.582 60.4736 105.376 61.0616 105.854 61.2872C106.019 61.3984 106.198 61.4887 106.386 61.556C106.511 61.5829 106.641 61.5677 106.756 61.5128L107.476 61.1288L107.507 61.112L107.524 61.1432L108.796 63.3032L108.808 63.3296Z" fill="#EBEBEB"/>
<path d="M106.32 64.4428C106.332 66.2908 103.953 67.198 102.626 65.9716C102.411 65.7787 102.239 65.5426 102.121 65.2788C102.003 65.015 101.942 64.7293 101.942 64.4404C101.942 64.1515 102.003 63.8658 102.121 63.602C102.239 63.3381 102.411 63.1021 102.626 62.9092C103.953 61.6804 106.32 62.5924 106.32 64.4428ZM106.32 64.4428C106.32 62.6404 103.987 61.8244 102.77 63.0604C102.585 63.2394 102.438 63.4539 102.337 63.6909C102.237 63.928 102.185 64.1829 102.185 64.4404C102.185 64.6979 102.237 64.9528 102.337 65.1898C102.438 65.4269 102.585 65.6414 102.77 65.8204C103.984 67.0564 106.332 66.2452 106.322 64.4428H106.32Z" fill="#EBEBEB"/>
<path d="M80.9326 11.0088V27.8256H83.2942V31.9056L87.3742 27.8256H109.761V11.0088H80.9326Z" fill="white"/>
<path d="M80.9326 11.0091C80.9926 15.9651 81.0406 22.9539 81.0766 27.8259L80.9326 27.6843L83.2942 27.6699H83.4478V27.8259L83.4694 31.9059L83.1646 31.7811L87.2254 27.6819L87.2854 27.6219C93.9094 27.6219 103.226 27.5859 109.759 27.5907L109.519 27.8307L109.55 11.0139L109.754 11.2179C102.569 11.1891 88.111 11.0763 80.9254 11.0139L80.9326 11.0091ZM80.9326 11.0091C88.2214 10.9443 102.677 10.8315 109.973 10.8027V11.0091L110.001 27.8259V28.0659C103.437 28.0851 94.039 28.0371 87.379 28.0371L87.523 27.9771L83.4238 32.0379L83.1166 32.3403V31.9107L83.1406 27.8307L83.2966 27.9867H80.935H80.791C80.791 23.0307 80.9062 16.0395 80.935 11.0259L80.9326 11.0091Z" fill="#EBEBEB"/>
<path d="M100.8 19.4164C100.8 19.6865 100.88 19.9505 101.03 20.1751C101.18 20.3996 101.393 20.5747 101.643 20.678C101.892 20.7814 102.167 20.8084 102.432 20.7557C102.697 20.703 102.94 20.573 103.131 20.382C103.322 20.191 103.452 19.9477 103.505 19.6828C103.557 19.4179 103.53 19.1433 103.427 18.8938C103.324 18.6443 103.149 18.431 102.924 18.2809C102.7 18.1309 102.435 18.0508 102.165 18.0508C101.803 18.0514 101.456 18.1955 101.2 18.4515C100.945 18.7074 100.8 19.0544 100.8 19.4164Z" fill="#EBEBEB"/>
<path d="M93.9814 19.4164C93.9814 19.6865 94.0615 19.9505 94.2116 20.1751C94.3616 20.3996 94.5749 20.5747 94.8245 20.678C95.074 20.7814 95.3486 20.8084 95.6135 20.7557C95.8784 20.703 96.1217 20.573 96.3127 20.382C96.5037 20.191 96.6337 19.9477 96.6864 19.6828C96.7391 19.4179 96.7121 19.1433 96.6087 18.8938C96.5053 18.6443 96.3303 18.431 96.1057 18.2809C95.8812 18.1309 95.6171 18.0508 95.347 18.0508C94.9851 18.0514 94.6381 18.1955 94.3821 18.4515C94.1262 18.7074 93.9821 19.0544 93.9814 19.4164Z" fill="#EBEBEB"/>
<path d="M87.165 19.4164C87.165 19.6865 87.2451 19.9505 87.3952 20.1751C87.5452 20.3996 87.7585 20.5747 88.008 20.678C88.2576 20.7814 88.5322 20.8084 88.7971 20.7557C89.062 20.703 89.3053 20.573 89.4963 20.382C89.6872 20.191 89.8173 19.9477 89.87 19.6828C89.9227 19.4179 89.8956 19.1433 89.7923 18.8938C89.6889 18.6443 89.5139 18.431 89.2893 18.2809C89.0648 18.1309 88.8007 18.0508 88.5306 18.0508C88.1685 18.0508 87.8211 18.1947 87.565 18.4508C87.3089 18.7069 87.165 19.0542 87.165 19.4164Z" fill="#EBEBEB"/>
<path d="M26.5416 30.4518C26.3568 31.6995 25.8175 32.8679 24.988 33.8181C24.1585 34.7683 23.0735 35.4603 21.8621 35.8117C20.6507 36.1632 19.3639 36.1594 18.1546 35.8008C16.9453 35.4421 15.8644 34.7438 15.0405 33.7887C14.2166 32.8337 13.6843 31.6621 13.5069 30.4133C13.3295 29.1645 13.5144 27.891 14.0397 26.7442C14.565 25.5975 15.4086 24.6257 16.4702 23.9445C17.5317 23.2632 18.7666 22.9012 20.028 22.9014V29.487L26.5416 30.4518Z" fill="#EBEBEB"/>
<path d="M27.9547 28.1452C27.9549 28.4665 27.9309 28.7874 27.8827 29.1052L21.3691 28.1452V21.5596C22.2342 21.5589 23.0908 21.7289 23.8901 22.0596C24.6894 22.3903 25.4156 22.8754 26.0273 23.487C26.6389 24.0987 27.124 24.8249 27.4547 25.6242C27.7855 26.4235 27.9554 27.2802 27.9547 28.1452Z" fill="#DBDBDB"/>
<path d="M27.7464 31.7959H20.7432V32.0359H27.7464V31.7959Z" fill="#C7C7C7"/>
<path d="M28.236 32.5277C28.1148 32.5277 27.9962 32.4917 27.8955 32.4242C27.7948 32.3568 27.7163 32.2609 27.6701 32.1488C27.624 32.0367 27.6121 31.9134 27.6361 31.7945C27.6601 31.6757 27.7189 31.5667 27.805 31.4813C27.8911 31.3959 28.0005 31.338 28.1196 31.3149C28.2386 31.2918 28.3618 31.3046 28.4736 31.3517C28.5853 31.3987 28.6805 31.4779 28.7472 31.5792C28.8139 31.6805 28.849 31.7993 28.848 31.9205C28.8467 32.082 28.7817 32.2364 28.6671 32.3502C28.5524 32.4639 28.3975 32.5277 28.236 32.5277ZM28.236 31.5461C28.1428 31.5536 28.0559 31.5959 27.9925 31.6646C27.9291 31.7334 27.8939 31.8234 27.8939 31.9169C27.8939 32.0104 27.9291 32.1005 27.9925 32.1692C28.0559 32.2379 28.1428 32.2802 28.236 32.2877C28.2872 32.2918 28.3387 32.2853 28.3873 32.2685C28.4358 32.2518 28.4804 32.2251 28.5181 32.1903C28.5559 32.1555 28.586 32.1132 28.6066 32.0661C28.6272 32.0191 28.6379 31.9683 28.6379 31.9169C28.6379 31.8655 28.6272 31.8147 28.6066 31.7677C28.586 31.7206 28.5559 31.6784 28.5181 31.6435C28.4804 31.6087 28.4358 31.582 28.3873 31.5653C28.3387 31.5485 28.2872 31.542 28.236 31.5461Z" fill="#C7C7C7"/>
<path d="M35.455 31.5479H30.0166V31.7927H35.455V31.5479Z" fill="#C7C7C7"/>
<path d="M33.0958 32.0381H30.0166V32.2829H33.0958V32.0381Z" fill="#C7C7C7"/>
<path d="M85.0027 74.4482H83.1475V87.6578H85.0027V74.4482Z" fill="#EBEBEB"/>
<path d="M88.195 77.6455H86.3398V87.6583H88.195V77.6455Z" fill="#EBEBEB"/>
<path d="M91.3845 82.6514H89.5293V87.6578H91.3845V82.6514Z" fill="#EBEBEB"/>
<path d="M94.574 79.791H92.7188V87.6558H94.574V79.791Z" fill="#EBEBEB"/>
<path d="M97.7663 76.7881H95.9111V87.6553H97.7663V76.7881Z" fill="#EBEBEB"/>
<path d="M100.956 75.0215H99.1006V87.6551H100.956V75.0215Z" fill="#EBEBEB"/>
<path d="M82.0793 72.7686L82.1009 76.4909V80.2109L82.1153 87.6509L82.0793 87.6006C83.7849 87.6006 85.4905 87.6006 87.1961 87.6006L92.3153 87.6125H97.4321L102.551 87.639L97.4321 87.6678H92.3153H87.1961C85.4921 87.6678 83.7865 87.6678 82.0793 87.6678H82.0312V87.6197L82.0481 80.1797V76.4597L82.0793 72.7686Z" fill="#EBEBEB"/>
<path d="M81.6621 73.5147C81.9312 73.4443 82.2138 73.4443 82.4829 73.5147C82.2138 73.585 81.9312 73.585 81.6621 73.5147Z" fill="#EBEBEB"/>
<path d="M81.6621 74.6407C81.9312 74.5703 82.2138 74.5703 82.4829 74.6407C82.3494 74.6782 82.2112 74.696 82.0725 74.6935C81.9339 74.6948 81.7958 74.6771 81.6621 74.6407Z" fill="#EBEBEB"/>
<path d="M81.6621 75.7784C81.9312 75.708 82.2138 75.708 82.4829 75.7784C82.2138 75.8487 81.9312 75.8487 81.6621 75.7784Z" fill="#EBEBEB"/>
<path d="M81.6621 76.9082C81.9312 76.8379 82.2138 76.8379 82.4829 76.9082C82.2138 76.9786 81.9312 76.9786 81.6621 76.9082Z" fill="#EBEBEB"/>
<path d="M81.6621 78.041C81.9312 77.9707 82.2138 77.9707 82.4829 78.041C82.2138 78.1114 81.9312 78.1114 81.6621 78.041Z" fill="#EBEBEB"/>
<path d="M81.6621 79.1719C81.9312 79.1016 82.2138 79.1016 82.4829 79.1719C82.2138 79.2423 81.9312 79.2423 81.6621 79.1719Z" fill="#EBEBEB"/>
<path d="M81.6621 80.3047C81.9312 80.2344 82.2138 80.2344 82.4829 80.3047C82.2134 80.3719 81.9316 80.3719 81.6621 80.3047Z" fill="#EBEBEB"/>
<path d="M81.6621 81.4346C81.9312 81.3642 82.2138 81.3642 82.4829 81.4346C82.2138 81.505 81.9312 81.505 81.6621 81.4346Z" fill="#EBEBEB"/>
<path d="M81.6621 82.5606C81.9312 82.4902 82.2138 82.4902 82.4829 82.5606C82.2134 82.6277 81.9316 82.6277 81.6621 82.5606Z" fill="#EBEBEB"/>
<path d="M81.6621 83.6983C81.9312 83.6279 82.2138 83.6279 82.4829 83.6983C82.2138 83.7686 81.9312 83.7686 81.6621 83.6983Z" fill="#EBEBEB"/>
<path d="M81.6621 84.8287C81.9316 84.7615 82.2134 84.7615 82.4829 84.8287C82.2138 84.8991 81.9312 84.8991 81.6621 84.8287Z" fill="#EBEBEB"/>
<path d="M81.6621 85.961C81.9312 85.8906 82.2138 85.8906 82.4829 85.961C82.2138 86.0313 81.9312 86.0313 81.6621 85.961Z" fill="#EBEBEB"/>
<path d="M90.8809 37.7114L93.3289 29.8994L94.7257 30.8906L90.8809 37.7114Z" fill="#455A64"/>
<path d="M92.8037 39.6145L99.4685 37.9873L99.8429 39.8257L92.8037 39.6145Z" fill="#455A64"/>
<path d="M92.1025 38.0829L100.512 29.9854L102.135 32.2198L92.1025 38.0829Z" fill="#455A64"/>
<path d="M92.7023 108.843H69.7991C69.3703 107.563 68.9647 106.316 68.5823 105.101C68.1023 103.594 67.7207 102.14 67.4159 100.76C67.3439 100.433 67.2767 100.109 67.2143 99.7998C67.0919 99.1734 66.9863 98.5638 66.9023 97.9734C66.4751 95.0094 66.5375 92.547 67.1423 90.8766C67.6823 89.3838 68.6591 88.5246 70.1135 88.5078H70.2887C70.4063 88.5078 70.5287 88.5198 70.6463 88.5342C72.9791 88.803 76.3751 90.987 80.9663 95.7678C82.0671 96.915 83.2399 98.2142 84.4847 99.6654C84.8975 100.145 85.3247 100.64 85.7663 101.149C87.8399 103.52 90.2111 106.143 92.7023 108.843Z" fill="#AD6359"/>
<path d="M97.6797 108.843H67.3629C66.7773 107.343 66.2325 105.9 65.7405 104.535C65.3725 103.516 65.0445 102.533 64.7565 101.588C64.6389 101.204 64.5165 100.824 64.4229 100.452C64.2117 99.71 64.0261 98.99 63.8661 98.2924C63.7629 97.8556 63.6693 97.4308 63.5877 97.0132C63.5061 96.5956 63.4365 96.238 63.3741 95.8636C63.3333 95.6236 63.2949 95.3692 63.2613 95.1268C63.2277 94.8844 63.1965 94.6468 63.1677 94.4068C63.1245 94.0372 63.0885 93.6868 63.0645 93.3292C63.0501 93.142 63.0381 92.9572 63.0285 92.7772C63.0285 92.746 63.0285 92.7148 63.0285 92.6836C62.9157 90.202 63.2685 88.2628 64.0029 86.8996C64.4838 85.944 65.3022 85.2009 66.2997 84.8141C66.3567 84.7889 66.4152 84.7673 66.4749 84.7492C67.6173 84.3724 69.0141 84.4372 70.6245 84.9652C72.6957 85.6444 75.1173 87.0869 77.8029 89.3285C83.3013 93.9413 90.6645 101.384 97.6797 108.843Z" fill="#6A83AD"/>
<path d="M89.9494 100.822C90.2583 102.581 90.8706 104.273 91.759 105.822C92.3878 106.902 93.5878 108.38 94.9606 107.478C95.2488 107.283 95.4806 107.015 95.6326 106.702C93.7414 104.701 91.8262 102.721 89.9494 100.822ZM83.3182 108.843H86.1598C85.1998 108.241 84.1006 108.001 83.3182 108.843ZM86.059 96.9415C84.391 95.3047 82.7614 93.7543 81.2302 92.3623C80.827 92.9239 80.7334 93.7399 80.839 94.6183C80.86 95.001 80.9065 95.3818 80.9782 95.7583C81.2101 97.0015 81.6233 98.2039 82.2046 99.3271C82.6846 100.206 83.5294 101.706 84.727 101.686C84.9333 101.687 85.1367 101.637 85.3198 101.542C85.5028 101.446 85.6601 101.308 85.7782 101.139C86.1598 100.633 86.3014 99.8719 86.3254 99.2791C86.3114 98.4932 86.2222 97.7104 86.059 96.9415Z" fill="#263238"/>
<path opacity="0.1" d="M76.836 108.843H67.368C66.78 107.343 66.2352 105.9 65.7456 104.535C65.3792 103.515 65.0504 102.533 64.7592 101.587C64.6408 101.203 64.5288 100.825 64.4232 100.452C64.212 99.7098 64.0264 98.9939 63.8664 98.3043C63.7632 97.8675 63.6696 97.4426 63.588 97.025C63.5064 96.6074 63.4368 96.2499 63.3744 95.8755C63.3336 95.6355 63.2952 95.3811 63.2616 95.1387C63.228 94.8963 63.1968 94.6587 63.168 94.4187C62.7768 91.0971 63.096 88.5794 64.008 86.9162C64.1674 86.6201 64.3555 86.3404 64.5696 86.0811L65.2752 87.3891L67.1472 90.8619L69.6 95.4387L70.4928 97.0947L70.7328 97.5194L74.2368 104.019L76.08 107.443L76.836 108.843Z" fill="black"/>
<path d="M76.3779 108.843H61.0179C61.0179 106.297 61.0179 103.832 61.0179 101.506C61.0179 101.053 61.0179 100.604 61.0179 100.16C61.0179 99.3223 61.0179 98.5039 61.0179 97.7095C61.0323 91.9495 61.0587 87.4015 61.0707 85.1527C61.0707 84.1567 61.0827 83.6095 61.0827 83.6095L60.9435 83.0863L60.6699 82.0615C62.7555 82.6012 64.7247 83.5179 66.4803 84.7663C66.8003 84.9919 67.1203 85.2367 67.4403 85.5007C68.2742 86.1768 69.0387 86.9342 69.7227 87.7615C69.7947 87.8479 69.8643 87.9319 69.9339 88.0207C70.0563 88.1767 70.1739 88.3351 70.2939 88.5007C70.4139 88.6663 70.5579 88.8655 70.6827 89.0575C71.2947 89.9757 71.8072 90.9564 72.2115 91.9831C73.2171 94.5295 74.5875 100.369 76.0851 107.444C76.1795 107.905 76.2771 108.371 76.3779 108.843Z" fill="#6A83AD"/>
<path d="M75.1196 108.843H26.0156C31.9268 99.0627 37.5356 90.7635 40.538 87.7491C40.9369 87.3461 41.3635 86.9716 41.8148 86.6283C42.7328 85.9219 43.7261 85.319 44.7764 84.8307C45.8134 84.3424 46.8891 83.9411 47.9924 83.6307C48.5972 83.4555 49.214 83.3067 49.838 83.1771C52.7673 82.5906 55.7683 82.4498 58.7396 82.7595C59.498 82.8387 60.2396 82.9467 60.9596 83.0835C62.811 83.4075 64.6061 83.9959 66.29 84.8307C66.684 85.032 67.0662 85.2555 67.4348 85.5003C68.226 86.0084 68.9201 86.6538 69.4844 87.4059C69.5612 87.5139 69.6404 87.6315 69.7244 87.7611C69.7748 87.8451 69.8252 87.9315 69.8756 88.0227C69.9572 88.1715 70.0372 88.3315 70.1156 88.5027C70.3108 88.9059 70.5068 89.3667 70.7036 89.8851C71.8748 92.9715 73.0772 98.0211 74.2364 104.021C74.534 105.569 74.8316 107.182 75.1196 108.843Z" fill="#EBEBEB"/>
<path d="M46.2842 88.1855C47.9419 90.3882 49.7613 92.4643 51.7274 94.3967C53.6834 96.2927 55.8314 97.9967 58.229 99.1439C60.6266 100.291 63.2978 100.824 65.8538 100.238C68.4098 99.6527 70.5722 97.6895 71.6138 95.1095C71.1122 97.8335 69.0266 100.435 66.1466 101.266C63.3194 102.158 60.221 101.626 57.6386 100.375C55.0916 99.0814 52.8232 97.3006 50.9618 95.1335C49.0924 93.0422 47.5185 90.7044 46.2842 88.1855Z" fill="#C7C7C7"/>
<path d="M48.8309 108.842H22.8701C27.8549 99.1943 32.1485 91.1903 33.8189 89.1191C33.9032 89.0107 33.9938 88.9074 34.0901 88.8095C36.0989 86.8151 39.0005 85.3895 41.6285 84.4175C43.6852 83.6588 45.8012 83.072 47.9549 82.6631C47.9549 82.6631 47.9669 83.0015 47.9909 83.6231C48.0365 84.9023 48.1277 87.3767 48.2309 90.6359C48.2437 90.9671 48.2557 91.3055 48.2669 91.6511C48.4373 96.3383 48.6389 102.42 48.8309 108.842Z" fill="#6A83AD"/>
<path d="M46.7543 95.4029C46.7375 95.3621 46.7183 95.3237 46.6991 95.2853C46.6799 95.2469 46.6487 95.1917 46.6223 95.1485C46.5932 95.1053 46.5619 95.0637 46.5287 95.0237C46.5074 94.9971 46.4841 94.9723 46.4591 94.9493C46.4231 94.9133 46.3871 94.8821 46.3511 94.8509C46.315 94.8223 46.2773 94.7959 46.2383 94.7717C46.2129 94.7554 46.1864 94.741 46.1591 94.7285C46.0831 94.6889 46.0025 94.659 45.9191 94.6397L45.8735 94.6277C45.609 94.5852 45.3383 94.6066 45.0839 94.6901C44.5103 94.8875 43.9734 95.1786 43.4951 95.5517C42.8934 95.9959 42.3313 96.4913 41.8151 97.0325C41.6375 97.2173 41.4647 97.4093 41.2967 97.6061C41.1839 97.7381 41.0759 97.8725 40.9679 98.0093C40.8599 98.1461 40.7567 98.2829 40.6535 98.4245C39.8324 99.5296 39.2408 100.788 38.9135 102.125C38.8487 102.274 38.7863 102.42 38.7311 102.569C38.7039 102.635 38.6799 102.7 38.6591 102.764C38.6399 102.819 38.6207 102.874 38.6039 102.929C38.5871 102.984 38.5607 103.068 38.5415 103.136C38.3015 103.971 38.3015 104.727 38.7047 105.209C38.7263 105.236 38.7503 105.26 38.7767 105.286C38.8273 105.336 38.8819 105.382 38.9399 105.423C39.1075 105.536 39.2947 105.617 39.4919 105.663C39.5186 105.67 39.5459 105.675 39.5735 105.677L39.6527 105.692C39.8961 105.716 40.1418 105.686 40.3727 105.605C40.4399 105.584 40.5095 105.557 40.5791 105.528C40.6613 105.495 40.7414 105.456 40.8191 105.413C40.8959 105.375 40.9727 105.332 41.0471 105.286C41.1215 105.24 41.1791 105.204 41.2463 105.159C41.5308 104.964 41.8025 104.752 42.0599 104.523L42.1631 104.429C42.1943 104.403 42.2231 104.376 42.2543 104.345L42.4439 104.17L42.5303 104.088C42.6335 103.992 42.7295 103.896 42.8207 103.81L43.0343 103.601C43.1591 103.481 43.2743 103.361 43.4063 103.229C43.5383 103.097 43.5911 103.037 43.6823 102.936C43.7735 102.836 43.8911 102.696 43.9943 102.588C44.0975 102.48 44.1983 102.348 44.2967 102.231C45.0711 101.29 45.7056 100.243 46.1807 99.1205C46.5599 98.2109 47.1935 96.4805 46.7543 95.4029Z" fill="#263238"/>
<path d="M45.9047 94.6276C45.2639 97.3852 43.7687 100.692 41.3879 104.278C41.1191 104.684 40.8455 105.096 40.5695 105.521C39.8855 106.572 39.1751 107.681 38.4479 108.838H17.0879C23.8775 102.087 34.4711 85.8484 42.6455 85.438C46.4039 85.2532 47.0015 89.8972 45.9047 94.6276Z" fill="#AD6359"/>
<path d="M47.52 90.4584C47.4779 92.1314 47.2214 93.7922 46.7568 95.4C46.656 95.7744 46.5448 96.1568 46.4232 96.5472C46.3752 96.6984 46.3272 96.852 46.2768 97.0056C46.2 97.2456 46.1208 97.4856 46.0368 97.7256C45.9744 97.9008 45.912 98.0784 45.8472 98.256C45.7824 98.4336 45.7344 98.568 45.6744 98.724C45.6144 98.88 45.5568 99.0408 45.4944 99.204C45.2544 99.8448 44.9928 100.51 44.7168 101.191C44.6496 101.362 44.58 101.534 44.508 101.707L44.2944 102.23C43.4424 104.297 42.4656 106.524 41.4024 108.847H16.4736C16.5168 108.804 23.9808 99.0072 29.8464 92.7672C35.2488 87.0216 41.5008 83.3496 44.7768 84.8472C46.428 85.5984 47.3712 87.2784 47.5032 89.7648C47.52 89.9784 47.52 90.2136 47.52 90.4584Z" fill="#6A83AD"/>
<path d="M46.6991 95.2801C46.6751 95.2321 46.6487 95.1865 46.6223 95.1433C46.5932 95.1001 46.5619 95.0585 46.5287 95.0185C46.5074 94.992 46.4841 94.9671 46.4591 94.9441C46.426 94.9082 46.3899 94.8753 46.3511 94.8457C46.315 94.8172 46.2773 94.7907 46.2383 94.7665C46.2129 94.7503 46.1864 94.7358 46.1591 94.7233C46.0831 94.6837 46.0025 94.6539 45.9191 94.6345H45.8735C45.609 94.5921 45.3383 94.6135 45.0839 94.6969C44.5103 94.8943 43.9734 95.1855 43.4951 95.5585C42.8934 96.0027 42.3313 96.4981 41.8151 97.0393C41.6375 97.2241 41.4647 97.4161 41.2967 97.6129C41.1839 97.7449 41.0759 97.8793 40.9679 98.0161C40.8599 98.1529 40.7567 98.2897 40.6535 98.4313C39.8324 99.5365 39.2408 100.795 38.9135 102.132C38.8487 102.281 38.7863 102.427 38.7311 102.576C38.7039 102.642 38.6799 102.706 38.6591 102.77C38.6399 102.826 38.6207 102.881 38.6039 102.936C38.5871 102.991 38.5607 103.075 38.5415 103.143C38.3015 103.978 38.3015 104.734 38.7047 105.216C38.7263 105.243 38.7503 105.267 38.7767 105.293C38.8273 105.343 38.8819 105.389 38.9399 105.43C39.1086 105.543 39.2965 105.624 39.4943 105.67L39.5735 105.686L39.6527 105.701C39.8961 105.725 40.1418 105.695 40.3727 105.615C40.4399 105.593 40.5095 105.566 40.5791 105.538C40.6613 105.504 40.7414 105.466 40.8191 105.423C40.8959 105.384 40.9727 105.341 41.0471 105.295C41.1215 105.25 41.1791 105.214 41.2463 105.168C41.5308 104.974 41.8025 104.761 42.0599 104.532L42.1631 104.439C42.1943 104.412 42.2231 104.386 42.2543 104.355L42.4439 104.179L42.5303 104.098C42.6335 104.002 42.7295 103.906 42.8207 103.819L43.0343 103.61C43.1591 103.49 43.2743 103.371 43.4063 103.239C43.5383 103.107 43.5911 103.047 43.6823 102.946C43.7735 102.845 43.8911 102.706 43.9943 102.598C44.0975 102.49 44.1983 102.358 44.2967 102.24L44.5103 101.717C44.5823 101.544 44.6519 101.371 44.7191 101.201C44.9951 100.519 45.2543 99.8545 45.4967 99.2137C45.5591 99.0529 45.6191 98.8945 45.6767 98.7337C45.7343 98.5729 45.7943 98.4193 45.8495 98.2657C45.9047 98.1121 45.9767 97.9105 46.0391 97.7353C46.1231 97.4953 46.2023 97.2553 46.2791 97.0153C46.3295 96.8617 46.3775 96.7081 46.4255 96.5569C46.5487 96.1665 46.6599 95.7841 46.7591 95.4097C46.7375 95.3593 46.7183 95.3209 46.6991 95.2801Z" fill="#263238"/>
<path d="M42.1557 108.343C42.0693 108.509 41.9829 108.677 41.8941 108.842H41.6709C41.7885 108.653 41.9109 108.465 42.0285 108.276C42.0379 108.26 42.0531 108.248 42.0709 108.243C42.0887 108.238 42.1078 108.24 42.1242 108.249C42.1406 108.257 42.1531 108.272 42.1589 108.289C42.1648 108.307 42.1636 108.326 42.1557 108.343Z" fill="#263238"/>
<path d="M90.7918 52.8003C90.7702 52.8003 90.7486 52.8219 90.7678 52.8339C93.0694 54.3843 94.447 57.2067 93.379 59.9619C92.4646 62.3163 90.4654 63.3507 88.2502 63.5955C90.1534 62.6619 91.795 61.1475 92.4526 59.1075C93.1726 56.8683 92.5102 54.3075 90.6958 52.8843C92.4502 50.8347 93.619 48.0603 92.9878 45.4059C92.4598 43.1715 90.6526 41.3379 88.3558 41.0091C89.671 38.6859 89.5678 35.6667 87.8878 33.6003C86.3158 31.6587 83.6686 30.8643 81.2158 31.3995C81.615 30.5657 81.7931 29.6432 81.7329 28.7206C81.6728 27.7981 81.3763 26.9065 80.8721 26.1316C80.3679 25.3567 79.6728 24.7246 78.8537 24.2958C78.0347 23.8671 77.1191 23.6562 76.195 23.6835C76.591 22.2963 76.0198 20.8251 74.899 19.9179C73.6102 18.8667 71.8534 18.7443 70.2142 18.9219C69.9886 18.2174 69.5859 17.5825 69.0447 17.0782C68.5034 16.574 67.8417 16.2171 67.123 16.0419C66.1742 15.8476 65.1874 15.9892 64.3314 16.4423C63.4755 16.8955 62.8037 17.632 62.431 18.5259C60.1294 17.2203 57.4414 16.1259 54.727 16.7187C52.4926 17.1987 50.407 18.8619 49.9822 21.1371C45.5398 19.3563 40.4638 21.8259 39.0694 26.4555C37.0798 26.2539 35.1094 27.2235 33.895 28.8411C32.6806 30.4587 32.3182 31.8507 32.215 32.5179C31.3224 32.513 30.4497 32.7819 29.7146 33.2883C28.9795 33.7946 28.4173 34.5142 28.1038 35.3499C27.4726 37.0131 27.8638 38.6091 28.6702 40.0491C28.6364 40.5287 28.4953 40.9945 28.2574 41.4123C27.0574 43.6251 26.9638 46.1091 28.0918 48.3027C25.9126 50.3379 26.095 54.0387 28.4494 55.7427C26.9494 58.3683 28.0054 61.8987 30.6646 63.2235C30.1841 64.2904 29.9418 65.4493 29.9547 66.6193C29.9675 67.7894 30.2352 68.9426 30.739 69.9987C31.5334 71.6163 33.139 73.0635 35.0158 72.8787C34.555 74.2443 35.659 75.6243 36.9622 76.1091C37.4618 76.2834 37.9795 76.401 38.5054 76.4595C39.127 76.5411 39.9454 76.4787 40.507 76.7787C41.0686 77.0787 41.3398 77.7987 41.707 78.2979C41.9753 78.6558 42.281 78.9841 42.619 79.2771C44.6734 81.0483 47.7142 81.4371 50.2294 80.4171C50.8551 80.1681 51.4412 79.8293 51.9694 79.4115C53.2558 81.1251 55.5142 81.4611 57.5974 81.1179C57.8374 81.0771 58.0774 81.0267 58.3174 80.9691C59.0507 80.7737 59.7654 80.5143 60.4534 80.1939C60.6878 80.088 60.9282 79.9958 61.1734 79.9179C61.5695 79.7886 61.9906 79.7549 62.4022 79.8195C62.839 79.8915 63.2518 80.0595 63.6886 80.1339C65.1718 80.3739 66.4462 79.6731 67.6222 78.8379C68.5178 79.9867 69.7812 80.7926 71.2006 81.1203C75.007 81.9627 79.2862 79.0059 80.0974 74.6403C81.2885 74.7659 82.4923 74.6015 83.606 74.161C84.7198 73.7205 85.7104 73.0171 86.4934 72.1107C86.6598 71.9127 86.8144 71.7052 86.9566 71.4891C87.6108 70.4717 87.9899 69.302 88.0568 68.0943C88.1237 66.8865 87.8761 65.6821 87.3382 64.5987C87.2686 64.4547 87.1942 64.3131 87.1126 64.1739C87.1846 64.1739 87.259 64.1739 87.3334 64.1739C90.0934 64.2099 92.7934 62.9739 93.847 60.1419C94.9702 57.1371 93.4846 54.1995 90.7918 52.8003ZM32.1598 32.9451C32.1598 32.9451 31.5958 33.2091 31.3366 33.3675C30.6155 33.8247 30.0009 34.4313 29.5343 35.1463C29.0677 35.8614 28.7599 36.6682 28.6318 37.5123C28.5682 38.0135 28.5682 38.5207 28.6318 39.0219C28.6318 39.0891 28.6318 39.1443 28.6318 39.2091C28.2707 38.2789 28.18 37.2655 28.3702 36.2859C28.7854 34.3659 30.2566 33.0699 32.1646 32.7147C32.1598 32.8539 32.1598 32.9451 32.1598 32.9451ZM67.0462 16.4019C68.4862 16.7451 69.2758 17.7603 69.6862 18.9771H69.6574C69.1252 18.2812 68.4048 17.7523 67.5814 17.4531C66.7474 17.1557 65.8431 17.1169 64.9868 17.3417C64.1304 17.5665 63.3617 18.0444 62.7814 18.7131L62.6566 18.6435C63.6454 17.0811 64.9798 15.9123 67.0462 16.4019ZM71.2966 80.6595C70.1614 80.4003 69.0046 79.7691 67.879 78.6747L67.9318 78.6387C68.9713 79.3735 70.1785 79.8356 71.443 79.9827C72.8056 80.1347 74.1844 79.9352 75.4481 79.4033C76.7118 78.8715 77.8183 78.0249 78.6622 76.9443C76.8646 79.6107 74.143 81.3099 71.2966 80.6595Z" fill="#263238"/>
<path d="M65.9447 98.2278C60.8159 99.1422 52.3895 94.2077 49.3079 87.7469C49.1015 87.3029 51.8471 70.2126 52.0415 66.7686L73.3415 73.2246C73.3415 73.2246 70.8143 80.3238 70.5143 86.3286C70.4943 86.8033 70.5176 87.2789 70.5839 87.7494C70.5839 87.8142 70.6007 87.8934 70.6007 87.9894C70.8887 90.6942 70.9007 97.3422 65.9447 98.2278Z" fill="#AD6359"/>
<path d="M70.5795 87.7515C70.5795 87.8115 70.5963 87.8883 70.5987 87.9795C69.8591 88.0398 69.1159 88.0398 68.3763 87.9795C55.8963 87.0003 53.8083 71.5395 53.4795 67.2051L58.8003 68.8203L73.3395 73.2267C73.3395 73.2267 70.8003 80.3283 70.5219 86.3307C70.4946 86.805 70.5139 87.2809 70.5795 87.7515Z" fill="#263238"/>
<path d="M48.5253 43.0639C46.6749 51.0391 52.3461 73.3255 58.2477 77.9767C66.8013 84.7207 80.0397 84.5143 85.5741 74.4007C90.9381 64.6087 83.0397 35.6959 76.5141 31.5487C66.9117 25.4407 51.2565 31.2823 48.5253 43.0639Z" fill="#AD6359"/>
<path d="M70.5598 54.9191C70.5334 54.8663 70.459 55.0199 70.4758 55.0823C70.8982 56.5727 71.131 58.3511 69.895 59.1887C69.8566 59.2151 69.8806 59.2895 69.9286 59.2703C71.5198 58.6223 71.1934 56.2655 70.5598 54.9191Z" fill="#263238"/>
<path d="M68.8205 53.6861C66.3581 54.1037 67.3805 58.9997 69.6605 58.6109C71.9045 58.2293 70.8869 53.3333 68.8205 53.6861Z" fill="#263238"/>
<path d="M79.6367 53.0403C79.6367 52.9803 79.7711 53.0859 79.7807 53.1483C80.0495 54.6747 80.6135 56.3787 82.0895 56.5971C82.1351 56.5971 82.1471 56.6811 82.0895 56.6835C80.3711 56.8011 79.6463 54.5331 79.6367 53.0403Z" fill="#263238"/>
<path d="M80.6616 51.1776C83.0616 50.4864 84.2616 55.3368 82.0464 55.9776C79.8312 56.6184 78.6504 51.7584 80.6616 51.1776Z" fill="#263238"/>
<path d="M66.0937 50.2872C66.7437 50.0717 67.4047 49.8906 68.0737 49.7448C68.8345 49.5432 69.4201 49.3056 70.1977 49.5744C70.409 49.6742 70.5815 49.841 70.6882 50.0489C70.795 50.2567 70.8301 50.4941 70.7881 50.724C70.5481 51.696 69.6769 52.164 68.7697 52.452C67.8649 52.7634 66.8763 52.7257 65.9977 52.3464C65.0737 51.972 65.2273 50.6136 66.0937 50.2872Z" fill="#263238"/>
<path d="M81.9123 47.357C81.2274 47.3515 80.5432 47.3098 79.8627 47.2322C79.0779 47.1746 78.4467 47.2106 77.7987 46.7042C77.6304 46.5423 77.5206 46.329 77.4867 46.0978C77.4528 45.8667 77.4967 45.6309 77.6115 45.4274C78.1515 44.5826 79.1307 44.4146 80.0787 44.4434C81.0358 44.4428 81.9592 44.7968 82.6707 45.437C83.4219 46.0922 82.8387 47.3282 81.9123 47.357Z" fill="#263238"/>
<path d="M75.1513 69.4009C75.4873 69.7969 75.8089 70.3297 76.3633 70.4281C76.9177 70.5265 77.5465 70.3417 78.0577 70.1881C78.0689 70.1847 78.0809 70.1849 78.0919 70.1887C78.103 70.1925 78.1126 70.1998 78.1192 70.2094C78.1259 70.219 78.1294 70.2305 78.1291 70.2422C78.1288 70.2539 78.1248 70.2652 78.1177 70.2745C77.8682 70.5566 77.5472 70.7659 77.1885 70.8804C76.8298 70.9949 76.4468 71.0103 76.0801 70.9249C75.3937 70.7377 75.1057 70.1017 74.9977 69.4465C74.9809 69.3601 75.1033 69.3433 75.1513 69.4009Z" fill="#263238"/>
<path d="M72.6887 64.4093C73.1721 64.9334 73.7588 65.3517 74.4118 65.638C75.0648 65.9242 75.7701 66.0722 76.4831 66.0725C77.1066 66.081 77.7281 66.0001 78.3287 65.8325C78.4461 65.8089 78.561 65.7744 78.6719 65.7293C78.7775 65.6981 78.8735 65.6669 78.9887 65.6213C79.0655 65.5921 79.1307 65.5385 79.1741 65.4687C79.2174 65.3989 79.2366 65.3167 79.2287 65.2349V65.2229C79.2194 65.1719 79.2049 65.1221 79.1855 65.0741V65.0621L79.1591 64.9301C78.9863 63.7757 78.5663 62.0501 78.5663 62.0501C79.0223 62.1869 81.3359 62.7701 81.2063 62.1773C80.0279 57.2549 78.7199 51.7829 76.5095 47.1341C76.4943 47.1037 76.4688 47.0798 76.4375 47.0667C76.4063 47.0536 76.3713 47.0521 76.3391 47.0626C76.3068 47.073 76.2794 47.0947 76.2618 47.1237C76.2441 47.1527 76.2375 47.187 76.2431 47.2205C77.1863 51.9941 78.9647 56.5805 79.9895 61.3517C79.2695 61.2149 78.0695 60.9293 77.4599 61.0493C77.3039 61.1237 78.3335 64.3757 78.3695 64.8893C78.371 64.9084 78.371 64.9277 78.3695 64.9469C76.4807 65.5349 74.9207 65.2085 72.8159 64.2437C72.6791 64.1861 72.5783 64.3061 72.6887 64.4093Z" fill="#263238"/>
<path d="M83.6429 40.1382C82.6829 38.235 81.6965 37.935 81.6965 37.935C81.6965 37.935 81.4013 35.5758 78.8813 32.8374C76.2413 29.9718 73.7741 29.871 73.7741 29.871C73.7741 29.871 72.3845 28.671 69.5765 28.0038C68.6388 27.7826 67.6828 27.6477 66.7205 27.6006C65.6357 27.543 62.4197 27.915 61.4789 28.443C60.3965 29.055 59.1029 28.611 57.9125 28.7454C56.8029 28.8676 55.7316 29.2225 54.7685 29.787C53.9555 30.2588 53.2257 30.8612 52.6085 31.5702C52.2504 32.0032 51.9201 32.4585 51.6197 32.9334C51.0965 33.7182 50.5421 34.0398 49.7381 34.3926C48.0197 35.1582 46.7045 36.6414 46.0493 38.631C45.6868 39.7943 45.5699 41.0202 45.7061 42.231C45.8453 43.743 44.3573 44.6574 43.9397 46.0302C43.8489 46.3239 43.7847 46.6251 43.7477 46.9302C43.6299 47.8896 43.7572 48.8633 44.1177 49.7602C44.4783 50.6571 45.0602 51.448 45.8093 52.059C44.0261 53.739 43.7069 56.9766 45.0893 59.3166C45.373 59.8006 45.7365 60.2331 46.1645 60.5958L46.2941 60.7014C46.5422 60.896 46.8072 61.0679 47.0861 61.215C47.9245 61.6329 48.8292 61.9018 49.7597 62.0094C50.0898 62.0541 50.4237 62.0629 50.7557 62.0358C50.8613 62.0358 50.9645 62.0358 51.0677 62.0358C51.2835 62.0284 51.4985 62.0052 51.7109 61.9662C52.0058 61.9112 52.2945 61.8268 52.5725 61.7142C53.3606 61.3934 54.059 60.8861 54.6077 60.2358C54.9821 59.8028 55.2917 59.3177 55.5269 58.7958C55.8783 58.011 56.0575 57.1601 56.0525 56.3003C56.0476 55.4405 55.8585 54.5917 55.4981 53.811V53.7606C55.4981 53.7606 59.7053 54.7878 61.5245 51.6966C62.6381 49.803 62.7653 47.3886 62.4845 45.087C67.2845 47.295 73.0445 43.7382 73.0925 37.9494C74.5325 39.1686 77.6717 40.635 79.2749 39.8934C80.6333 44.7822 83.2349 44.6934 84.2285 44.619C84.2516 44.6215 84.275 44.6215 84.2981 44.619C84.4085 44.5878 84.7421 42.3222 83.6429 40.1382ZM55.2917 57.927C55.024 58.6851 54.6024 59.3797 54.0533 59.967C53.9996 60.0299 53.9428 60.09 53.8829 60.147C53.9333 60.0798 53.9813 60.0126 54.0269 59.943C54.2609 59.6008 54.458 59.2347 54.6149 58.851C54.7405 58.5507 54.8447 58.2419 54.9269 57.927C55.2207 56.6693 55.3418 55.3774 55.2869 54.087C55.73 55.3284 55.7317 56.6845 55.2917 57.927ZM67.4597 44.727C69.9077 43.683 71.8181 41.3382 72.4853 38.2182C72.1373 41.8014 70.1117 43.8918 67.4597 44.727Z" fill="#263238"/>
<path d="M46.5169 52.3205C49.7017 55.0757 54.8233 54.9269 58.7569 52.4933C61.3369 50.8973 62.6785 47.2877 65.1193 44.1749C69.1369 39.0485 78.6385 37.8485 76.0945 29.9093C73.8313 22.8533 62.0593 22.0157 51.9169 27.9677C42.9601 33.2333 39.3601 46.1405 46.5169 52.3205Z" fill="white"/>
<path d="M75.7562 56.8799C75.7048 56.6856 75.6431 56.4941 75.5714 56.3063C75.5186 56.1671 75.4634 56.0279 75.401 55.8935C74.6683 54.2603 73.3415 52.9672 71.69 52.2768C70.0385 51.5863 68.1861 51.5502 66.509 52.1759C66.3482 52.2359 66.1922 52.3007 66.029 52.3727C65.0187 52.8372 64.1325 53.534 63.4426 54.4061C62.7528 55.2782 62.2788 56.301 62.0594 57.3911C61.9972 57.7 61.9555 58.0127 61.9346 58.3271C61.8614 59.4997 62.0825 60.6721 62.5778 61.7375C63.0731 62.8029 63.8268 63.7277 64.7705 64.4276C65.7141 65.1275 66.8178 65.5805 67.9811 65.7453C69.1444 65.9101 70.3304 65.7814 71.4314 65.3711C71.9434 65.1811 72.4309 64.9305 72.8834 64.6247C72.9794 64.5623 73.073 64.4951 73.1666 64.4255C74.3089 63.5757 75.1675 62.4003 75.6296 61.0536C76.0918 59.707 76.1359 58.2521 75.7562 56.8799ZM71.1098 64.4855C69.9793 64.908 68.7489 64.9857 67.5743 64.7088C66.3996 64.4319 65.3335 63.8129 64.5107 62.9299C63.688 62.047 63.1455 60.9399 62.9521 59.7487C62.7587 58.5574 62.9229 57.3356 63.424 56.2377C63.925 55.1398 64.7405 54.2152 65.7672 53.5808C66.7939 52.9464 67.9856 52.6308 69.1917 52.6739C70.3978 52.7169 71.564 53.1167 72.5428 53.8227C73.5216 54.5287 74.2691 55.5091 74.6906 56.6399C75.2512 58.1544 75.1892 59.8293 74.5182 61.2982C73.8471 62.7672 72.6216 63.9106 71.1098 64.4783V64.4855Z" fill="#6A83AD"/>
<path d="M89.4622 53.9618C89.1004 52.2431 88.209 50.6811 86.9134 49.4954C86.3217 48.9627 85.6204 48.5662 84.859 48.3338C84.1835 48.1331 83.4676 48.11 82.7806 48.2666C81.3862 48.5858 80.2534 49.6178 79.5934 51.1706C79.2441 52.009 79.0474 52.903 79.0126 53.8106C78.9958 54.1224 78.9958 54.4348 79.0126 54.7466C79.0347 55.1088 79.078 55.4694 79.1422 55.8266C79.1686 55.985 79.2022 56.1458 79.2382 56.3066C79.4738 57.3544 79.8948 58.3517 80.4814 59.2514C81.7342 61.1498 83.6014 62.2778 85.4662 62.0762C85.6194 62.0588 85.7717 62.0331 85.9222 61.9994C86.3754 61.8945 86.8068 61.7109 87.1966 61.457C89.1958 60.1706 90.1894 57.1202 89.4622 53.9618ZM87.1198 60.3578C86.7228 60.7097 86.2444 60.9572 85.7278 61.0778C83.407 61.6106 80.9278 59.369 80.1718 56.0906C80.0837 55.7016 80.0219 55.3071 79.987 54.9098C79.975 54.7898 79.9678 54.6698 79.963 54.5474C79.963 54.3458 79.963 54.1466 79.963 53.9474C79.9839 53.1229 80.1563 52.3094 80.4718 51.5474C80.5222 51.4274 80.5774 51.3074 80.6374 51.1994C81.187 50.1266 82.0174 49.4186 83.0062 49.193C83.1219 49.167 83.2388 49.1469 83.3566 49.133C83.9791 49.0734 84.606 49.1863 85.1686 49.4594C85.5823 49.6544 85.9662 49.9074 86.3086 50.2106C87.4545 51.2667 88.2416 52.6546 88.5598 54.1802C89.1262 56.7122 88.4974 59.1458 87.1198 60.3578Z" fill="#6A83AD"/>
<path d="M75.5237 57.1467L74.7725 56.5779C75.6149 55.4643 77.7533 53.7387 79.8389 55.1379L79.3133 55.9203C77.4437 54.6627 75.6005 57.0459 75.5237 57.1467Z" fill="#6A83AD"/>
<path d="M45.5213 62.2108L44.6621 61.8244C44.8445 61.4236 46.4909 57.9028 48.5717 57.4492C50.5181 57.034 61.7717 57.3676 62.3189 57.3916L62.2805 58.3324C58.6493 58.1788 50.2805 58.0444 48.7709 58.3708C47.3981 58.6684 45.9581 61.2436 45.5213 62.2108Z" fill="#6A83AD"/>
<path d="M55.298 61.0823C55.298 61.0823 49.5548 54.2471 46.418 56.3591C43.2812 58.4711 48.0404 68.6927 52.0508 69.7991C56.0612 70.9055 57.1436 67.1999 57.1436 67.1999L55.298 61.0823Z" fill="#AD6359"/>
<path d="M47.8516 59.2559C47.8376 59.2559 47.8242 59.2614 47.8143 59.2713C47.8044 59.2812 47.7988 59.2947 47.7988 59.3087C47.7988 59.3227 47.8044 59.3361 47.8143 59.346C47.8242 59.3559 47.8376 59.3615 47.8516 59.3615C50.6716 60.2207 52.3276 62.6183 53.5636 65.1455C52.666 64.2095 51.514 63.7559 50.2492 64.8383C50.1844 64.8959 50.2612 65.0015 50.3356 64.9775C51.43 64.6415 52.2556 64.7639 53.0836 65.5895C53.674 66.1751 54.1084 66.9407 54.5548 67.6367C54.7036 67.8767 55.1332 67.6991 55.0156 67.4279L54.9868 67.3679C54.7348 63.8903 51.6004 59.2799 47.8516 59.2559Z" fill="#263238"/>
<path d="M63.091 27.3436V29.6884C63.091 29.807 63.044 29.9208 62.9604 30.0049C62.8767 30.089 62.7632 30.1366 62.6446 30.1372C62.5763 30.1362 62.5091 30.1202 62.4477 30.0904C62.3864 30.0605 62.3323 30.0175 62.2894 29.9644C62.1677 29.8145 62.0026 29.7061 61.8167 29.6539C61.6308 29.6018 61.4333 29.6086 61.2515 29.6733C61.0696 29.7381 60.9123 29.8576 60.8012 30.0155C60.69 30.1733 60.6306 30.3618 60.631 30.5548C60.6301 30.7481 60.6892 30.9368 60.8001 31.0951C60.911 31.2533 61.0683 31.3733 61.2503 31.4383C61.4323 31.5034 61.63 31.5103 61.8161 31.4583C62.0022 31.4062 62.1676 31.2977 62.2894 31.1476C62.332 31.0942 62.386 31.0509 62.4474 31.021C62.5089 30.9911 62.5762 30.9753 62.6446 30.9748C62.763 30.9748 62.8765 31.0219 62.9602 31.1056C63.0439 31.1893 63.091 31.3028 63.091 31.4212V33.766H60.7462C60.6276 33.7667 60.514 33.8142 60.4304 33.8983C60.3467 33.9824 60.2998 34.0962 60.2998 34.2148C60.3026 34.2821 60.3201 34.348 60.3512 34.4077C60.3823 34.4674 60.4262 34.5196 60.4798 34.5604C60.6284 34.6826 60.7357 34.8477 60.7869 35.0332C60.8381 35.2186 60.8308 35.4154 60.7659 35.5965C60.701 35.7776 60.5817 35.9343 60.4244 36.0451C60.2671 36.1558 60.0794 36.2153 59.887 36.2153C59.6946 36.2153 59.5069 36.1558 59.3495 36.0451C59.1922 35.9343 59.073 35.7776 59.0081 35.5965C58.9432 35.4154 58.9358 35.2186 58.9871 35.0332C59.0383 34.8477 59.1455 34.6826 59.2942 34.5604C59.348 34.518 59.3916 34.464 59.4219 34.4026C59.4522 34.3412 59.4684 34.2737 59.4694 34.2052C59.4694 34.0862 59.4221 33.972 59.3379 33.8879C59.2538 33.8037 59.1396 33.7564 59.0206 33.7564H56.6758V31.4116C56.6764 31.293 56.724 31.1795 56.8081 31.0958C56.8922 31.0122 57.006 30.9652 57.1246 30.9652C57.1926 30.9657 57.2596 30.9815 57.3207 31.0114C57.3817 31.0414 57.4353 31.0846 57.4774 31.138C57.5995 31.2877 57.7649 31.396 57.951 31.4479C58.1371 31.4999 58.3347 31.493 58.5167 31.4282C58.6987 31.3634 58.8562 31.2438 58.9676 31.086C59.0789 30.9281 59.1387 30.7396 59.1387 30.5464C59.1387 30.3532 59.0789 30.1648 58.9676 30.0069C58.8562 29.849 58.6987 29.7295 58.5167 29.6647C58.3347 29.5998 58.1371 29.5929 57.951 29.6449C57.7649 29.6968 57.5995 29.8051 57.4774 29.9548C57.4349 30.0078 57.3813 30.0508 57.3203 30.0807C57.2593 30.1106 57.1925 30.1266 57.1246 30.1276C57.0056 30.1276 56.8914 30.0803 56.8072 29.9962C56.7231 29.912 56.6758 29.7979 56.6758 29.6788V27.334H59.0206C59.1396 27.334 59.2538 27.2867 59.3379 27.2026C59.4221 27.1184 59.4694 27.0042 59.4694 26.8852C59.4681 26.8171 59.4517 26.7502 59.4214 26.6892C59.3911 26.6282 59.3476 26.5746 59.2942 26.5324C59.1448 26.4101 59.0368 26.2447 58.9851 26.0586C58.9335 25.8726 58.9406 25.6752 59.0055 25.4933C59.0704 25.3115 59.19 25.1542 59.3478 25.043C59.5056 24.9318 59.6939 24.8721 59.887 24.8721C60.08 24.8721 60.2684 24.9318 60.4262 25.043C60.584 25.1542 60.7036 25.3115 60.7685 25.4933C60.8334 25.6752 60.8405 25.8726 60.7888 26.0586C60.7371 26.2447 60.6292 26.4101 60.4798 26.5324C60.4266 26.5747 60.3836 26.6284 60.3537 26.6894C60.3238 26.7504 60.3078 26.8173 60.307 26.8852C60.3067 26.944 60.318 27.0024 60.3403 27.0568C60.3626 27.1112 60.3954 27.1607 60.4369 27.2024C60.4784 27.2441 60.5277 27.2772 60.582 27.2998C60.6363 27.3224 60.6946 27.334 60.7534 27.334L63.091 27.3436Z" fill="#263238"/>
<path d="M63.0914 27.3431H60.7466C60.628 27.3425 60.5144 27.2949 60.4308 27.2108C60.3471 27.1267 60.3002 27.0129 60.3002 26.8943C60.3005 26.8263 60.3163 26.7592 60.3462 26.6981C60.3761 26.637 60.4194 26.5835 60.473 26.5415C60.6216 26.4194 60.7289 26.2543 60.7801 26.0688C60.8313 25.8833 60.824 25.6866 60.7591 25.5054C60.6942 25.3243 60.5749 25.1676 60.4176 25.0569C60.2603 24.9461 60.0726 24.8867 59.8802 24.8867C59.6878 24.8867 59.5001 24.9461 59.3428 25.0569C59.1854 25.1676 59.0662 25.3243 59.0013 25.5054C58.9364 25.6866 58.9291 25.8833 58.9803 26.0688C59.0315 26.2543 59.1387 26.4194 59.2874 26.5415C59.3412 26.5834 59.3849 26.6368 59.4153 26.6979C59.4456 26.759 59.4618 26.8261 59.4626 26.8943C59.4626 26.9533 59.451 27.0116 59.4284 27.0661C59.4059 27.1205 59.3728 27.17 59.3311 27.2117C59.2895 27.2534 59.24 27.2864 59.1855 27.309C59.1311 27.3315 59.0727 27.3431 59.0138 27.3431H56.669V24.9983C56.669 24.8793 56.6217 24.7651 56.5375 24.681C56.4534 24.5968 56.3392 24.5495 56.2202 24.5495C56.1522 24.5504 56.0854 24.5663 56.0243 24.5962C55.9633 24.6261 55.9097 24.6692 55.8674 24.7223C55.7453 24.872 55.5798 24.9803 55.3937 25.0323C55.2077 25.0842 55.0101 25.0773 54.8281 25.0125C54.6461 24.9477 54.4886 24.8281 54.3772 24.6703C54.2658 24.5124 54.2061 24.3239 54.2061 24.1307C54.2061 23.9375 54.2658 23.7491 54.3772 23.5912C54.4886 23.4333 54.6461 23.3138 54.8281 23.249C55.0101 23.1842 55.2077 23.1773 55.3937 23.2292C55.5798 23.2812 55.7453 23.3894 55.8674 23.5391C55.9094 23.5927 55.9629 23.636 56.024 23.6659C56.0851 23.6959 56.1522 23.7116 56.2202 23.7119C56.3388 23.7119 56.4526 23.665 56.5367 23.5813C56.6208 23.4977 56.6684 23.3841 56.669 23.2655V20.9183H59.0138C59.1316 20.9183 59.2447 20.9646 59.3286 21.0472C59.4126 21.1298 59.4607 21.2422 59.4626 21.3599C59.4616 21.4284 59.4454 21.4959 59.4151 21.5573C59.3848 21.6188 59.3412 21.6727 59.2874 21.7151C59.138 21.8374 59.03 22.0029 58.9783 22.1889C58.9267 22.3749 58.9338 22.5724 58.9987 22.7542C59.0636 22.936 59.1832 23.0933 59.341 23.2046C59.4988 23.3158 59.6871 23.3755 59.8802 23.3755C60.0733 23.3755 60.2616 23.3158 60.4194 23.2046C60.5772 23.0933 60.6968 22.936 60.7617 22.7542C60.8266 22.5724 60.8337 22.3749 60.782 22.1889C60.7303 22.0029 60.6224 21.8374 60.473 21.7151C60.4195 21.6726 60.3763 21.6186 60.3464 21.5571C60.3165 21.4956 60.3007 21.4283 60.3002 21.3599C60.3002 21.2413 60.3471 21.1275 60.4308 21.0434C60.5144 20.9593 60.628 20.9118 60.7466 20.9111H63.0914V23.2583C63.092 23.3769 63.1396 23.4905 63.2237 23.5741C63.3078 23.6578 63.4216 23.7047 63.5402 23.7047C63.6082 23.7044 63.6753 23.6887 63.7364 23.6587C63.7975 23.6288 63.851 23.5855 63.893 23.5319C64.0151 23.3822 64.1805 23.274 64.3666 23.222C64.5527 23.1701 64.7503 23.177 64.9323 23.2418C65.1143 23.3066 65.2718 23.4261 65.3832 23.584C65.4945 23.7419 65.5543 23.9303 65.5543 24.1235C65.5543 24.3167 65.4945 24.5052 65.3832 24.6631C65.2718 24.8209 65.1143 24.9405 64.9323 25.0053C64.7503 25.0701 64.5527 25.077 64.3666 25.0251C64.1805 24.9731 64.0151 24.8648 63.893 24.7151C63.8507 24.662 63.7971 24.6189 63.736 24.589C63.675 24.5591 63.6081 24.5432 63.5402 24.5423C63.4212 24.5423 63.307 24.5896 63.2228 24.6738C63.1387 24.7579 63.0914 24.8721 63.0914 24.9911V27.3431Z" fill="white"/>
<path d="M37.4639 38.6689H39.8087C39.9277 38.6689 40.0419 38.7162 40.1261 38.8004C40.2102 38.8846 40.2575 38.9987 40.2575 39.1177C40.2565 39.186 40.2405 39.2532 40.2106 39.3146C40.1808 39.376 40.1378 39.43 40.0847 39.4729C39.9348 39.5946 39.8264 39.7598 39.7742 39.9457C39.7221 40.1315 39.7289 40.329 39.7936 40.5109C39.8584 40.6927 39.9779 40.8501 40.1358 40.9612C40.2936 41.0723 40.4821 41.1318 40.6751 41.1313C40.8684 41.1323 41.0571 41.0732 41.2154 40.9622C41.3736 40.8513 41.4936 40.694 41.5586 40.512C41.6237 40.33 41.6306 40.1323 41.5786 39.9462C41.5265 39.7601 41.418 39.5948 41.2679 39.4729C41.2145 39.4304 41.1712 39.3764 41.1413 39.3149C41.1114 39.2535 41.0956 39.1861 41.0951 39.1177C41.0951 38.9991 41.1421 38.8853 41.2257 38.8012C41.3094 38.7171 41.4229 38.6696 41.5415 38.6689H43.8887V41.0161C43.8887 41.1345 43.9357 41.2481 44.0195 41.3318C44.1032 41.4155 44.2167 41.4625 44.3351 41.4625C44.4035 41.462 44.4708 41.4463 44.5323 41.4164C44.5937 41.3865 44.6477 41.3432 44.6903 41.2897C44.8124 41.14 44.9779 41.0318 45.164 40.9798C45.35 40.9279 45.5476 40.9348 45.7296 40.9996C45.9116 41.0644 46.0691 41.1839 46.1805 41.3418C46.2919 41.4997 46.3516 41.6881 46.3516 41.8813C46.3516 42.0745 46.2919 42.263 46.1805 42.4209C46.0691 42.5788 45.9116 42.6983 45.7296 42.7631C45.5476 42.8279 45.35 42.8348 45.164 42.7829C44.9779 42.7309 44.8124 42.6227 44.6903 42.4729C44.6474 42.4199 44.5933 42.3769 44.5319 42.347C44.4706 42.3171 44.4034 42.3012 44.3351 42.3001C44.2165 42.3008 44.103 42.3483 44.0193 42.4324C43.9357 42.5165 43.8887 42.6303 43.8887 42.7489V45.0937H41.5415C41.4229 45.0931 41.3094 45.0455 41.2257 44.9614C41.1421 44.8774 41.0951 44.7636 41.0951 44.6449C41.0955 44.5769 41.1112 44.5098 41.1411 44.4488C41.171 44.3877 41.2144 44.3341 41.2679 44.2921C41.4176 44.17 41.5259 44.0046 41.5778 43.8185C41.6298 43.6324 41.6229 43.4348 41.5581 43.2528C41.4933 43.0708 41.3737 42.9133 41.2159 42.802C41.058 42.6906 40.8695 42.6308 40.6763 42.6308C40.4831 42.6308 40.2947 42.6906 40.1368 42.802C39.9789 42.9133 39.8594 43.0708 39.7946 43.2528C39.7297 43.4348 39.7228 43.6324 39.7748 43.8185C39.8267 44.0046 39.935 44.17 40.0847 44.2921C40.1379 44.3345 40.1809 44.3881 40.2108 44.4491C40.2407 44.5101 40.2567 44.577 40.2575 44.6449C40.2575 44.764 40.2102 44.8781 40.1261 44.9623C40.0419 45.0465 39.9277 45.0937 39.8087 45.0937H37.4639V42.7489C37.4639 42.6299 37.4166 42.5158 37.3325 42.4316C37.2483 42.3474 37.1341 42.3001 37.0151 42.3001C36.9473 42.3015 36.8805 42.3177 36.8196 42.3475C36.7587 42.3774 36.705 42.4202 36.6623 42.4729C36.5406 42.6228 36.3755 42.7313 36.1896 42.7834C36.0037 42.8355 35.8063 42.8288 35.6244 42.764C35.4425 42.6993 35.2852 42.5797 35.1741 42.4219C35.063 42.264 35.0035 42.0756 35.0039 41.8825C35.003 41.6893 35.0621 41.5005 35.173 41.3423C35.284 41.184 35.4413 41.0641 35.6233 40.9991C35.8052 40.934 36.0029 40.927 36.189 40.9791C36.3751 41.0312 36.5405 41.1397 36.6623 41.2897C36.7046 41.3429 36.7582 41.386 36.8193 41.4159C36.8803 41.4457 36.9472 41.4617 37.0151 41.4625C37.0739 41.4629 37.1322 41.4515 37.1867 41.4293C37.2411 41.407 37.2906 41.3741 37.3323 41.3327C37.374 41.2912 37.4071 41.2418 37.4297 41.1875C37.4523 41.1332 37.4639 41.075 37.4639 41.0161V38.6689Z" fill="white"/>
<path d="M8.81055 108.842C41.6065 108.696 78.3938 108.696 111.19 108.842C78.3938 108.991 41.6065 108.991 8.81055 108.842Z" fill="#263238"/>
<path d="M54.7321 28.6149C57.1129 33.0549 55.0008 35.6469 55.3224 37.0485C55.5799 37.8924 55.8852 38.7209 56.2369 39.5301L51.9481 42.5205C51.3125 41.9088 50.6409 41.3358 49.9369 40.8045C48.7369 40.0149 45.5713 41.0997 42.2329 37.3293C40.0369 34.8525 39.0961 29.1813 43.6345 26.0181C48.1729 22.8549 53.1649 25.7013 54.7321 28.6149Z" fill="#6A83AD"/>
<path d="M47.2687 36.0478L47.1475 36.1709L53.1736 42.1052L53.2949 41.9821L47.2687 36.0478Z" fill="white"/>
<path d="M51.9427 32.8254L51.7852 32.8965L55.2642 40.6054L55.4217 40.5343L51.9427 32.8254Z" fill="white"/>
<path d="M51.1033 36.7322C50.6473 37.049 49.9729 36.8018 49.6105 36.6266L49.5313 36.5882C49.532 36.6795 49.5126 36.7698 49.4745 36.8528C49.4363 36.9357 49.3803 37.0093 49.3105 37.0682C48.6841 37.505 47.5177 36.3746 47.4697 36.3266L47.5297 36.2642C47.5417 36.2642 48.6937 37.3946 49.2625 36.9986C49.3248 36.9421 49.3739 36.8726 49.4063 36.7951C49.4386 36.7175 49.4535 36.6337 49.4497 36.5498C48.994 36.3084 48.5961 35.971 48.2833 35.561C48.0289 35.1986 48.0169 34.9082 48.2521 34.7426C48.3199 34.6907 48.4009 34.6591 48.4859 34.6515C48.5708 34.6439 48.6562 34.6604 48.7321 34.6994C49.1521 34.8962 49.4905 35.681 49.5409 36.2906C49.5456 36.3601 49.5456 36.4298 49.5409 36.4994C50.0977 36.7922 50.6929 36.9218 51.0553 36.6674C51.3289 36.4754 51.4537 36.0722 51.4081 35.5298C51.4081 35.4794 51.4081 35.429 51.3913 35.3762C50.9003 35.2408 50.4744 34.9332 50.1913 34.5098C49.8673 34.0442 49.8385 33.6362 50.1145 33.4442C50.1672 33.4078 50.2288 33.3866 50.2927 33.3828C50.3566 33.379 50.4203 33.3927 50.4769 33.4226C50.8945 33.6194 51.3361 34.481 51.4633 35.3066C51.5646 35.3259 51.6686 35.325 51.7695 35.304C51.8704 35.283 51.9662 35.2423 52.0513 35.1842C52.5313 34.8434 52.0009 33.2858 51.9937 33.2642L52.0753 33.2354C52.0993 33.3026 52.6417 34.8698 52.1017 35.2466C51.918 35.3705 51.6942 35.4203 51.4753 35.3858L51.4897 35.5154C51.5233 35.921 51.4897 36.4634 51.1009 36.7298L51.1033 36.7322ZM50.1601 33.509C49.8817 33.7034 50.0281 34.1258 50.2585 34.4546C50.5253 34.8471 50.9156 35.1393 51.3673 35.285C51.2401 34.5026 50.8201 33.677 50.4361 33.497C50.3939 33.4722 50.3453 33.4601 50.2964 33.4622C50.2474 33.4644 50.2001 33.4806 50.1601 33.509ZM48.3025 34.8002C48.0457 34.9778 48.2233 35.3138 48.3529 35.4986C48.6492 35.8859 49.0237 36.2065 49.4521 36.4394C49.4521 36.3914 49.4521 36.3386 49.4521 36.2834C49.4017 35.7098 49.0777 34.9442 48.6913 34.7642C48.6299 34.7321 48.5606 34.7185 48.4916 34.7249C48.4227 34.7312 48.357 34.7574 48.3025 34.8002Z" fill="white"/>
<path d="M56.6126 38.9929L51.3223 42.6807L52.0428 43.7143L57.3331 40.0265L56.6126 38.9929Z" fill="#DBDBDB"/>
<path d="M57.4475 40.1979L52.1572 43.8857L52.8778 44.9194L58.1681 41.2316L57.4475 40.1979Z" fill="#DBDBDB"/>
<path d="M58.1845 41.4922L52.8965 45.168L53.6147 46.2012L58.9027 42.5254L58.1845 41.4922Z" fill="#DBDBDB"/>
<path d="M42.3598 35.2794C40.9822 33.1194 40.867 29.7714 42.955 28.0146C41.515 30.1914 41.7094 32.865 42.3598 35.2794Z" fill="white"/>
<path d="M66.0842 40.1808C66.177 39.7966 66.1949 39.3981 66.137 39.0072L66.857 38.6976L66.521 37.6992L65.741 37.8984C65.5409 37.5518 65.2732 37.2491 64.9538 37.008L65.2418 36.288L64.2962 35.808L63.905 36.4704C63.507 36.3595 63.0907 36.3302 62.681 36.384L62.4002 35.7432L61.4042 36.0792L61.5818 36.7776C61.2071 36.986 60.8801 37.2705 60.6218 37.6128L60.0002 37.3608L59.5346 38.304L60.1202 38.6544C60.0091 39.0748 59.987 39.5137 60.0554 39.9432L59.4482 40.2024L59.7818 41.1984L60.4538 41.028C60.6729 41.3993 60.9682 41.72 61.3202 41.9688L61.0634 42.6024L62.009 43.068L62.3786 42.4464C62.7856 42.5421 63.2077 42.5543 63.6194 42.4824L63.9026 43.1544L64.901 42.8184L64.7114 42.0696C65.0538 41.8552 65.3513 41.5765 65.5874 41.2488L66.3074 41.5368L66.773 40.596L66.0842 40.1808ZM62.8538 41.5776C62.4299 41.5188 62.033 41.3353 61.7134 41.0505C61.3939 40.7658 61.1662 40.3925 61.0592 39.978C60.9522 39.5636 60.9707 39.1268 61.1124 38.7229C61.2542 38.319 61.5127 37.9663 61.8552 37.7096C62.1977 37.4529 62.6087 37.3038 63.0361 37.2811C63.4635 37.2584 63.888 37.3632 64.2558 37.5822C64.6235 37.8012 64.9179 38.1245 65.1016 38.5111C65.2853 38.8977 65.35 39.3301 65.2874 39.7536C65.2042 40.317 64.9018 40.8249 64.4461 41.1665C63.9903 41.5081 63.418 41.6558 62.8538 41.5776Z" fill="#DBDBDB"/>
<path d="M64.5193 40.653L64.1233 40.953L63.3865 39.993L63.1201 39.6282C63.1756 39.6066 63.2274 39.5767 63.2737 39.5394C63.3645 39.4716 63.435 39.3803 63.4777 39.2754L63.7633 39.6522L64.5193 40.653Z" fill="#DBDBDB"/>
<path d="M63.7373 38.3656C63.6113 38.2023 63.4413 38.0784 63.2473 38.0085C63.0533 37.9385 62.8433 37.9255 62.6421 37.9709C62.4409 38.0162 62.2568 38.1182 62.1116 38.2646C61.9664 38.4111 61.8661 38.596 61.8224 38.7976C61.7787 38.9992 61.7936 39.209 61.8651 39.4024C61.9367 39.5959 62.0621 39.7648 62.2265 39.8894C62.3909 40.014 62.5874 40.089 62.793 40.1056C62.9986 40.1222 63.2046 40.0798 63.3869 39.9832C63.5355 39.9031 63.6636 39.7897 63.7613 39.652C63.8958 39.4634 63.9661 39.2365 63.9618 39.0049C63.9574 38.7732 63.8788 38.5491 63.7373 38.3656ZM63.2717 39.5392C63.2254 39.5765 63.1735 39.6065 63.1181 39.628C62.9792 39.6836 62.8253 39.6894 62.6826 39.6444C62.5399 39.5995 62.4172 39.5065 62.3352 39.3813C62.2533 39.2561 62.2172 39.1065 62.233 38.9577C62.2489 38.8089 62.3158 38.6702 62.4223 38.5651C62.5288 38.46 62.6684 38.3951 62.8174 38.3812C62.9663 38.3673 63.1155 38.4055 63.2396 38.4891C63.3637 38.5727 63.455 38.6967 63.498 38.84C63.541 38.9833 63.5332 39.1371 63.4757 39.2752C63.433 39.3802 63.3625 39.4715 63.2717 39.5392Z" fill="#DBDBDB"/>
<path d="M48.1828 46.8932C48.3511 46.6792 48.4766 46.4347 48.5524 46.1732L49.102 46.1852L49.174 45.4532L48.6244 45.3572C48.5967 45.0801 48.5152 44.8111 48.3844 44.5652L48.7708 44.198L48.3052 43.6292L47.8612 43.9196C47.6403 43.7358 47.3849 43.5979 47.11 43.514V43.0124L46.39 42.9404L46.3012 43.4348C46.0047 43.4601 45.7168 43.5476 45.4564 43.6916L45.13 43.3508L44.5636 43.8164L44.8348 44.2076C44.6442 44.4427 44.5044 44.7149 44.4244 45.0068H43.9636L43.8916 45.7268L44.3716 45.8108C44.4028 46.1099 44.4977 46.3988 44.65 46.658L44.3068 46.9844L44.7724 47.5532L45.1852 47.2652C45.4164 47.4425 45.6808 47.5715 45.9628 47.6444L45.9508 48.1508L46.6708 48.2252L46.7644 47.6948C47.0434 47.6577 47.3124 47.5664 47.5564 47.426L47.9308 47.8148L48.4948 47.3492L48.1828 46.8932ZM45.73 46.8524C45.4803 46.6932 45.2835 46.4635 45.1644 46.1923C45.0452 45.9212 45.0091 45.6209 45.0607 45.3293C45.1122 45.0377 45.249 44.7679 45.4539 44.554C45.6587 44.3401 45.9223 44.1918 46.2114 44.1277C46.5006 44.0637 46.8022 44.0867 47.0782 44.1941C47.3542 44.3014 47.5922 44.4881 47.7621 44.7307C47.932 44.9733 48.0261 45.2607 48.0327 45.5568C48.0392 45.8529 47.9578 46.1442 47.7988 46.394C47.585 46.7288 47.247 46.9651 46.8592 47.051C46.4713 47.137 46.0652 47.0655 45.73 46.8524Z" fill="#DBDBDB"/>
<path d="M59.1123 50.1956C59.3694 50.0969 59.6049 49.9494 59.8059 49.7612L60.2715 50.054L60.7203 49.4636L60.2979 49.0964C60.416 48.8441 60.4829 48.5708 60.4947 48.2924L61.0155 48.1772L60.9099 47.4572L60.3747 47.4956C60.2805 47.2237 60.1319 46.9738 59.9379 46.7612L60.2043 46.3364L59.6187 45.8996L59.2803 46.2692C59.0125 46.1398 58.7208 46.067 58.4235 46.0556L58.3203 45.5996L57.6003 45.7052L57.6315 46.1852C57.346 46.2894 57.0858 46.453 56.8683 46.6652L56.4795 46.4252L56.0403 47.0132L56.4051 47.33C56.2788 47.6024 56.2117 47.8985 56.2083 48.1988L55.7451 48.302L55.8531 49.022L56.3547 48.986C56.4645 49.2559 56.6278 49.5008 56.8347 49.706L56.5635 50.1356L57.1515 50.5748L57.5043 50.1692C57.7623 50.2801 58.0395 50.3396 58.3203 50.3444L58.4403 50.87L59.1603 50.7644L59.1123 50.1956ZM57.0315 48.8996C56.8985 48.6343 56.8472 48.3355 56.884 48.0411C56.9209 47.7466 57.0442 47.4697 57.2385 47.2453C57.4328 47.021 57.6893 46.8593 57.9754 46.7808C58.2616 46.7023 58.5647 46.7104 58.8462 46.8041C59.1278 46.8979 59.3753 47.073 59.5572 47.3074C59.7392 47.5418 59.8476 47.825 59.8686 48.121C59.8897 48.417 59.8224 48.7126 59.6754 48.9704C59.5284 49.2282 59.3082 49.4366 59.0427 49.5692C58.8667 49.6575 58.6751 49.7102 58.4787 49.7243C58.2823 49.7384 58.0851 49.7136 57.8983 49.6514C57.7115 49.5893 57.5388 49.4908 57.39 49.3618C57.2413 49.2328 57.1195 49.0758 57.0315 48.8996Z" fill="#6A83AD"/>
<path d="M54.8193 49.6796C54.7822 49.2859 54.6698 48.9029 54.4881 48.5516L55.0761 48.0236L54.4329 47.1884L53.7609 47.6276C53.458 47.3662 53.1065 47.1672 52.7265 47.042L52.7697 46.2765L51.7233 46.1396L51.5673 46.8932C51.1552 46.9186 50.7522 47.0254 50.3817 47.2076L49.9017 46.6724L49.0689 47.3132L49.4625 47.9156C49.1791 48.235 48.9642 48.6091 48.8313 49.0148L48.1569 48.9812L48.0225 50.0228L48.6897 50.1644C48.7191 50.5977 48.8402 51.0198 49.0449 51.4028L48.5505 51.8396L49.1913 52.6748L49.7697 52.2956C50.0978 52.5758 50.4814 52.7835 50.8953 52.9052L50.8569 53.5868L51.9033 53.7237L52.0521 53.0037C52.4675 52.9639 52.8703 52.8389 53.2353 52.6365L53.7153 53.1788L54.5529 52.538L54.1281 51.8901C54.3849 51.5785 54.5767 51.2186 54.6921 50.8316L55.4649 50.8724L55.5993 49.8308L54.8193 49.6796ZM52.2153 52.0484C51.7952 52.1302 51.3603 52.0852 50.9658 51.9194C50.5712 51.7535 50.2349 51.4742 49.9994 51.1169C49.7639 50.7595 49.6398 50.3403 49.6429 49.9123C49.6461 49.4844 49.7763 49.067 50.017 48.7132C50.2577 48.3593 50.5981 48.085 50.9951 47.9249C51.392 47.7649 51.8275 47.7263 52.2463 47.8142C52.6652 47.9021 53.0485 48.1124 53.3476 48.4184C53.6467 48.7245 53.8482 49.1125 53.9265 49.5332C54.0279 50.092 53.9051 50.6682 53.5849 51.1371C53.2646 51.606 52.7726 51.93 52.2153 52.0388V52.0484Z" fill="#37474F"/>
<g opacity="0.6">
<path d="M52.8361 49.2281C52.8361 49.3169 52.8098 49.4036 52.7604 49.4774C52.7111 49.5512 52.641 49.6088 52.559 49.6427C52.477 49.6767 52.3868 49.6856 52.2997 49.6683C52.2127 49.651 52.1327 49.6082 52.0699 49.5454C52.0072 49.4827 51.9644 49.4027 51.9471 49.3157C51.9298 49.2286 51.9387 49.1384 51.9726 49.0564C52.0066 48.9743 52.0641 48.9042 52.1379 48.8549C52.2117 48.8056 52.2985 48.7793 52.3873 48.7793C52.5063 48.7793 52.6205 48.8266 52.7046 48.9107C52.7888 48.9949 52.8361 49.1091 52.8361 49.2281Z" fill="#455A64"/>
<path d="M53.1627 50.4668V50.6396H51.6123V50.4764C51.6123 50.2708 51.694 50.0736 51.8394 49.9282C51.9847 49.7828 52.1819 49.7012 52.3875 49.7012C52.5931 49.7012 52.7903 49.7828 52.9357 49.9282C53.081 50.0736 53.1627 50.2708 53.1627 50.4764V50.4668Z" fill="#455A64"/>
</g>
<path d="M51.6867 49.4996C51.6867 49.5883 51.6603 49.6751 51.611 49.7489C51.5617 49.8227 51.4916 49.8803 51.4096 49.9142C51.3276 49.9482 51.2374 49.9571 51.1503 49.9398C51.0632 49.9224 50.9833 49.8797 50.9205 49.8169C50.8577 49.7542 50.815 49.6742 50.7977 49.5871C50.7804 49.5001 50.7893 49.4098 50.8232 49.3278C50.8572 49.2458 50.9147 49.1757 50.9885 49.1264C51.0623 49.0771 51.1491 49.0508 51.2379 49.0508C51.3569 49.0508 51.471 49.0981 51.5552 49.1822C51.6394 49.2664 51.6867 49.3806 51.6867 49.4996Z" fill="#37474F"/>
<path d="M52.0128 50.7383V50.9015H50.46V50.7383C50.471 50.5399 50.5576 50.3532 50.702 50.2166C50.8464 50.08 51.0376 50.0039 51.2364 50.0039C51.4351 50.0039 51.6263 50.08 51.7707 50.2166C51.9151 50.3532 52.0017 50.5399 52.0128 50.7383Z" fill="#37474F"/>
<path d="M75.7419 33.0069L75.8595 32.1093L74.8083 31.8693C74.8145 31.3824 74.749 30.8972 74.6139 30.4293L75.5571 29.9205L75.2115 29.0829L74.1795 29.3997C73.9419 28.972 73.6409 28.5828 73.2867 28.2453L73.8531 27.3309L73.1331 26.7813L72.3939 27.5685C71.9766 27.3155 71.5223 27.1292 71.0475 27.0165L71.0787 25.9389L70.1811 25.8213L69.9411 26.8725C69.454 26.8661 68.9687 26.9324 68.5011 27.0693L67.9923 26.1237L67.1571 26.4693L67.4691 27.5013C67.0431 27.7403 66.6549 28.0412 66.3171 28.3941L65.4027 27.8301L64.8507 28.5501L65.6403 29.2845C65.388 29.703 65.2019 30.158 65.0883 30.6333L64.0131 30.6045L63.8955 31.4997L64.9467 31.7397C64.9397 32.2267 65.0052 32.712 65.1411 33.1797L64.1931 33.6885L64.5435 34.5237L65.5755 34.2117C65.8136 34.637 66.1128 35.0251 66.4635 35.3637L65.9019 36.2757L66.6219 36.8277L67.3539 36.0405C67.7743 36.2925 68.2308 36.4787 68.7075 36.5925L68.6739 37.6653L69.5691 37.7829L69.8091 36.7341C70.2961 36.7393 70.7813 36.673 71.2491 36.5373L71.7579 37.4829L72.5955 37.1349L72.2787 36.1029C72.7069 35.8661 73.0962 35.565 73.4331 35.2101L74.3475 35.7789L74.8947 35.0589L74.1147 34.3197C74.3652 33.8994 74.5513 33.444 74.6667 32.9685L75.7419 33.0069ZM69.8739 34.9821C69.2439 34.9826 68.6279 34.7962 68.1039 34.4465C67.5798 34.0969 67.1712 33.5996 66.9298 33.0177C66.6884 32.4358 66.625 31.7954 66.7476 31.1774C66.8702 30.5595 67.1734 29.9918 67.6187 29.5461C68.064 29.1005 68.6314 28.7969 69.2493 28.6739C69.8672 28.5508 70.5076 28.6137 71.0897 28.8547C71.6718 29.0957 72.1693 29.5039 72.5194 30.0277C72.8695 30.5515 73.0563 31.1673 73.0563 31.7973C73.0563 32.6415 72.7211 33.4512 72.1243 34.0484C71.5276 34.6456 70.7182 34.9815 69.8739 34.9821Z" fill="#6A83AD"/>
<path d="M70.5243 30.0977C70.5248 30.227 70.4869 30.3535 70.4153 30.4612C70.3438 30.569 70.2419 30.653 70.1225 30.7027C70.0031 30.7524 69.8716 30.7655 69.7448 30.7404C69.6179 30.7153 69.5014 30.6531 69.41 30.5617C69.3185 30.4702 69.2563 30.3537 69.2312 30.2268C69.2061 30.1 69.2192 29.9685 69.2689 29.8491C69.3186 29.7298 69.4026 29.6278 69.5104 29.5563C69.6181 29.4847 69.7446 29.4468 69.8739 29.4473C70.0464 29.4473 70.2119 29.5158 70.3339 29.6378C70.4558 29.7597 70.5243 29.9252 70.5243 30.0977Z" fill="#6A83AD"/>
<path d="M70.5626 30.6504H69.1826V30.8496H70.5626V30.6504Z" fill="#6A83AD"/>
<path opacity="0.1" d="M70.5626 30.6504H69.1826V30.8496H70.5626V30.6504Z" fill="black"/>
<path d="M71.273 33.3906H68.4746V33.5898H71.273V33.3906Z" fill="#6A83AD"/>
<path opacity="0.1" d="M71.273 33.3906H68.4746V33.5898H71.273V33.3906Z" fill="black"/>
<path d="M71.273 33.9502H68.4746V34.1494H71.273V33.9502Z" fill="#6A83AD"/>
<path opacity="0.1" d="M71.273 33.9502H68.4746V34.1494H71.273V33.9502Z" fill="black"/>
<path d="M71.1677 33.5898H68.5781V33.9498H71.1677V33.5898Z" fill="#6A83AD"/>
<path d="M70.4376 30.8496H69.3096V31.0488H70.4376V30.8496Z" fill="#6A83AD"/>
<path d="M71.0167 33.3911H68.7295C69.038 33.0715 69.2558 32.6756 69.3607 32.2439C69.4519 31.7183 69.4951 31.0439 69.4951 31.0439H70.2511C70.2511 31.0439 70.2967 31.7135 70.3879 32.2439C70.4912 32.6757 70.7084 33.0718 71.0167 33.3911Z" fill="#6A83AD"/>
</svg>
