<svg width="120" height="120" viewBox="0 0 120 120" fill="none" xmlns="http://www.w3.org/2000/svg">
<path d="M23.6897 57.6666L23.6787 58.1465L53.1334 58.82L53.1444 58.3402L23.6897 57.6666Z" fill="#7D7D7D"/>
<path d="M65.8259 58.4313L65.4482 58.7275L83.168 81.3183L83.5457 81.0221L65.8259 58.4313Z" fill="#7D7D7D"/>
<path d="M36.5494 21.5945L36.1484 21.8584L55.2851 50.9358L55.686 50.6719L36.5494 21.5945Z" fill="#7D7D7D"/>
<path d="M53.7461 64.2477L23.5303 90.9805L23.8483 91.34L54.0642 64.6072L53.7461 64.2477Z" fill="#7D7D7D"/>
<path d="M101.801 57.667H73.7207V58.147H101.801V57.667Z" fill="#7D7D7D"/>
<path d="M40.9323 21.4979C41.7244 18.1807 39.6774 14.8494 36.3602 14.0573C33.0429 13.2652 29.7117 15.3122 28.9196 18.6294C28.1275 21.9466 30.1745 25.2779 33.4917 26.07C36.8089 26.8621 40.1402 24.8151 40.9323 21.4979Z" fill="#7D7D7D"/>
<path d="M33.0625 19.1711C33.062 19.5557 33.1756 19.9318 33.389 20.2518C33.6023 20.5718 33.9057 20.8213 34.2609 20.9688C34.6161 21.1163 35.007 21.1552 35.3843 21.0804C35.7615 21.0057 36.1082 20.8207 36.3803 20.549C36.6524 20.2772 36.8378 19.9308 36.913 19.5536C36.9882 19.1765 36.9498 18.7855 36.8028 18.4301C36.6557 18.0748 36.4065 17.771 36.0868 17.5573C35.767 17.3436 35.3911 17.2295 35.0065 17.2295C34.4913 17.2295 33.9972 17.434 33.6327 17.798C33.2682 18.1621 33.0631 18.6559 33.0625 19.1711Z" fill="white"/>
<path d="M31.6488 24.5309V25.3325C32.2169 25.6868 32.8385 25.9469 33.4896 26.1029C34.3121 26.3063 35.167 26.3426 36.0039 26.2099C36.8407 26.0772 37.6424 25.778 38.3616 25.3301V24.5309C38.3616 23.6398 38.0076 22.7851 37.3775 22.155C36.7474 21.5249 35.8927 21.1709 35.0016 21.1709C34.1105 21.1709 33.2558 21.5249 32.6257 22.155C31.9956 22.7851 31.6416 23.6398 31.6416 24.5309H31.6488Z" fill="white"/>
<path d="M103.501 64.4566C105.721 61.9054 107.799 59.107 107.497 56.023C107.295 54.0214 105.915 52.0342 103.501 52.0342C101.086 52.0342 99.7015 54.0214 99.4999 56.023C99.1927 59.107 101.281 61.9054 103.501 64.4566ZM101.305 56.0566C101.305 55.6234 101.433 55.2 101.674 54.8397C101.914 54.4795 102.256 54.1986 102.656 54.0326C103.056 53.8667 103.497 53.823 103.922 53.9071C104.347 53.9913 104.737 54.1995 105.044 54.5055C105.35 54.8114 105.559 55.2014 105.644 55.6262C105.73 56.0509 105.687 56.4913 105.522 56.8918C105.357 57.2923 105.076 57.6348 104.717 57.8762C104.357 58.1175 103.934 58.2468 103.501 58.2478C103.212 58.2487 102.926 58.1926 102.659 58.0826C102.392 57.9725 102.15 57.8108 101.946 57.6067C101.742 57.4026 101.58 57.1601 101.47 56.8933C101.36 56.6264 101.304 56.3404 101.305 56.0518V56.0566Z" fill="#7D7D7D"/>
<path d="M96.001 84.6317C96.6098 86.1952 96.967 87.8453 97.0594 89.5205H101.394V89.4005L101.358 89.0669C101.304 88.492 101.208 87.9218 101.072 87.3605C100.848 86.4385 100.526 85.5431 100.112 84.6893C100.104 84.6685 100.089 84.651 100.07 84.6397C100.051 84.6283 100.029 84.6238 100.007 84.6269H96.001V84.6317Z" fill="#7D7D7D"/>
<path d="M96.1182 95.5641H100.1C100.121 95.5667 100.143 95.5616 100.161 95.5497C100.179 95.5378 100.192 95.52 100.198 95.4993C100.878 94.0758 101.28 92.5353 101.381 90.9609C101.384 90.943 101.388 90.9254 101.393 90.9081V90.7881H101.329H97.1334C97.0566 90.7881 97.0614 90.7881 97.0542 90.8673C97.0278 91.2153 97.0062 91.5633 96.9726 91.9113C96.915 92.4623 96.8261 93.0096 96.7062 93.5505C96.561 94.212 96.3717 94.863 96.1398 95.4993L96.1182 95.5641Z" fill="#7D7D7D"/>
<path d="M79.3715 96.8262L79.4051 96.8838C79.7435 97.4003 80.1214 97.8898 80.5355 98.3478C81.0328 98.9113 81.587 99.422 82.1891 99.8718C83.3492 100.753 84.6626 101.411 86.0627 101.813C86.6066 101.97 87.1607 102.089 87.7211 102.169L87.8843 102.195H87.9803L88.0739 102.135L87.9683 102.061C86.7534 101.234 85.6906 100.204 84.8267 99.015C84.338 98.3443 83.9092 97.6319 83.5451 96.8862C83.5377 96.8661 83.5237 96.8489 83.5054 96.8376C83.4872 96.8263 83.4656 96.8214 83.4443 96.8238H79.3643L79.3715 96.8262Z" fill="#7D7D7D"/>
<path d="M83.3555 89.5201H88.9499V84.6337H84.5819C84.5629 84.6308 84.5435 84.635 84.5275 84.6457C84.5115 84.6564 84.5 84.6727 84.4955 84.6913C84.0941 85.61 83.7955 86.5702 83.6051 87.5545C83.5054 88.0679 83.4333 88.5862 83.3891 89.1073C83.3795 89.2417 83.3675 89.3785 83.3555 89.5201Z" fill="#7D7D7D"/>
<path d="M83.3887 90.8262C83.3887 90.9414 83.3887 91.0662 83.4055 91.1718C83.4295 91.4454 83.4487 91.7166 83.4871 91.9878C83.5399 92.3622 83.5975 92.7366 83.6719 93.1086C83.8369 93.9245 84.078 94.7232 84.3919 95.4942C84.3975 95.5166 84.4111 95.5362 84.43 95.5494C84.449 95.5627 84.4721 95.5686 84.4951 95.5662H88.9783V90.8262H83.3887Z" fill="#7D7D7D"/>
<path d="M90.21 84.6631V89.5591H95.6724C95.6724 89.4343 95.6604 89.3191 95.6484 89.1919C95.6196 88.9183 95.598 88.6447 95.5548 88.3735C95.4876 87.9583 95.418 87.5431 95.3292 87.1327C95.1453 86.3087 94.8809 85.5048 94.5396 84.7327C94.5331 84.7135 94.5203 84.6971 94.5033 84.6862C94.4863 84.6753 94.4661 84.6705 94.446 84.6727H90.21V84.6631Z" fill="#7D7D7D"/>
<path d="M90.2051 90.8907V95.5635H94.5611C94.5821 95.5655 94.6032 95.5601 94.6207 95.5483C94.6382 95.5364 94.6511 95.5189 94.6571 95.4987C94.9884 94.7037 95.2377 93.877 95.4011 93.0315C95.4827 92.5971 95.5451 92.1579 95.6003 91.7187C95.6363 91.4331 95.6435 91.1427 95.6627 90.8523C95.6639 90.8427 95.6639 90.833 95.6627 90.8235H90.2747C90.2171 90.8211 90.2051 90.8379 90.2051 90.8907Z" fill="#7D7D7D"/>
<path d="M77.4249 89.5565H82.0065C82.1005 87.8686 82.4618 86.2064 83.0769 84.6317H78.8025C78.7817 84.6289 78.7605 84.6333 78.7426 84.6442C78.7247 84.6551 78.7111 84.6719 78.7041 84.6917C78.2142 85.6604 77.8589 86.6916 77.6481 87.7565C77.5352 88.3237 77.4607 88.8977 77.4249 89.4749C77.4225 89.5013 77.4249 89.5205 77.4249 89.5565Z" fill="#7D7D7D"/>
<path d="M77.4199 90.79C77.4199 90.9004 77.4199 91.006 77.4343 91.1116C77.4655 91.5244 77.5135 91.9372 77.5855 92.3452C77.755 93.2933 78.0378 94.2175 78.4279 95.098C78.4903 95.2396 78.5575 95.3788 78.6223 95.5204C78.6267 95.5344 78.6358 95.5463 78.6481 95.5542C78.6604 95.5621 78.675 95.5654 78.6895 95.5636H82.9471L82.7959 95.1316C82.3726 93.8721 82.116 92.5626 82.0327 91.2364C82.0327 91.1044 82.0159 90.9724 82.0111 90.8404C82.0111 90.8068 82.0111 90.79 81.9631 90.7924H77.4199V90.79Z" fill="#7D7D7D"/>
<path d="M79.4961 83.3836C79.4965 83.39 79.4965 83.3964 79.4961 83.4028H83.5761C83.5962 83.4053 83.6166 83.4009 83.634 83.3905C83.6514 83.3801 83.6648 83.3641 83.6721 83.3452C84.2052 82.2823 84.8731 81.2926 85.6593 80.4004C86.1239 79.8858 86.6348 79.415 87.1857 78.994C87.4593 78.7828 87.7449 78.586 88.0233 78.3844L88.0689 78.3484L88.0137 78.31C88.0137 78.286 88.0305 78.2596 88.0401 78.2236C86.3289 78.4205 84.6801 78.9834 83.2058 79.8742C81.7315 80.765 80.4663 81.9628 79.4961 83.386V83.3836Z" fill="#7D7D7D"/>
<path d="M90.9873 102.14C91.0249 102.151 91.0635 102.157 91.1025 102.159C91.54 102.1 91.9736 102.015 92.4009 101.905C94.1297 101.465 95.7359 100.638 97.0977 99.4855C97.6151 99.0545 98.0923 98.5773 98.5233 98.0599C98.8463 97.6691 99.1437 97.2578 99.4137 96.8287L99.4329 96.7903H95.6433C95.623 96.7887 95.6027 96.794 95.5857 96.8054C95.5688 96.8167 95.5561 96.8333 95.5497 96.8527C95.1615 97.6379 94.7019 98.3859 94.1769 99.0871C93.6929 99.7257 93.155 100.321 92.5689 100.868C92.0875 101.324 91.5698 101.741 91.0209 102.114L90.9873 102.14Z" fill="#7D7D7D"/>
<path d="M91.0371 78.3416C91.2051 78.4664 91.4067 78.608 91.6011 78.7568C92.2528 79.2622 92.8583 79.8244 93.4107 80.4368C94.1573 81.2538 94.7953 82.1637 95.3091 83.144C95.3403 83.2064 95.3691 83.2712 95.4051 83.3312C95.4118 83.3407 95.4203 83.3489 95.4302 83.3551C95.4401 83.3612 95.4512 83.3654 95.4627 83.3672C95.5299 83.3672 95.5971 83.3672 95.6667 83.3672H99.3147C97.2819 80.4872 94.5531 78.7688 91.0779 78.2432L91.1019 78.2888L91.0371 78.3416Z" fill="#7D7D7D"/>
<path d="M85.0254 96.8281C85.5418 97.7328 86.1646 98.5723 86.8806 99.3289C87.5117 100.006 88.2197 100.607 88.9902 101.119V96.8281H85.0254Z" fill="#7D7D7D"/>
<path d="M90.2119 96.8311V101.041C91.7896 99.955 93.0901 98.5139 94.0087 96.8335L90.2119 96.8311Z" fill="#7D7D7D"/>
<path d="M85.1475 83.3664H88.9467V79.3584C88.1673 79.8661 87.4517 80.4656 86.8155 81.144C86.1842 81.8252 85.6252 82.57 85.1475 83.3664Z" fill="#7D7D7D"/>
<path d="M90.21 79.4834V83.4002H93.858C92.9663 81.8263 91.7166 80.4845 90.21 79.4834Z" fill="#7D7D7D"/>
<path d="M12.4754 65.0332H26.0498V51.4588H12.4754L12.4754 65.0332Z" fill="#7D7D7D"/>
<path d="M13.1376 64.3682H25.3848V52.121H13.1376L13.1376 64.3682Z" fill="#DBDBDB"/>
<path d="M15.1208 55.0436C15.0725 55.2865 15.1036 55.5385 15.2095 55.7623C15.3154 55.9862 15.4905 56.1701 15.7089 56.2868C15.9273 56.4035 16.1775 56.4469 16.4225 56.4106C16.6674 56.3742 16.8942 56.2601 17.0693 56.0849C17.2444 55.9098 17.3586 55.683 17.3949 55.4381C17.4313 55.1931 17.3879 54.943 17.2712 54.7246C17.1544 54.5061 16.9706 54.3311 16.7467 54.2251C16.5229 54.1192 16.2709 54.0881 16.028 54.1364C15.8041 54.1812 15.5985 54.2913 15.4371 54.4527C15.2757 54.6142 15.1656 54.8197 15.1208 55.0436Z" fill="#C7C7C7"/>
<path d="M16.5361 61.1907H25.3873L20.9617 56.2275L16.5361 61.1907Z" fill="#C7C7C7"/>
<path d="M13.1406 61.1908H20.4462L16.7934 57.958L13.1406 61.1908Z" fill="#A6A6A6"/>
<path d="M25.3878 61.1904H13.1406V64.368H25.3878V61.1904Z" fill="#A6A6A6"/>
<path d="M34.0804 88.0801V99.6001H32.6404V102.463L29.8156 99.6001H14.4004V88.0801H34.0804Z" fill="white"/>
<path d="M34.0802 88.0798C34.1066 91.5574 34.217 96.3046 34.2242 99.7414H34.0802H32.6402L32.7962 99.5854L32.8178 102.449V102.881L32.5106 102.573L29.669 99.7438L29.8154 99.8038C25.1762 99.8038 18.7394 99.8518 14.165 99.8326V99.5926L14.1962 88.0726V87.8662C19.2074 87.9046 29.0762 88.0006 34.0802 88.0726V88.0798ZM34.0802 88.0798C29.1746 88.1518 19.3034 88.2478 14.4002 88.2838L14.6042 88.0798L14.6402 99.5998L14.4002 99.3598C18.8858 99.3598 25.3514 99.3814 29.9018 99.391L29.9618 99.451L32.7674 102.331L32.4626 102.456L32.4842 99.5926V99.4366C32.5778 99.4366 33.953 99.4366 34.0778 99.4366L33.9338 99.5806C33.965 96.2662 34.0298 91.4206 34.0778 88.0606L34.0802 88.0798Z" fill="#7D7D7D"/>
<path d="M20.6112 93.8979C20.6116 94.0836 20.557 94.2653 20.4542 94.4199C20.3514 94.5746 20.205 94.6952 20.0335 94.7666C19.8621 94.838 19.6734 94.8569 19.4912 94.821C19.309 94.785 19.1416 94.6959 19.0101 94.5647C18.8786 94.4336 18.789 94.2664 18.7526 94.0843C18.7162 93.9022 18.7346 93.7134 18.8056 93.5418C18.8765 93.3701 18.9968 93.2235 19.1512 93.1202C19.3055 93.017 19.4871 92.9619 19.6728 92.9619C19.9212 92.9619 20.1596 93.0605 20.3355 93.2359C20.5114 93.4114 20.6105 93.6494 20.6112 93.8979Z" fill="#7D7D7D"/>
<path d="M25.2841 93.8979C25.2841 94.083 25.2292 94.264 25.1264 94.4179C25.0235 94.5719 24.8773 94.6918 24.7063 94.7627C24.5353 94.8335 24.3471 94.852 24.1655 94.8159C23.9839 94.7798 23.8172 94.6907 23.6863 94.5598C23.5554 94.4289 23.4662 94.2621 23.4301 94.0805C23.394 93.899 23.4125 93.7108 23.4834 93.5397C23.5542 93.3687 23.6742 93.2225 23.8281 93.1197C23.982 93.0168 24.163 92.9619 24.3481 92.9619C24.5962 92.9625 24.8339 93.0614 25.0093 93.2368C25.1847 93.4122 25.2835 93.6499 25.2841 93.8979Z" fill="#7D7D7D"/>
<path d="M29.9598 93.8979C29.9603 94.0837 29.9056 94.2655 29.8027 94.4202C29.6997 94.5749 29.5532 94.6955 29.3816 94.7668C29.2101 94.8381 29.0212 94.8569 28.8389 94.8208C28.6567 94.7847 28.4892 94.6952 28.3579 94.5639C28.2265 94.4325 28.1371 94.2651 28.1009 94.0828C28.0648 93.9005 28.0836 93.7117 28.1549 93.5401C28.2262 93.3685 28.3469 93.222 28.5016 93.1191C28.6562 93.0161 28.838 92.9614 29.0238 92.9619C29.2719 92.9626 29.5096 93.0614 29.685 93.2368C29.8604 93.4122 29.9592 93.6499 29.9598 93.8979Z" fill="#7D7D7D"/>
<path d="M70.4246 65.8616C74.8166 61.4696 74.8166 54.3488 70.4246 49.9568C66.0326 45.5648 58.9118 45.5648 54.5198 49.9568C50.1278 54.3488 50.1278 61.4696 54.5198 65.8616C58.9118 70.2536 66.0326 70.2536 70.4246 65.8616Z" fill="#7D7D7D"/>
<path d="M109.147 87.8758C106.174 91.903 103.073 96.5782 102.317 101.63C102.315 101.639 102.315 101.648 102.317 101.656C102.318 101.665 102.322 101.673 102.327 101.681C102.332 101.688 102.338 101.694 102.345 101.699C102.353 101.704 102.361 101.708 102.37 101.709C102.378 101.711 102.387 101.711 102.396 101.709C102.404 101.708 102.413 101.704 102.42 101.699C102.427 101.694 102.434 101.688 102.439 101.681C102.444 101.673 102.447 101.665 102.449 101.657C102.792 100.279 103.231 98.9265 103.764 97.6102C105.72 97.0726 107.638 96.631 108.665 94.6894C109.714 92.695 109.579 90.0934 109.385 87.919C109.368 87.8038 109.2 87.7966 109.147 87.8758Z" fill="#6A83AD"/>
<path d="M103.793 97.5744C105.13 94.5744 106.846 91.5744 109.025 89.0976C109.039 89.0808 109.063 89.0976 109.049 89.1216C107.621 90.8784 106.536 92.7912 105.478 94.7376C106.462 93.7368 107.542 92.8416 108.475 91.7808C108.492 91.7592 108.521 91.7808 108.504 91.812C107.578 92.9232 106.567 94.1304 105.36 94.9536C105.04 95.552 104.713 96.1504 104.378 96.7488C104.46 96.7032 104.544 96.6624 104.618 96.6216C104.633 96.6216 104.647 96.636 104.633 96.6432C104.539 96.6912 104.448 96.7392 104.354 96.78C104.198 97.0632 104.042 97.3464 103.874 97.6296C103.853 97.692 103.764 97.6368 103.793 97.5744Z" fill="#263238"/>
<path d="M104.786 96.5278C105.586 96.0795 106.35 95.57 107.071 95.0038C107.09 94.987 107.119 95.0038 107.098 95.0302C106.401 95.6338 105.636 96.1549 104.82 96.583C104.782 96.6022 104.75 96.547 104.786 96.5278Z" fill="#263238"/>
<path d="M101.973 100.879C101.976 100.892 101.983 100.903 101.993 100.911C102.003 100.919 102.015 100.923 102.027 100.923C102.04 100.923 102.052 100.919 102.062 100.911C102.072 100.903 102.079 100.892 102.081 100.879C102.096 99.216 102.081 97.5456 102.108 95.8728C102.535 95.0136 103.449 94.5384 104.085 93.8472C104.543 93.344 104.94 92.7899 105.271 92.196C106.038 90.7734 106.506 89.2096 106.649 87.6C106.824 85.8192 106.149 79.9464 105.398 80.16C105.009 80.2656 103.749 83.1744 103.416 84.1368C102.877 85.7203 102.484 87.3494 102.24 89.004C101.625 92.9208 101.676 96.9408 101.973 100.879Z" fill="#6A83AD"/>
<path d="M101.961 93.7033C102.053 91.5985 102.525 89.4721 102.969 87.4321C103.449 85.2313 104.009 83.1601 105.129 81.1921C105.134 81.1864 105.141 81.1825 105.149 81.1812C105.156 81.1799 105.164 81.1811 105.171 81.1847C105.177 81.1883 105.183 81.1941 105.185 81.2011C105.188 81.2081 105.189 81.2159 105.187 81.2233C104.431 82.7493 103.847 84.3542 103.445 86.0089C103.519 85.8889 103.61 85.7689 103.685 85.6657C103.716 85.6201 103.79 85.6657 103.759 85.7089C103.658 85.8868 103.539 86.0541 103.404 86.2081C103.404 86.2081 103.404 86.2081 103.389 86.2081C103.001 87.7801 102.72 89.3905 102.482 90.9937C102.498 90.9718 102.516 90.951 102.535 90.9313C102.547 90.9313 102.569 90.9313 102.559 90.9505C102.53 91.0033 102.497 91.0561 102.463 91.1089C102.343 91.9249 102.223 92.7361 102.12 93.5425C103.56 92.3017 104.808 90.8425 105.506 89.0425C105.506 89.0425 105.523 89.0425 105.518 89.0425C104.834 90.9073 103.757 92.5681 102.096 93.7009C102.065 93.9169 102.036 94.1353 102.005 94.3513C102.005 94.3945 101.928 94.3825 101.928 94.3393C101.928 94.1473 101.928 93.9553 101.945 93.7633C101.942 93.7583 101.94 93.7527 101.939 93.7469C101.938 93.7412 101.939 93.7353 101.94 93.7297C101.942 93.7241 101.944 93.7189 101.948 93.7143C101.952 93.7098 101.956 93.706 101.961 93.7033Z" fill="#263238"/>
<path d="M102.643 90.6527C103.752 88.9991 104.786 87.3935 105.597 85.5647C105.597 85.5455 105.641 85.5647 105.633 85.5815C104.949 87.3959 103.994 89.2367 102.698 90.6959C102.692 90.7009 102.684 90.7037 102.676 90.7038C102.668 90.7038 102.66 90.7011 102.653 90.6961C102.647 90.6911 102.643 90.6841 102.641 90.6762C102.639 90.6683 102.64 90.66 102.643 90.6527Z" fill="#263238"/>
<path d="M104.117 85.1566C104.575 84.3454 105.06 83.5558 105.492 82.7278C105.504 82.7038 105.535 82.7278 105.525 82.747C105.171 83.6116 104.722 84.4342 104.186 85.1998C104.18 85.2091 104.171 85.2156 104.161 85.2181C104.15 85.2206 104.139 85.2188 104.13 85.213C104.12 85.2073 104.114 85.1981 104.111 85.1876C104.109 85.177 104.111 85.1659 104.117 85.1566Z" fill="#263238"/>
<path d="M100.846 96.0698C100.824 97.1718 100.695 98.269 100.459 99.3458C100.476 99.4658 100.493 99.5858 100.51 99.7058C100.849 98.5157 101.045 97.2895 101.095 96.053C101.105 96.0355 101.111 96.0156 101.111 95.9954C101.111 95.9752 101.105 95.9553 101.095 95.9378C101.143 94.2792 101.02 92.62 100.728 90.9866C100.215 87.929 99.089 84.9866 96.9554 82.7042C96.9378 82.688 96.9167 82.6762 96.8937 82.6697C96.8707 82.6632 96.8466 82.6623 96.8231 82.667C96.7997 82.6717 96.7778 82.6818 96.759 82.6967C96.7403 82.7115 96.7253 82.7305 96.7154 82.7522C95.8538 84.941 96.1538 87.5522 96.8882 89.7338C97.2833 90.9147 97.8493 92.0314 98.5682 93.0482C99.3194 94.0802 100.253 94.9466 100.846 96.0698Z" fill="#6A83AD"/>
<path d="M97.2116 83.7243C99.2324 87.0051 100.639 90.8931 100.812 94.7643C100.812 94.8315 100.699 94.8507 100.689 94.7811C100.641 94.4307 100.588 94.0875 100.533 93.7443C99.6981 92.9427 98.8388 92.0979 98.2412 91.1043C98.2401 91.1006 98.2402 91.0966 98.2414 91.0928C98.2427 91.0891 98.245 91.0859 98.2481 91.0835C98.2513 91.0812 98.2551 91.0798 98.259 91.0797C98.2629 91.0796 98.2668 91.0806 98.27 91.0827C98.9636 91.9343 99.7074 92.7437 100.497 93.5067C100.351 92.6499 100.18 91.8075 99.9765 90.9771L99.8181 90.7899C99.7821 90.7491 99.8397 90.6891 99.8781 90.7299L99.926 90.7827C99.6419 89.6425 99.2892 88.5205 98.87 87.4227C98.354 86.8107 97.7804 86.2803 97.406 85.5411C97.4038 85.5395 97.4021 85.5374 97.4009 85.5349C97.3997 85.5325 97.3991 85.5298 97.3992 85.527C97.3993 85.5243 97.4 85.5216 97.4014 85.5193C97.4027 85.5169 97.4046 85.5149 97.4069 85.5134C97.4093 85.5119 97.4119 85.5111 97.4146 85.5108C97.4173 85.5106 97.4201 85.5111 97.4226 85.5121C97.4251 85.5132 97.4273 85.5149 97.429 85.517C97.4307 85.5191 97.4319 85.5217 97.4325 85.5243C97.7325 85.9467 98.0252 86.3715 98.366 86.7651C98.5028 86.9211 98.6517 87.0675 98.7933 87.2187C98.3257 86.027 97.7714 84.871 97.1349 83.7603C97.1343 83.7512 97.1365 83.7421 97.1411 83.7343C97.1458 83.7264 97.1527 83.7201 97.161 83.7162C97.1693 83.7123 97.1785 83.711 97.1876 83.7125C97.1966 83.7139 97.205 83.7181 97.2116 83.7243Z" fill="#263238"/>
<path d="M97.6194 87.77C98.2746 88.6484 99.0186 89.4884 99.6258 90.41C99.6426 90.434 99.6042 90.4628 99.5826 90.4412C98.8026 89.7092 98.1426 88.7108 97.5762 87.8012C97.5594 87.7676 97.6002 87.746 97.6194 87.77Z" fill="#263238"/>
<path d="M99.7179 90.5998L99.7443 90.6286C99.7474 90.6301 99.7501 90.6323 99.7522 90.635C99.7543 90.6378 99.7557 90.641 99.7563 90.6444C99.7568 90.6478 99.7566 90.6513 99.7556 90.6546C99.7545 90.6579 99.7527 90.6609 99.7502 90.6633C99.7478 90.6658 99.7448 90.6676 99.7415 90.6686C99.7382 90.6697 99.7347 90.6699 99.7313 90.6693C99.7279 90.6688 99.7247 90.6674 99.7219 90.6653C99.7192 90.6632 99.717 90.6605 99.7155 90.6574L99.6867 90.631C99.6675 90.6118 99.6987 90.5806 99.7179 90.5998Z" fill="#263238"/>
<path d="M94.0462 90.0314C94.2838 91.8648 95.0211 93.5976 96.1774 95.0402C96.6585 95.6044 97.2519 96.0621 97.9198 96.3842C98.6686 96.7538 99.4534 97.181 100.229 97.4858C100.597 98.4233 100.87 99.3953 101.045 100.387C101.071 100.303 101.095 100.215 101.119 100.131C100.622 95.8586 97.8574 92.2106 94.3222 89.8634C94.2949 89.8403 94.2611 89.8265 94.2255 89.8237C94.1899 89.821 94.1543 89.8295 94.1238 89.8481C94.0933 89.8667 94.0694 89.8943 94.0555 89.9272C94.0416 89.9601 94.0383 89.9965 94.0462 90.0314Z" fill="#6A83AD"/>
<path d="M95.2802 91.2916C95.2562 91.27 95.2802 91.2268 95.3162 91.246C97.2593 92.6906 98.8083 94.6003 99.821 96.7996C99.8474 96.8572 99.7682 96.91 99.7346 96.85C99.5746 96.562 99.4066 96.2812 99.2306 96.0076C98.4242 95.8564 97.661 95.2876 97.0706 94.7476C97.0538 94.7332 97.0706 94.7092 97.0946 94.7236C97.4032 95.0063 97.7468 95.2482 98.117 95.4436C98.4458 95.6116 98.7986 95.7172 99.1418 95.8516C98.8418 95.3716 98.5298 94.9204 98.2058 94.4788C97.3276 94.1501 96.5033 93.6923 95.7602 93.1204C95.7558 93.1168 95.7529 93.1117 95.7519 93.1061C95.751 93.1005 95.752 93.0947 95.7549 93.0899C95.7578 93.085 95.7623 93.0813 95.7677 93.0794C95.773 93.0775 95.7789 93.0776 95.7842 93.0796C96.5138 93.5189 97.266 93.9195 98.0378 94.2796C97.5444 93.6296 97.0131 93.0093 96.4466 92.422C96.1706 92.278 95.8922 92.1316 95.6282 91.978C95.6066 91.966 95.6282 91.9276 95.645 91.9372C95.8661 92.0141 96.0772 92.1172 96.2738 92.2444C95.9498 91.9204 95.621 91.6036 95.2802 91.2916Z" fill="#263238"/>
<path d="M95.3426 92.7668C95.3911 92.7955 95.4368 92.8284 95.4794 92.8652C95.4914 92.8652 95.4794 92.8916 95.4626 92.8868C95.4133 92.8634 95.366 92.8361 95.321 92.8052C95.297 92.7908 95.3186 92.7524 95.3426 92.7668Z" fill="#263238"/>
<path d="M106.627 109.639H96.9355L97.7179 100.815L97.8907 98.8682H105.672L105.844 100.815L106.627 109.639Z" fill="#455A64"/>
<path d="M105.844 100.815H97.7178L97.8906 98.8682H105.671L105.844 100.815Z" fill="#263238"/>
<path d="M106.137 97.5068H97.4277V99.4316H106.137V97.5068Z" fill="#455A64"/>
<path d="M75.7778 109.628H51.281C51.0794 108.84 50.885 108.065 50.6882 107.3C50.465 106.421 50.2442 105.564 50.033 104.729C49.9874 104.544 49.937 104.357 49.8914 104.175L49.4114 102.305C49.3178 101.936 49.2242 101.585 49.1354 101.213C49.0466 100.841 48.9482 100.493 48.8594 100.136C48.833 100.042 48.8114 99.9508 48.7874 99.8596C48.7634 99.7684 48.737 99.658 48.713 99.5596C48.689 99.4612 48.6506 99.3196 48.6194 99.1948C48.5858 99.0676 48.5546 98.9428 48.5234 98.818C48.461 98.578 48.401 98.338 48.3458 98.1244L48.0938 97.1404C48.0602 96.9988 48.0242 96.8596 47.9882 96.7228C47.9306 96.4996 47.8754 96.2836 47.8226 96.0676C47.7842 95.926 47.7506 95.7868 47.717 95.65C47.5698 95.0884 47.4346 94.5604 47.3114 94.066C47.2778 93.9364 47.2466 93.8092 47.213 93.6844C47.1602 93.4708 47.1074 93.2644 47.057 93.0676C47.0234 92.9428 46.9922 92.8276 46.9658 92.7028C46.8554 92.2804 46.757 91.8964 46.673 91.558C46.649 91.4692 46.6274 91.3804 46.6034 91.2964C46.5482 91.0732 46.4954 90.8764 46.4522 90.6988C46.433 90.6268 46.4186 90.5596 46.3994 90.4972C46.3802 90.4348 46.3658 90.3604 46.349 90.3004C46.3322 90.2404 46.3274 90.214 46.3202 90.178C46.313 90.142 46.289 90.058 46.2746 90.01C46.2602 89.962 46.2626 89.9572 46.2578 89.9356L46.2002 89.7148H70.0442C70.0442 89.7148 70.829 92.422 72.0866 96.7852C72.341 97.6732 72.617 98.6332 72.9122 99.6508C73.7522 102.557 74.7266 105.953 75.7778 109.628Z" fill="#37474F"/>
<path d="M55.2917 109.628H54.6797C53.7741 105.877 52.8941 102.117 52.0397 98.3478C51.8349 97.4342 51.6325 96.5174 51.4325 95.5974C51.4133 95.511 51.3941 95.427 51.3773 95.3406C51.3747 95.3314 51.376 95.3215 51.3807 95.3132C51.3854 95.3049 51.3932 95.2988 51.4025 95.2962C51.4117 95.2937 51.4216 95.2949 51.4299 95.2996C51.4382 95.3044 51.4443 95.3122 51.4469 95.3214C51.4469 95.3502 51.4637 95.379 51.4733 95.4054C51.7493 96.3894 52.0253 97.3782 52.2941 98.3646C53.3325 102.11 54.3317 105.865 55.2917 109.628Z" fill="#263238"/>
<path d="M69.2762 89.7119L68.225 94.9799L67.361 99.2999L65.8922 106.663L65.741 107.419L65.489 108.674L65.2994 109.634H51.2786C51.0794 108.845 50.8802 108.067 50.6882 107.306C50.465 106.428 50.2442 105.571 50.033 104.736C49.9874 104.551 49.937 104.364 49.8914 104.182L49.4114 102.312C49.3178 101.942 49.2242 101.592 49.1354 101.22C49.0466 100.848 48.9482 100.5 48.8594 100.142C48.833 100.049 48.8114 99.9575 48.7874 99.8663C48.7634 99.7751 48.737 99.6647 48.713 99.5663C48.689 99.4679 48.6506 99.3263 48.6194 99.2015C48.5858 99.0743 48.5546 98.9495 48.5234 98.8247C48.461 98.5847 48.401 98.3447 48.3458 98.1311L48.0938 97.1471C48.0578 97.0031 48.0242 96.8663 47.9882 96.7295C47.9306 96.5063 47.8754 96.2903 47.8226 96.0743C47.7842 95.9327 47.7506 95.7935 47.717 95.6567C47.5698 95.0951 47.4346 94.5671 47.3114 94.0727C47.2778 93.9431 47.2466 93.8159 47.213 93.6911C47.1602 93.4775 47.1074 93.2711 47.057 93.0743C47.0234 92.9495 46.9922 92.8343 46.9658 92.7095C46.8554 92.2871 46.757 91.9031 46.673 91.5647C46.649 91.4759 46.6274 91.3871 46.6034 91.3031C46.5482 91.0799 46.4954 90.8831 46.4522 90.7055C46.433 90.6335 46.4186 90.5663 46.3994 90.5039C46.3802 90.4415 46.3658 90.3671 46.349 90.3071C46.3322 90.2471 46.3274 90.2207 46.3202 90.1847C46.313 90.1487 46.289 90.0647 46.2746 90.0167C46.2602 89.9687 46.2626 89.9639 46.2578 89.9423L46.2002 89.7215L69.2762 89.7119Z" fill="#263238"/>
<path d="M69.2783 89.7031C69.2783 89.8327 69.1799 91.2559 68.9495 93.4255C68.8847 94.0567 68.8079 94.7527 68.7095 95.4991C68.5703 96.6751 68.3975 97.9711 68.1815 99.3391C67.8167 101.739 67.3391 104.343 66.7175 106.894C66.4967 107.814 66.2543 108.723 65.9975 109.614L34.5863 109.626C34.5863 109.626 34.1903 107.211 34.2455 106.506C34.5431 102.666 36.7823 89.7055 36.7823 89.7055H64.7015L69.2783 89.7031Z" fill="#37474F"/>
<path d="M69.2139 92.53C69.1803 93.6316 69.1347 94.7308 69.0627 95.8276C68.9883 97.0276 68.8803 98.2012 68.7243 99.3868C68.7212 99.4311 68.7156 99.4751 68.7075 99.5188C68.5635 100.629 68.3971 101.737 68.2083 102.843C68.0307 103.872 67.9011 104.984 67.4451 105.939C67.2722 106.304 67.0273 106.631 66.7251 106.899C66.4475 107.152 66.1082 107.329 65.7411 107.41C65.6811 107.424 65.6201 107.434 65.5587 107.439C65.5419 107.439 65.5227 107.439 65.5059 107.439C65.5171 107.445 65.5263 107.455 65.5322 107.466C65.5382 107.478 65.5407 107.491 65.5395 107.504C65.5275 107.873 65.5395 108.248 65.4963 108.615C65.4951 108.63 65.4951 108.645 65.4963 108.66C65.4603 108.982 65.4003 109.299 65.3403 109.62H64.8003C64.8003 109.62 64.8003 109.62 64.8003 109.604C64.8939 109.256 64.9707 108.905 65.0595 108.552C65.1483 108.2 65.2683 107.847 65.3523 107.482C65.3583 107.469 65.3673 107.457 65.3787 107.448C65.0435 107.465 64.7114 107.378 64.4269 107.2C64.1425 107.022 63.9193 106.761 63.7875 106.452C63.6123 105.972 63.6915 105.492 63.7635 105.012C63.8595 104.384 63.9531 103.752 64.0491 103.121C64.2291 101.964 64.4619 100.82 64.6683 99.6676C64.6971 99.4924 64.7283 99.3172 64.7595 99.142C65.1723 96.7996 65.6043 94.4548 66.1227 92.134C66.1419 92.038 66.1635 91.9396 66.1851 91.8436C66.2067 91.7476 66.3027 91.798 66.2979 91.8604C66.2811 92.0164 66.2667 92.1748 66.2475 92.3284C66.1563 93.2196 66.0499 94.1076 65.9283 94.9924C65.7795 96.0316 65.6763 97.078 65.5299 98.1124C65.4795 98.4676 65.4315 98.8204 65.3787 99.1756C65.1387 100.884 64.8987 102.596 64.5987 104.3C64.4619 105.092 63.9699 106.51 65.1075 106.755C65.3684 106.813 65.6416 106.78 65.8803 106.659C66.3835 106.356 66.7596 105.881 66.9387 105.322C67.2627 104.415 67.3779 103.416 67.5459 102.471C67.7299 101.429 67.8955 100.385 68.0427 99.3388C68.2267 98.03 68.4211 96.7252 68.6259 95.4244C68.7267 94.7596 68.8323 94.0948 68.9379 93.4324C68.9883 93.1252 69.0387 92.818 69.0867 92.5084C69.1203 92.446 69.2139 92.4652 69.2139 92.53Z" fill="#263238"/>
<path d="M41.9787 100.714C43.2605 100.7 44.5357 100.529 45.7755 100.203C46.3467 100.054 46.9131 99.8717 47.4723 99.6893C48.0288 99.5347 48.5497 99.273 49.0059 98.9189C49.8675 98.1749 50.2707 96.9989 50.6451 95.9621C51.0562 94.7854 51.3889 93.5828 51.6411 92.3621C51.6531 92.3021 51.7419 92.3237 51.7443 92.3789C51.7743 93.7571 51.5996 95.1321 51.2259 96.4589C50.9163 97.5845 50.5059 98.8397 49.5915 99.6293C48.6315 100.46 47.3355 100.75 46.1115 100.901C44.7356 101.061 43.3449 101.042 41.9739 100.844C41.9599 100.839 41.9476 100.83 41.9391 100.818C41.9306 100.806 41.9263 100.792 41.9268 100.777C41.9273 100.762 41.9327 100.748 41.9421 100.737C41.9515 100.725 41.9644 100.717 41.9787 100.714Z" fill="#263238"/>
<path d="M39.8405 92.4007C39.7733 94.1215 37.9901 103.112 37.8581 104.83C37.7741 105.937 38.2013 109.63 38.2013 109.63H37.7645C37.7645 109.63 37.4333 106.342 37.4789 104.83C37.5269 103.107 39.5573 94.1335 39.6917 92.4127C39.6901 92.3929 39.6964 92.3734 39.7093 92.3583C39.7221 92.3432 39.7404 92.3339 39.7601 92.3323C39.7798 92.3307 39.7994 92.337 39.8145 92.3498C39.8296 92.3626 39.8389 92.3809 39.8405 92.4007Z" fill="#263238"/>
<path d="M65.1863 53.7242C77.0207 64.3898 87.9863 76.0682 88.8479 82.0442C90.0479 90.2978 84.9599 92.5874 82.6871 92.6042C76.4927 92.6666 65.2391 67.565 61.3271 57.9818C57.5231 48.6698 62.5871 51.3818 65.1863 53.7242Z" fill="#F7A9A0"/>
<path d="M83.0405 70.8008L69.8837 77.9528C69.8837 77.9528 61.7021 62.8328 59.8181 55.8368C57.9341 48.8408 60.7469 49.0352 66.9389 54.4832C73.1309 59.9312 83.0405 70.8008 83.0405 70.8008Z" fill="#C7C7C7"/>
<path d="M83.0405 70.8008L69.8837 77.9528C69.8837 77.9528 61.7021 62.8328 59.8181 55.8368C57.9341 48.8408 60.7469 49.0352 66.9389 54.4832C73.1309 59.9312 83.0405 70.8008 83.0405 70.8008Z" fill="#6A83AD"/>
<path opacity="0.1" d="M59.8251 55.827C61.7091 62.835 69.8907 77.9478 69.8907 77.9478L81.8715 71.4318L59.8083 50.6934C59.0715 51.2574 59.0403 52.923 59.8251 55.827Z" fill="black"/>
<path d="M80.3406 68.7774C75.267 72.2094 70.3494 74.439 69.3654 75.0174C69.3174 75.0438 69.279 74.9646 69.3294 74.9406C70.323 74.4342 75.723 71.0742 80.2998 68.7006C80.3526 68.6646 80.4006 68.7438 80.3406 68.7774Z" fill="#263238"/>
<path d="M72.8571 97.6799L34.3203 97.7879C34.3203 97.7879 37.6803 68.7959 51.8403 51.6719C55.1163 47.7071 60.3891 49.8623 62.6115 51.9647C68.2467 57.3095 72.9603 97.5383 72.8571 97.6799Z" fill="#6A83AD"/>
<path d="M59.8349 50.1917C58.1885 51.3917 56.6069 52.6733 55.0037 53.9141C54.1781 54.5525 53.3717 55.2317 52.5077 55.8149C51.8165 56.2805 51.0221 56.6693 50.1701 56.6213C49.6067 56.5801 49.0705 56.3636 48.6365 56.0021L48.7253 55.8653C48.9036 56.0103 49.0995 56.132 49.3085 56.2277C50.1605 56.6165 51.0845 56.4245 51.8789 55.9877C52.7549 55.5077 53.5277 54.8237 54.3149 54.2141C55.1757 53.5437 56.0381 52.8741 56.9021 52.2053C57.7925 51.5165 58.6781 50.7653 59.6045 50.0957C59.6837 50.1269 59.7605 50.1605 59.8349 50.1917ZM54.1325 70.0445C54.9845 68.8253 55.3997 67.1885 54.8669 65.7581C54.3869 64.4789 53.2421 63.6365 51.9413 63.3245C50.588 63.0081 49.1666 63.1781 47.9261 63.8045C46.3037 64.6301 45.1253 66.0869 43.6685 67.1429C43.2577 67.4422 42.815 67.6949 42.3485 67.8965C42.3053 67.9973 42.2645 68.0981 42.2237 68.1965C43.7933 67.6013 44.9597 66.3533 46.2149 65.2853C46.8704 64.6881 47.6154 64.1974 48.4229 63.8309C49.109 63.5524 49.8423 63.4082 50.5829 63.4061C51.9917 63.3917 53.4965 63.9173 54.3029 65.1365C55.2149 66.5165 54.9461 68.3045 54.1157 69.6533C52.0061 73.0685 47.3405 72.8525 43.8533 72.9173C42.6554 72.923 41.4603 73.0346 40.2821 73.2509C40.2485 73.3421 40.2149 73.4333 40.1837 73.5245C41.5238 73.2777 42.8842 73.1572 44.2469 73.1645C47.6357 73.1189 51.9461 73.1717 54.1325 70.0445ZM54.9845 61.4045C58.0184 61.7488 61.0782 61.0368 63.6485 59.3885C64.3342 58.9518 64.9771 58.4512 65.5685 57.8933L65.4821 57.6533C64.8608 58.2484 64.1795 58.7777 63.4493 59.2325C60.7883 60.9163 57.6048 61.5724 54.4949 61.0781C51.9317 60.6413 49.6349 59.0669 47.1485 58.3709L47.0045 58.6109C48.0822 58.9458 49.1332 59.3614 50.1485 59.8541C51.7061 60.5429 53.2805 61.2005 54.9845 61.4069V61.4045ZM52.1261 84.7853C53.161 83.7555 53.7811 82.3811 53.8685 80.9237C53.9429 79.5893 53.5205 78.1805 52.4597 77.3093C51.2429 76.3181 49.5797 76.2725 48.1397 76.7381C46.4789 77.2757 45.1901 78.4181 44.0597 79.7213C42.8309 81.1349 41.7581 82.7429 40.2629 83.8997C39.2501 84.6845 37.9685 85.3397 36.6629 85.4117C36.6437 85.4861 36.6245 85.5653 36.6077 85.6517C37.2745 85.6125 37.9296 85.4591 38.5445 85.1981C40.1837 84.5093 41.4245 83.2781 42.5477 81.9317C43.7309 80.5229 44.8349 78.9413 46.3757 77.8877C47.7221 76.9685 49.5197 76.3661 51.1349 76.8773C52.6373 77.3573 53.5085 78.7445 53.6093 80.2733C53.6538 81.0298 53.5442 81.7874 53.2872 82.5003C53.0302 83.2132 52.6311 83.8665 52.1141 84.4205C50.9141 85.7261 49.2917 86.5373 47.6525 87.1421C45.7441 87.8248 43.7956 88.3899 41.8181 88.8341C39.7157 89.3261 37.1861 89.7557 35.4221 91.0997C35.3957 91.2293 35.3717 91.3541 35.3477 91.4813C37.1117 90.0029 39.8165 89.5613 42.0029 89.0477C43.9756 88.6083 45.9187 88.0448 47.8205 87.3605C49.3901 86.7653 50.9381 85.9925 52.1261 84.7877V84.7853ZM49.6517 91.1597C47.9573 91.0469 46.5101 92.1197 45.5525 93.4133C44.5565 94.7693 43.9685 96.3653 43.0469 97.7621H43.3253C43.6997 97.1741 44.0237 96.5477 44.3381 95.9453C45.1517 94.3661 46.0469 92.5997 47.7197 91.7837C48.5092 91.3744 49.4222 91.2718 50.2829 91.4957C50.6672 91.6212 51.0198 91.8287 51.3161 92.1038C51.6124 92.379 51.8453 92.7152 51.9989 93.0893C52.6421 94.5509 52.3973 96.1805 52.4789 97.7285H52.7189C52.6469 96.4637 52.7765 95.1869 52.5005 93.9341C52.1885 92.4917 51.2213 91.2677 49.6517 91.1621V91.1597ZM67.1237 96.7205C66.5477 95.1533 66.5429 93.4493 66.6221 91.8053C66.8141 87.6797 67.6253 83.5133 66.9773 79.3925C66.4829 76.2341 65.1245 73.0301 62.4485 71.1197C61.0901 70.1597 59.2253 69.5261 57.6773 70.4477C56.3645 71.2229 55.6781 72.7901 55.6589 74.2733C55.6397 76.1933 56.5325 77.9837 57.4709 79.6037C58.4093 81.2237 59.4629 82.7237 60.4013 84.3197C61.3397 85.9157 62.1341 87.5645 62.4845 89.3597C62.8035 91.0366 62.7486 92.7633 62.3237 94.4165C62.0365 95.5776 61.577 96.6892 60.9605 97.7141H61.2413C61.3685 97.5005 61.4813 97.2797 61.5989 97.0613C62.3546 95.589 62.7993 93.977 62.9054 92.3254C63.0116 90.6739 62.7768 89.0182 62.2157 87.4613C60.9485 83.9717 58.4021 81.1733 56.8301 77.8397C56.0261 76.1381 55.5053 74.1101 56.3501 72.3197C56.6748 71.5773 57.2314 70.96 57.9365 70.5605C58.357 70.3574 58.8142 70.2414 59.2807 70.2196C59.7471 70.1977 60.2132 70.2704 60.6509 70.4333C62.3117 70.9757 63.6941 72.3149 64.6469 73.7405C65.5554 75.1472 66.1942 76.7106 66.5309 78.3509C67.4141 82.3565 66.7181 86.4749 66.4325 90.5045C66.3077 92.2445 66.1925 94.0229 66.5717 95.7437C66.709 96.4268 66.9519 97.0843 67.2917 97.6925H67.5989C67.4056 97.3867 67.2463 97.0608 67.1237 96.7205ZM62.9429 67.0013C63.7469 68.6357 65.3789 69.5213 66.9989 70.1861C67.5989 70.4261 68.1989 70.6661 68.7989 70.9061C68.7845 70.8221 68.7653 70.7405 68.7509 70.6661C67.8101 70.2677 66.8501 69.9101 65.9333 69.4493C64.3685 68.6645 62.7533 67.2485 62.7749 65.3453C62.7965 63.5981 64.4045 62.3597 65.9957 62.0429C66.2499 61.9931 66.5073 61.9618 66.7661 61.9493C66.7469 61.8797 66.7277 61.8101 66.7109 61.7405C65.6215 61.7821 64.5773 62.1867 63.7445 62.8901C63.1651 63.3834 62.7703 64.0587 62.6246 64.8055C62.479 65.5524 62.5912 66.3265 62.9429 67.0013Z" fill="white"/>
<path d="M49.1282 52.9658C37.9082 61.5794 26.2082 76.2026 26.033 84.6458C25.8602 92.9834 30.5426 92.153 31.3322 91.9082C39.6698 89.3114 49.7186 66.185 53.4362 56.765C57.1202 47.4146 51.9026 50.8346 49.1282 52.9658Z" fill="#F7A9A0"/>
<path d="M31.1016 69.7686L44.1288 77.1558C44.1288 77.1558 52.5792 62.1942 54.588 55.2246C56.5968 48.255 53.7792 48.4062 47.4912 53.7438C41.2032 59.0814 31.1016 69.7686 31.1016 69.7686Z" fill="#6A83AD"/>
<path d="M33.8402 67.8026C38.8514 71.3234 43.7282 73.6418 44.7026 74.2274C44.7482 74.2562 44.789 74.177 44.741 74.153C43.7546 73.6274 38.4146 70.1714 33.881 67.7186C33.8402 67.6802 33.797 67.7666 33.8402 67.8026Z" fill="#263238"/>
<path d="M43.2913 76.6466C43.5593 76.7485 43.8213 76.8655 44.0761 76.997C45.3289 74.5082 45.1009 75.077 46.3753 72.6002C47.0025 71.3858 47.6273 70.1714 48.2497 68.957C48.8977 67.6946 49.4785 66.377 50.1937 65.1506C50.1975 65.143 50.2042 65.1372 50.2123 65.1345C50.2204 65.1318 50.2293 65.1324 50.2369 65.1362C50.2445 65.14 50.2503 65.1467 50.253 65.1548C50.2557 65.1629 50.2551 65.1718 50.2513 65.1794C49.8361 66.3794 49.2745 67.5362 48.7417 68.6906C48.8593 68.5106 48.9817 68.3282 49.0993 68.1554C49.3873 67.769 49.6681 67.3826 49.9249 66.9746C49.9633 66.9098 50.0689 66.9626 50.0281 67.025C49.7881 67.4138 49.5697 67.8146 49.3561 68.225C49.1425 68.6354 48.9049 69.0218 48.6625 69.425C48.4201 69.8282 48.1825 70.1618 47.9113 70.5218L47.8177 70.6538C47.4769 71.3738 47.1457 72.0938 46.7881 72.8138C45.5353 75.317 44.2441 77.285 44.2009 77.273C43.8729 77.1152 43.5575 76.9322 43.2577 76.7258C43.2193 76.6922 43.2553 76.6442 43.2913 76.6466Z" fill="#263238"/>
<path d="M82.1135 92.3064C78.2519 91.74 76.0655 84.564 71.7767 73.1424C71.0255 71.136 80.9975 59.6592 82.3511 61.5048C84.0575 63.8304 88.5767 76.728 89.0279 80.2248C89.9159 87.144 86.6231 92.964 82.1135 92.3064Z" fill="#F7A9A0"/>
<path d="M76.1741 84.701C75.2933 82.8338 74.5061 80.9258 73.7357 79.013C73.0157 77.081 72.1997 75.173 71.7773 73.1426C72.3821 75.1106 73.2173 77.0018 73.9589 78.9242C74.6189 80.6186 75.5669 83.0042 76.1741 84.701Z" fill="#263238"/>
<path d="M85.9205 69.7879C85.3805 65.8663 84.2741 60.3967 82.8725 59.2519C81.4013 58.0519 76.0613 54.0295 74.5181 53.4919C72.9749 52.9543 66.1013 50.3407 64.8389 51.0727C63.8285 51.6559 65.0237 54.3151 68.2973 55.5919C71.1773 56.7103 72.6533 57.7519 73.4741 58.1119C74.2949 58.4719 76.3397 61.2007 75.7901 62.4007C75.4637 63.1087 73.4045 63.9391 72.1229 63.3607C70.8413 62.7823 70.5245 60.2407 69.0605 59.0407C67.5965 57.8407 65.0141 57.9895 64.8653 58.6855C64.7165 59.3815 65.5685 59.7103 66.8885 62.0791C67.7381 63.6031 67.7957 67.2607 69.7229 69.8839C70.6829 71.2015 72.3773 74.7079 72.3773 74.7079L85.9205 69.7879Z" fill="#F7A9A0"/>
<path d="M67.6942 57.9602C67.2208 57.8912 66.7766 57.6899 66.4126 57.3794C66.2984 57.272 66.2116 57.1389 66.1594 56.9911C66.1072 56.8433 66.0911 56.6851 66.1126 56.5298C66.1153 56.413 66.1606 56.3012 66.2398 56.2154C66.2638 56.1986 66.2254 56.165 66.2134 56.1914C66.1777 56.246 66.1384 56.2981 66.0958 56.3474C66.0649 56.3937 66.0399 56.4437 66.0214 56.4962C65.9816 56.5978 65.9628 56.7064 65.9662 56.8154C65.9742 57.0549 66.064 57.2844 66.2206 57.4658C66.5854 57.9026 67.1494 58.0178 67.6918 57.9986C67.6943 57.9988 67.6969 57.9984 67.6992 57.9976C67.7016 57.9968 67.7038 57.9955 67.7057 57.9938C67.7076 57.9922 67.7092 57.9901 67.7103 57.9879C67.7114 57.9856 67.7121 57.9831 67.7122 57.9806C67.7124 57.9781 67.712 57.9756 67.7112 57.9732C67.7104 57.9708 67.7091 57.9686 67.7074 57.9667C67.7058 57.9648 67.7037 57.9632 67.7015 57.9621C67.6992 57.961 67.6967 57.9604 67.6942 57.9602Z" fill="#263238"/>
<path d="M82.8821 59.2515C81.6365 57.2931 78.4493 53.7651 75.2909 52.5507C73.1573 51.7299 65.8085 55.3035 66.0221 56.7075C66.2357 58.1115 67.4909 58.1187 69.3485 57.9075C70.0253 57.8283 73.6061 56.5443 74.2157 57.2955C75.0917 58.3755 76.2053 62.0667 76.2053 62.0667L82.8821 59.2515Z" fill="#F7A9A0"/>
<path d="M66.2038 56.1607C67.1134 54.6583 69.1078 53.8567 71.0926 53.2255C71.1238 53.2135 71.1406 53.2615 71.1118 53.2711C70.6054 53.4319 67.3702 54.9199 66.2254 56.1847C66.2134 56.1991 66.1942 56.1751 66.2038 56.1607Z" fill="#263238"/>
<path d="M82.8819 59.2517C81.6363 57.2933 78.4491 53.7653 75.2907 52.5509C73.1571 51.7301 67.3419 56.3045 67.5555 57.7085C67.7691 59.1125 69.5715 59.2277 71.5659 58.5341C72.2091 58.3109 74.3691 56.7917 74.9787 57.5429C75.8547 58.6229 77.9931 61.3061 77.9931 61.3061L82.8819 59.2517Z" fill="#F7A9A0"/>
<path d="M76.7592 59.6451C76.56 59.3355 76.4928 59.2275 76.2792 58.9251C76.0656 58.6227 75.864 58.3179 75.6384 58.0299C75.4609 57.7626 75.2384 57.5279 74.9808 57.3363C74.7138 57.1844 74.4048 57.1229 74.1 57.1611C73.4088 57.2259 72.7824 57.6627 72.1968 57.9987C71.5416 58.3755 70.1856 58.9827 69.144 58.8723C68.8587 58.8555 68.58 58.7795 68.3256 58.6491C68.1309 58.5618 67.9616 58.4264 67.8336 58.2555C67.3824 57.4923 67.9464 56.6187 68.5248 56.0019C69.5976 54.8499 71.0424 54.0147 72.4416 53.3283C72.7872 53.1603 73.1352 53.0019 73.4832 52.8483C73.873 52.6405 74.3025 52.5178 74.7432 52.4883C75.4632 52.4883 76.6488 53.2083 77.016 53.4483C77.0448 53.4651 77.064 53.4195 77.0376 53.4027C76.5936 53.1267 75.4944 52.2243 74.328 52.2819C73.9032 52.3457 73.4929 52.4838 73.116 52.6899C72.7096 52.8643 72.3096 53.0515 71.916 53.2515C71.1416 53.6296 70.3985 54.0686 69.6936 54.5643C69.0288 55.0443 68.3232 55.5891 67.8744 56.2803C67.4856 56.8779 67.368 57.7203 67.7472 58.3587C68.064 58.8891 68.7432 59.0163 69.0552 59.0571C69.3602 59.0992 69.6695 59.0992 69.9744 59.0571C70.6539 58.9117 71.322 58.7176 71.9736 58.4763C72.6048 58.2363 73.1736 57.7995 73.8264 57.6027C73.9799 57.5497 74.1424 57.5279 74.3043 57.5386C74.4663 57.5493 74.6245 57.5923 74.7696 57.6651C75.0343 57.8438 75.2713 58.0606 75.4728 58.3083C75.9069 58.7368 76.3006 59.2044 76.6488 59.7051C76.7472 59.8179 76.8432 59.7723 76.7592 59.6451Z" fill="#263238"/>
<path d="M83.8059 60.96C83.3475 60.0288 82.5795 56.1936 81.8403 55.0152C81.1011 53.8368 77.7219 49.7688 76.1427 49.944C74.1579 50.1624 76.2219 53.7408 77.2611 55.224C78.3003 56.7072 78.1227 59.1984 78.1227 59.1984L83.8059 60.96Z" fill="#F7A9A0"/>
<path d="M75.8141 52.7693C76.1773 53.2463 76.5161 53.7413 76.8293 54.2525C77.1611 54.717 77.4579 55.2056 77.7173 55.7141C77.9345 56.234 78.0643 56.7863 78.1013 57.3485C78.1277 57.6245 78.1373 57.8981 78.1373 58.1765C78.1373 58.4549 78.1133 58.7837 78.1205 59.0861C78.1205 59.1173 78.0701 59.1221 78.0701 59.0861C78.0338 58.5333 77.9625 57.9834 77.8565 57.4397C77.7573 56.8753 77.5905 56.325 77.3597 55.8005C76.8965 54.7613 76.2173 53.8349 75.7469 52.8005C75.7277 52.7621 75.7877 52.7357 75.8141 52.7693Z" fill="#263238"/>
<path d="M78.0959 59.6064C78.1439 61.0272 77.4983 62.3856 76.8071 63.5928C76.3271 64.4016 75.6719 65.0808 75.1895 65.8848C74.4665 67.0823 74.0319 68.4314 73.9199 69.8256C73.9212 67.9194 74.5875 66.0733 75.8039 64.6056C76.3866 63.8832 76.882 63.0945 77.2799 62.256C77.6735 61.4208 78.0431 60.5424 78.0911 59.616L78.0959 59.6064Z" fill="#263238"/>
<path d="M63.9317 54.1279C63.8762 54.7391 63.7897 55.347 63.6725 55.9495C63.5815 56.4958 63.4401 57.0324 63.2501 57.5527C62.8805 58.4887 62.1725 59.3527 61.0901 59.6047C60.5832 59.7013 60.0622 59.6954 59.5576 59.5874C59.0531 59.4794 58.5753 59.2715 58.1525 58.9759C57.2501 58.3807 56.5445 57.5359 55.8989 56.7151C55.4981 56.2063 55.1189 55.6855 54.7685 55.1455C54.5909 54.8743 54.4109 54.6007 54.2453 54.3199C54.0797 54.0391 53.9309 53.7535 53.7509 53.4847C53.7365 53.4631 53.6885 53.4847 53.7029 53.5015C54.0533 54.1399 55.1093 56.1583 55.4621 56.6599C56.1053 57.5695 56.8085 58.5007 57.7445 59.1727C58.6389 59.855 59.7643 60.1616 60.8813 60.0271C61.4182 59.9421 61.9245 59.7211 62.3518 59.385C62.779 59.0489 63.1131 58.6089 63.3221 58.1071C63.5688 57.5103 63.7257 56.8802 63.7877 56.2375C63.8765 55.5343 63.9245 54.8239 63.9533 54.1159C63.9461 54.1207 63.9341 54.1207 63.9317 54.1279Z" fill="#263238"/>
<path d="M60.2018 57.8405C57.8258 57.7733 54.8954 53.3453 54.113 50.1773C54.0626 49.9613 56.8634 42.5885 57.2666 41.0693C57.3482 40.7573 66.1898 45.9149 66.1898 45.9149C66.1898 45.9149 64.4066 48.8501 63.7202 51.4997C63.665 51.7229 62.4986 57.9005 60.2018 57.8405Z" fill="#F7A9A0"/>
<path d="M66.1875 45.9122C66.1875 45.9122 64.4067 48.8474 63.7179 51.4994C63.7059 51.5522 63.6315 51.9386 63.4947 52.4954C59.0739 50.8802 56.9283 47.3282 55.9443 44.9282C56.5467 43.2482 57.1035 41.6858 57.2643 41.0714C57.3603 40.757 66.1875 45.9122 66.1875 45.9122Z" fill="#263238"/>
<path d="M54.384 37.2002C54.384 37.2002 53.7816 39.449 53.3424 40.1546C52.9032 40.8602 50.916 41.1146 50.916 41.1146C50.916 41.1146 52.668 42.4322 53.2704 42.4754C53.8728 42.5186 55.2288 41.3666 55.2288 41.3666C55.2288 41.3666 53.6736 43.4042 52.8288 43.2722C52.308 43.1906 54.0288 43.7522 54.0288 43.7522C54.6103 43.8922 55.2231 43.8127 55.7496 43.529C56.5368 43.061 54.384 37.2002 54.384 37.2002Z" fill="#263238"/>
<path d="M57.6649 30.4808C55.7137 33.5696 54.8281 43.7912 56.6353 46.6184C59.2537 50.7176 64.8673 52.5776 68.6881 49.1312C72.3937 45.7928 73.3081 32.4512 71.1673 29.744C68.0137 25.7672 60.5497 25.9208 57.6649 30.4808Z" fill="#F7A9A0"/>
<path d="M65.1984 37.4095C64.8952 37.4375 64.5907 37.4487 64.2864 37.4431C63.936 37.4431 63.6576 37.4983 63.348 37.3039C63.2674 37.2383 63.2102 37.1484 63.1851 37.0475C63.16 36.9467 63.1683 36.8404 63.2088 36.7447C63.4104 36.3487 63.8376 36.2311 64.26 36.1999C64.6867 36.1549 65.1148 36.2713 65.46 36.5263C65.8128 36.7807 65.6088 37.3543 65.1984 37.4095Z" fill="#263238"/>
<path d="M64.6877 39.6168C64.6877 39.5904 64.6301 39.6408 64.6277 39.6696C64.5437 40.356 64.3325 41.1312 63.6677 41.2632C63.6485 41.2632 63.6461 41.3016 63.6677 41.3016C64.4501 41.3112 64.7189 40.2816 64.6877 39.6168Z" fill="#263238"/>
<path d="M64.1857 38.8084C63.0985 38.5684 62.6737 40.7501 63.6817 40.9853C64.6897 41.2205 65.0977 39.022 64.1857 38.8084Z" fill="#263238"/>
<path d="M68.6191 40.2795C68.6191 40.2555 68.6647 40.3227 68.6599 40.3491C68.5063 41.0259 68.4439 41.8251 69.0151 42.1683C69.0343 42.1803 69.0151 42.2139 69.0031 42.2067C68.2735 41.9547 68.3647 40.8939 68.6191 40.2795Z" fill="#263238"/>
<path d="M69.3602 39.6865C70.469 39.8161 70.1306 42.0241 69.1034 41.9041C68.0762 41.7841 68.4338 39.5785 69.3602 39.6865Z" fill="#263238"/>
<path d="M70.4308 38.5612C70.1469 38.4428 69.8697 38.309 69.6004 38.1604C69.2836 38.0068 69.0172 37.9204 68.8324 37.5964C68.7917 37.5009 68.783 37.3948 68.8077 37.294C68.8324 37.1932 68.889 37.1031 68.9692 37.0372C69.334 36.778 69.7684 36.8716 70.1548 37.0372C70.5519 37.1959 70.8755 37.4972 71.062 37.882C71.1022 37.9722 71.115 38.0723 71.0988 38.1697C71.0826 38.2672 71.0381 38.3577 70.9708 38.4301C70.9035 38.5024 70.8165 38.5535 70.7205 38.5768C70.6245 38.6001 70.5238 38.5946 70.4308 38.5612Z" fill="#263238"/>
<path d="M62.9861 45.1442C63.1181 45.3338 63.2381 45.5834 63.4805 45.653C63.7341 45.6963 63.994 45.6865 64.2437 45.6242C64.2488 45.6232 64.2541 45.6238 64.2588 45.626C64.2635 45.6282 64.2674 45.6319 64.2699 45.6365C64.2723 45.6411 64.2732 45.6464 64.2723 45.6515C64.2715 45.6567 64.269 45.6614 64.2653 45.665C64.1422 45.7796 63.9905 45.8588 63.8262 45.8943C63.6619 45.9298 63.491 45.9202 63.3317 45.8666C63.2004 45.8031 63.0908 45.7023 63.0165 45.5768C62.9422 45.4513 62.9066 45.3067 62.9141 45.161C62.9117 45.1202 62.9669 45.1202 62.9861 45.1442Z" fill="#263238"/>
<path d="M64.0944 43.2482C64.2141 43.5506 64.3953 43.8247 64.6267 44.0532C64.8581 44.2817 65.1346 44.4596 65.4384 44.5754C65.7025 44.6816 65.9806 44.7487 66.264 44.7746C66.317 44.7844 66.371 44.7885 66.4248 44.7866C66.4752 44.7866 66.5232 44.7866 66.5784 44.7866C66.6158 44.7865 66.6522 44.7743 66.682 44.7518C66.7119 44.7293 66.7337 44.6977 66.744 44.6618C66.7453 44.6386 66.7453 44.6154 66.744 44.5922V44.5322C66.8592 44.0114 66.9624 43.2074 66.9624 43.2074C67.1352 43.3394 68.0256 43.9658 68.064 43.6874C68.3664 41.3978 68.7024 38.8538 68.5224 36.5114C68.5196 36.4966 68.5116 36.4833 68.5 36.4738C68.4884 36.4642 68.4739 36.459 68.4588 36.459C68.4438 36.459 68.4292 36.4642 68.4176 36.4738C68.406 36.4833 68.3981 36.4966 68.3952 36.5114C68.016 38.6978 68.0256 40.937 67.6752 43.1426C67.3872 42.9626 66.9216 42.6458 66.648 42.6002C66.5688 42.6002 66.4752 44.1602 66.408 44.3882C66.4088 44.3962 66.4088 44.4042 66.408 44.4122C65.5056 44.3546 64.896 43.961 64.1568 43.2122C64.1256 43.1498 64.0632 43.1858 64.0944 43.2482Z" fill="#263238"/>
<path d="M55.4976 38.5251C57.3336 38.6115 60.072 33.2859 60.072 33.2859L59.352 36.4779C59.352 36.4779 60.9912 35.8731 62.0616 34.6923C62.8248 33.8523 63.156 32.4243 63.2256 31.6923C63.2256 31.6923 64.4256 34.2603 66.3696 35.5323C67.0896 36.0123 72.8904 37.9323 73.0104 37.5699C73.3728 36.4995 72.3792 31.8939 71.2584 30.4107C69.9648 28.7043 67.9416 26.7891 64.032 26.9499C60.1224 27.1107 58.4664 29.0283 57.3744 30.5811C56.2824 32.1339 54.8232 38.4939 55.4976 38.5251Z" fill="#263238"/>
<path d="M57.5998 39.5258C57.5998 39.5258 56.215 35.789 54.5758 36.2018C52.9366 36.6146 53.3974 41.6258 54.9166 42.6818C55.1023 42.8318 55.3163 42.9429 55.546 43.0083C55.7756 43.0736 56.016 43.0919 56.2529 43.0621C56.4898 43.0323 56.7182 42.955 56.9245 42.8348C57.1308 42.7146 57.3107 42.554 57.4534 42.3626L57.5998 39.5258Z" fill="#F7A9A0"/>
<path d="M54.7443 37.6348C54.7179 37.6348 54.7035 37.6636 54.7227 37.678C55.7787 38.4652 56.1147 39.7204 56.2539 40.9684C56.0139 40.4404 55.6011 40.0756 54.9051 40.3396C54.8691 40.354 54.8859 40.4116 54.9219 40.4116C55.1468 40.4003 55.3696 40.4588 55.56 40.5791C55.7503 40.6994 55.8988 40.8756 55.9851 41.0836C56.1259 41.4325 56.2297 41.7953 56.2947 42.166C56.3211 42.286 56.5347 42.2788 56.5203 42.1468C56.519 42.1364 56.519 42.1259 56.5203 42.1156C56.9403 40.6204 56.3211 38.2108 54.7443 37.6348Z" fill="#263238"/>
<path d="M68.6594 27.874C67.6669 26.9351 66.5422 26.1467 65.321 25.534C63.9482 24.874 59.3066 23.7148 57.917 24.2596C56.5274 24.8044 54.821 28.9732 54.5834 29.5876C54.3458 30.202 53.369 34.0636 54.4298 35.4292C55.4906 36.7948 57.7586 30.4324 60.6242 29.0404C63.4898 27.6484 68.6594 27.874 68.6594 27.874Z" fill="#6A83AD"/>
<path opacity="0.1" d="M68.6591 27.8767C68.6591 27.8767 63.4871 27.6223 60.6239 29.0287C57.7607 30.4351 55.4927 36.7951 54.4271 35.4295C53.9615 34.8295 53.8679 34.1359 53.9471 33.0511C54.8567 31.2751 56.5871 28.6231 58.8143 27.1327C60.9023 25.7359 63.7343 25.6231 66.5279 26.2159C67.2836 26.7088 67.9965 27.2644 68.6591 27.8767Z" fill="black"/>
<path d="M53.5347 39.3601C54.2259 37.6945 57.4851 33.7033 60.1803 31.6921C62.8755 29.6809 68.7363 29.9353 69.4707 30.2281C71.2515 30.9481 71.6859 31.6945 72.0267 31.6273C72.3675 31.5601 70.9539 29.5729 70.5435 29.0953C70.1331 28.6177 69.0003 27.4393 68.2059 27.1945C67.4115 26.9497 62.3787 25.8097 59.9163 27.2953C57.4539 28.7809 53.0067 33.7753 52.9707 35.4097C52.9707 35.8033 53.3595 36.1921 53.3427 36.7489C53.3187 37.4809 53.2011 38.2969 53.2467 38.8297C53.2803 39.2545 53.4747 39.5017 53.5347 39.3601Z" fill="#6A83AD"/>
<path d="M60.9911 30.6511C60.6582 30.2581 60.3595 29.8374 60.0983 29.3935C59.8275 28.9482 59.6092 28.4731 59.4479 27.9775C59.4471 27.9737 59.4456 27.9701 59.4434 27.967C59.4412 27.9638 59.4384 27.961 59.4352 27.9589C59.432 27.9568 59.4283 27.9553 59.4245 27.9546C59.4207 27.9539 59.4168 27.9539 59.4131 27.9547C59.4093 27.9555 59.4057 27.957 59.4025 27.9592C59.3993 27.9614 59.3966 27.9642 59.3945 27.9674C59.3923 27.9706 59.3909 27.9742 59.3902 27.978C59.3894 27.9818 59.3895 27.9857 59.3903 27.9895C59.48 28.5195 59.6542 29.0316 59.9063 29.5063C60.1658 29.9724 60.5101 30.3859 60.9215 30.7255C60.9599 30.7639 61.0271 30.6967 60.9911 30.6511Z" fill="#263238"/>
<path d="M54.0863 37.6465C54.0701 37.507 54.0469 37.3685 54.0167 37.2313C53.9931 37.0725 53.9867 36.9115 53.9975 36.7513C54.059 36.4578 54.0871 36.1583 54.0815 35.8585C54.0364 35.618 53.9656 35.3831 53.8703 35.1577C53.7423 34.9094 53.705 34.6242 53.7647 34.3513C53.766 34.3477 53.7665 34.3439 53.7663 34.34C53.7661 34.3362 53.7651 34.3324 53.7634 34.329C53.7618 34.3255 53.7594 34.3224 53.7566 34.3199C53.7537 34.3173 53.7503 34.3154 53.7467 34.3141C53.7431 34.3129 53.7393 34.3123 53.7354 34.3125C53.7316 34.3128 53.7278 34.3137 53.7244 34.3154C53.7209 34.3171 53.7178 34.3194 53.7153 34.3223C53.7127 34.3252 53.7108 34.3285 53.7095 34.3321C53.5343 34.8505 53.7599 35.3329 53.8415 35.8441C53.8943 36.1705 53.7815 36.4825 53.7791 36.8041C53.7525 37.1126 53.8303 37.4211 53.9999 37.6801C54.0191 37.7089 54.0887 37.6945 54.0863 37.6465Z" fill="#263238"/>
<path d="M55.2911 36.0003C55.1829 35.7591 55.0875 35.5124 55.0055 35.2611C54.9377 35.0111 54.8864 34.757 54.8519 34.5003C54.8159 34.2459 54.8015 33.9915 54.7703 33.7395C54.7343 33.4395 54.6623 33.1419 54.6407 32.8419C54.6407 32.8035 54.5807 32.8155 54.5831 32.8419C54.6047 33.1539 54.5831 33.4683 54.5831 33.7803C54.5955 34.0508 54.626 34.3202 54.6743 34.5867C54.7169 34.842 54.7836 35.0927 54.8735 35.3355C54.9555 35.5826 55.087 35.8104 55.2599 36.0051C55.2615 36.0081 55.2641 36.0105 55.2672 36.0121C55.2703 36.0136 55.2738 36.0141 55.2772 36.0136C55.2806 36.0131 55.2837 36.0115 55.2862 36.0091C55.2887 36.0068 55.2904 36.0037 55.2911 36.0003Z" fill="#263238"/>
<path d="M56.4674 34.5365C56.2098 34.1141 56.0149 33.6565 55.889 33.1781C55.769 32.6981 55.6778 32.2325 55.589 31.7597C55.589 31.7261 55.529 31.7285 55.5314 31.7597C55.5219 32.2618 55.5743 32.7631 55.6874 33.2525C55.7455 33.4895 55.8309 33.719 55.9418 33.9365C56.0771 34.1645 56.2381 34.3763 56.4218 34.5677C56.4386 34.5941 56.4866 34.5605 56.4674 34.5365Z" fill="#263238"/>
<path d="M57.6768 33.1633C57.5388 32.982 57.4369 32.7758 57.3768 32.5561C57.2928 32.3161 57.2136 32.0761 57.1368 31.8361C57.06 31.5961 56.9952 31.3561 56.928 31.1329C56.8451 30.9024 56.8116 30.6571 56.8296 30.4129C56.8292 30.4063 56.8266 30.4 56.8224 30.395C56.8182 30.3899 56.8125 30.3863 56.8061 30.3847C56.7997 30.3831 56.7929 30.3836 56.7868 30.3861C56.7807 30.3885 56.7755 30.3929 56.772 30.3985C56.7141 30.639 56.7051 30.8888 56.7456 31.1329C56.7774 31.4026 56.832 31.6692 56.9088 31.9297C56.9871 32.1855 57.0808 32.4364 57.1896 32.6809C57.2694 32.907 57.418 33.1025 57.6144 33.2401C57.66 33.2473 57.7104 33.2017 57.6768 33.1633Z" fill="#263238"/>
<path d="M58.841 31.3012C58.733 31.0924 58.6298 30.8836 58.5386 30.6676C58.4474 30.4516 58.3706 30.2332 58.2986 30.0148C58.2266 29.7964 58.133 29.5516 58.0586 29.3188C58.0586 29.3112 58.0555 29.3039 58.0501 29.2985C58.0447 29.2931 58.0374 29.29 58.0298 29.29C58.0221 29.29 58.0148 29.2931 58.0094 29.2985C58.004 29.3039 58.001 29.3112 58.001 29.3188C58.0169 29.5614 58.053 29.8023 58.109 30.0388C58.1683 30.2736 58.2445 30.5038 58.337 30.7276C58.4239 30.9502 58.5257 31.1667 58.6418 31.3756C58.7458 31.592 58.89 31.7866 59.0666 31.9492C59.0736 31.9541 59.0819 31.9568 59.0905 31.957C59.099 31.9572 59.1074 31.9548 59.1146 31.9501C59.1218 31.9455 59.1275 31.9388 59.1309 31.931C59.1343 31.9231 59.1353 31.9145 59.1338 31.906C59.0548 31.6959 58.9568 31.4935 58.841 31.3012Z" fill="#263238"/>
<path d="M62.623 30.1184C62.5246 29.852 62.4286 29.5928 62.3062 29.3384C62.1797 29.0787 62.0386 28.8263 61.8838 28.5824C61.5919 28.1009 61.2474 27.6533 60.8566 27.248C60.835 27.2264 60.787 27.248 60.8062 27.2792C61.3846 28.2392 62.0062 29.1776 62.5678 30.1448C62.5721 30.1505 62.5783 30.1546 62.5853 30.1564C62.5923 30.1581 62.5997 30.1573 62.6062 30.1542C62.6127 30.1511 62.618 30.1458 62.621 30.1393C62.6241 30.1328 62.6248 30.1254 62.623 30.1184Z" fill="#263238"/>
<path d="M64.143 29.0017C64.0389 28.7398 63.906 28.4903 63.747 28.2577C63.3953 27.7819 62.9929 27.3457 62.547 26.9569C62.5182 26.9329 62.475 26.9569 62.5014 26.9953C62.8446 27.4369 63.1974 27.8737 63.5166 28.3345C63.6764 28.5607 63.8238 28.7955 63.9582 29.0377C64.0902 29.2777 64.167 29.5489 64.287 29.7961C64.2889 29.8001 64.292 29.8036 64.2958 29.8059C64.2996 29.8083 64.3041 29.8096 64.3086 29.8096C64.3131 29.8096 64.3175 29.8083 64.3213 29.8059C64.3251 29.8036 64.3282 29.8001 64.3302 29.7961C64.3203 29.5216 64.2567 29.2517 64.143 29.0017Z" fill="#263238"/>
<path d="M65.7868 28.8C65.694 28.5486 65.5758 28.3074 65.434 28.08C65.1662 27.6449 64.828 27.2572 64.4332 26.9328C64.4068 26.9112 64.3708 26.952 64.3924 26.9784C64.7243 27.3665 65.0223 27.7824 65.2828 28.2216C65.4148 28.4424 65.5348 28.6704 65.6548 28.896C65.7748 29.1216 65.8564 29.376 66.0004 29.5872C66.0124 29.6064 66.0364 29.5872 66.034 29.5728C65.9773 29.3077 65.8945 29.0488 65.7868 28.8Z" fill="#263238"/>
<path d="M67.0968 28.2983C66.9672 28.0919 66.8256 27.8951 66.684 27.6959C66.5525 27.4953 66.3905 27.3163 66.204 27.1655C66.1752 27.1439 66.1464 27.1823 66.1632 27.2087C66.42 27.6023 66.6696 28.0031 66.9168 28.4087C67.1192 28.7904 67.2801 29.1927 67.3968 29.6087C67.3986 29.6122 67.4013 29.6152 67.4047 29.6173C67.4081 29.6193 67.412 29.6204 67.416 29.6204C67.4199 29.6204 67.4238 29.6193 67.4272 29.6173C67.4306 29.6152 67.4334 29.6122 67.4352 29.6087C67.4569 29.1478 67.3389 28.6911 67.0968 28.2983Z" fill="#263238"/>
<path d="M68.47 28.45C68.2409 28.0329 67.9347 27.6632 67.5676 27.3604C67.5436 27.3388 67.5028 27.382 67.5268 27.4036C67.8407 27.7379 68.1028 28.1173 68.3044 28.5292C68.5109 28.9392 68.6719 29.3705 68.7844 29.8156C68.7844 29.8348 68.8252 29.8372 68.8252 29.8156C68.8141 29.339 68.6925 28.8715 68.47 28.45Z" fill="#263238"/>
<path d="M69.8927 29.7747C69.8799 29.6702 69.8599 29.5668 69.8327 29.4651C69.779 29.2607 69.7034 29.0628 69.6071 28.8747C69.4036 28.4954 69.1624 28.1376 68.8871 27.8067C68.8655 27.7755 68.8175 27.8067 68.8415 27.8451C69.1008 28.1735 69.3192 28.5321 69.4919 28.9131C69.578 29.0995 69.6502 29.292 69.7079 29.4891C69.7367 29.5851 69.7583 29.6835 69.7775 29.7819C69.7884 29.8798 69.8093 29.9763 69.8399 30.0699C69.8417 30.0758 69.8453 30.0811 69.8503 30.0848C69.8553 30.0885 69.8613 30.0905 69.8675 30.0905C69.8737 30.0905 69.8798 30.0885 69.8847 30.0848C69.8897 30.0811 69.8934 30.0758 69.8951 30.0699C69.9114 29.9721 69.9106 29.8722 69.8927 29.7747Z" fill="#263238"/>
<path d="M70.8888 30.2094C70.8369 30.0458 70.7752 29.8855 70.704 29.7294C70.6331 29.5712 70.553 29.4174 70.464 29.2686C70.3704 29.1174 70.272 28.9686 70.1856 28.8126C70.184 28.8082 70.1814 28.8041 70.178 28.8008C70.1746 28.7975 70.1705 28.795 70.166 28.7936C70.1615 28.7921 70.1567 28.7916 70.152 28.7923C70.1473 28.7929 70.1428 28.7946 70.1389 28.7972C70.135 28.7999 70.1317 28.8033 70.1293 28.8074C70.1269 28.8115 70.1255 28.8161 70.1251 28.8208C70.1247 28.8255 70.1254 28.8303 70.1272 28.8347C70.1289 28.8391 70.1317 28.843 70.1352 28.8462C70.2295 28.9987 70.3098 29.1593 70.3752 29.3262C70.44 29.4822 70.5096 29.6358 70.5768 29.7894C70.644 29.943 70.7088 30.099 70.7736 30.255C70.8384 30.411 70.8888 30.5838 70.9704 30.735C70.9727 30.7406 70.9769 30.7451 70.9824 30.7476C70.9878 30.7501 70.994 30.7505 70.9998 30.7487C71.0055 30.7469 71.0103 30.743 71.0133 30.7378C71.0163 30.7326 71.0173 30.7265 71.016 30.7206C70.9939 30.5458 70.9512 30.3742 70.8888 30.2094Z" fill="#263238"/>
<path d="M65.7604 59.5879L59.9764 76.5415C59.7508 77.0335 59.9764 77.4679 60.4708 77.5015L69.4036 78.2407C69.678 78.2438 69.9476 78.1684 70.1806 78.0235C70.4136 77.8785 70.6003 77.6699 70.7188 77.4223L76.5028 60.4807C76.7284 59.9863 76.5028 59.5543 76.0084 59.5207L67.0756 58.7863C66.8029 58.7817 66.5346 58.8546 66.3018 58.9965C66.069 59.1384 65.8812 59.3435 65.7604 59.5879Z" fill="#37474F"/>
<path d="M66.8211 59.6641L61.0395 76.6177C60.7995 77.1097 61.0395 77.5441 61.5195 77.5777L70.4523 78.3121C70.7267 78.3152 70.9963 78.2398 71.2293 78.0948C71.4623 77.9498 71.649 77.7413 71.7675 77.4937L77.5515 60.5401C77.7771 60.0457 77.5515 59.6137 77.0571 59.5801L68.1243 58.8457C67.8522 58.8466 67.5859 58.9238 67.3556 59.0684C67.1252 59.2131 66.94 59.4195 66.8211 59.6641Z" fill="#455A64"/>
<path d="M69.2068 60.6579C69.1908 60.8074 69.1309 60.9488 69.0347 61.0643C68.9384 61.1798 68.8101 61.2641 68.666 61.3068C68.5218 61.3494 68.3683 61.3484 68.2247 61.3038C68.0812 61.2592 67.954 61.1731 67.8593 61.0564C67.7646 60.9396 67.7067 60.7974 67.6927 60.6478C67.6788 60.4981 67.7095 60.3476 67.781 60.2154C67.8525 60.0832 67.9616 59.9751 68.0944 59.9047C68.2273 59.8344 68.378 59.8051 68.5276 59.8203C68.6272 59.8305 68.7239 59.8603 68.8121 59.9079C68.9002 59.9556 68.9781 60.0202 69.0412 60.098C69.1043 60.1759 69.1514 60.2654 69.1798 60.3615C69.2082 60.4576 69.2174 60.5583 69.2068 60.6579Z" fill="#263238"/>
<path d="M29.1837 91.6928C32.7477 92.8928 37.8573 90.9344 51.3525 84.5744C53.2197 83.6936 50.5533 68.8472 48.5109 69.6824C45.9381 70.7384 36.1845 75.3872 35.5149 75.8192C29.8605 79.4408 26.7669 90.872 29.1837 91.6928Z" fill="#F7A9A0"/>
<path d="M43.4814 73.0516C43.4814 73.0516 47.7606 68.9716 50.6814 67.5316C54.579 65.5924 58.743 65.5252 60.4902 65.6116C64.1358 65.7724 72.843 68.6812 72.4422 71.3356C72.0798 73.7356 63.3222 70.3132 63.3222 70.3132C63.3222 70.3132 72.8166 72.3316 71.8494 75.1444C70.8822 77.9572 60.9606 73.3876 60.9606 73.3876C60.9606 73.3876 70.671 75.6796 69.2142 78.4276C68.1126 80.4988 58.8942 76.882 58.8942 76.882C58.8942 76.882 67.227 78.9124 66.1854 81.0916C65.0358 83.4916 56.3118 80.6956 56.3118 80.6956C52.7334 85.7908 48.9438 86.7532 46.1694 87.118C45.483 87.1996 43.4814 73.0516 43.4814 73.0516Z" fill="#F7A9A0"/>
<path d="M60.0837 69.3891C61.2069 69.5859 62.3469 69.7755 63.4437 70.0731C64.5405 70.3707 65.6397 70.7043 66.7101 71.1003C69.3357 72.0747 70.8261 73.0947 70.7277 73.0419C68.3877 71.7891 64.4565 70.6683 63.3525 70.3731C62.2485 70.0779 61.1661 69.7251 60.0669 69.4299C60.0429 69.4227 60.0573 69.3843 60.0837 69.3891Z" fill="#263238"/>
<path d="M58.9437 73.3521C60.3669 73.6641 61.7925 73.9233 63.2037 74.3001C64.6149 74.6769 65.9061 75.1521 67.2837 75.6225C67.3893 75.6585 67.3341 75.7041 67.2285 75.6705C65.8341 75.2577 64.5165 74.9793 63.1197 74.5809C61.7229 74.1825 60.3405 73.7313 58.9341 73.3809C58.9101 73.3785 58.9221 73.3473 58.9437 73.3521Z" fill="#263238"/>
<path d="M57.3598 76.575C59.5606 76.9422 61.6798 77.715 63.763 78.5238C63.8662 78.5646 63.7894 78.615 63.6814 78.579C61.5646 77.8926 59.911 77.3358 57.3454 76.659C57.2998 76.6398 57.3046 76.5606 57.3598 76.575Z" fill="#263238"/>
<path d="M39.2598 73.9589C38.247 74.5061 37.2342 75.0533 36.2454 75.6389C35.2566 76.2245 34.2654 76.8053 33.5094 77.6693C32.3742 78.9616 31.3932 80.3815 30.5862 81.9005C30.307 82.4037 30.0562 82.9221 29.835 83.4533C30.649 81.1228 31.9452 78.99 33.639 77.1941C35.2686 75.7541 37.3038 74.8565 39.2598 73.9541V73.9589Z" fill="#263238"/>
<path d="M61.4375 9.16309V21.1871H63.1247V24.1055L66.0407 21.1871H82.0463V9.16309H61.4375Z" fill="white"/>
<path d="M61.4397 9.16355L61.4757 15.1923C61.4949 17.1971 61.5053 19.1971 61.5069 21.1923L61.4397 21.1203H63.1965V21.1899V24.1059L63.0645 24.0531L65.9781 21.1203L66.0045 21.0963H66.0405C70.7517 21.0963 77.3997 21.0603 82.0461 21.0675L81.9309 21.1827L81.9597 9.15875L82.0461 9.24755C76.9077 9.24755 66.5733 9.19235 61.4373 9.15875L61.4397 9.16355ZM61.4397 9.16355C66.5733 9.13235 76.9125 9.08195 82.0485 9.07715H82.1349V9.16355L82.1637 21.1875V21.3027H82.0485C77.4261 21.3195 70.7349 21.2763 66.0429 21.2763L66.1053 21.2499L63.1821 24.1587L63.0477 24.2931V24.1035V21.1875L63.1197 21.2595H61.4397H61.3725C61.3605 17.7363 61.4301 12.7371 61.4397 9.16835V9.16355Z" fill="#263238"/>
<path d="M75.6387 15.176C75.6387 15.3692 75.696 15.5581 75.8033 15.7187C75.9106 15.8793 76.0632 16.0045 76.2417 16.0785C76.4202 16.1524 76.6166 16.1717 76.806 16.134C76.9955 16.0964 77.1696 16.0033 77.3062 15.8667C77.4428 15.7301 77.5358 15.5561 77.5735 15.3666C77.6112 15.1771 77.5919 14.9807 77.5179 14.8022C77.444 14.6237 77.3188 14.4712 77.1582 14.3638C76.9975 14.2565 76.8087 14.1992 76.6155 14.1992C76.3564 14.1992 76.108 14.3021 75.9248 14.4853C75.7416 14.6685 75.6387 14.917 75.6387 15.176Z" fill="#263238"/>
<path d="M70.7637 15.176C70.7637 15.3692 70.821 15.5581 70.9283 15.7187C71.0356 15.8793 71.1882 16.0045 71.3667 16.0785C71.5452 16.1524 71.7416 16.1717 71.931 16.134C72.1205 16.0964 72.2946 16.0033 72.4312 15.8667C72.5678 15.7301 72.6608 15.5561 72.6985 15.3666C72.7362 15.1771 72.7168 14.9807 72.6429 14.8022C72.569 14.6237 72.4438 14.4712 72.2832 14.3638C72.1225 14.2565 71.9337 14.1992 71.7405 14.1992C71.4814 14.1992 71.233 14.3021 71.0498 14.4853C70.8666 14.6685 70.7637 14.917 70.7637 15.176Z" fill="#263238"/>
<path d="M65.8916 15.176C65.8916 15.3692 65.9489 15.5581 66.0562 15.7187C66.1636 15.8793 66.3161 16.0045 66.4946 16.0785C66.6731 16.1524 66.8695 16.1717 67.059 16.134C67.2485 16.0964 67.4225 16.0033 67.5591 15.8667C67.6957 15.7301 67.7887 15.5561 67.8264 15.3666C67.8641 15.1771 67.8448 14.9807 67.7708 14.8022C67.6969 14.6237 67.5717 14.4712 67.4111 14.3638C67.2505 14.2565 67.0616 14.1992 66.8684 14.1992C66.6093 14.1992 66.3609 14.3021 66.1777 14.4853C65.9945 14.6685 65.8916 14.917 65.8916 15.176Z" fill="#263238"/>
<path d="M55.0465 47.9766V60.0006H53.3593V62.9166L50.4433 60.0006H29.6377V47.9766H55.0465Z" fill="white"/>
<path d="M55.0459 47.9765C55.0459 51.5765 55.1251 56.5277 55.1131 60.0677H55.0459H53.3659L53.4355 59.9957V62.9117V63.1013L53.3035 62.9669L50.3803 60.0581C47.3107 60.1397 38.0491 60.0821 34.8379 60.1133H29.6371H29.5195V60.0005L29.5435 47.9765V47.8877H29.6323C35.9659 47.8997 48.7099 47.9381 55.0411 47.9765H55.0459ZM55.0459 47.9765C48.7147 48.0173 35.9659 48.0557 29.6371 48.0653L29.7259 47.9765L29.7595 60.0005L29.6491 59.8877C32.2459 59.8877 37.4563 59.8877 40.0507 59.8877C40.1659 59.9141 50.4259 59.8589 50.5147 59.9333L53.4259 62.8565L53.2915 62.9117L53.2795 60.0005V59.9285H53.3515H55.0315L54.9643 59.9957C54.9643 58.0005 54.9739 56.0005 54.9931 53.9957L55.0315 47.9669L55.0459 47.9765Z" fill="#263238"/>
<path d="M44.3471 50.4414H32.2295V51.0558H44.3471V50.4414Z" fill="#A6A6A6"/>
<path d="M32.2295 52.7262C38.5871 52.5654 45.3047 52.5702 51.6695 52.7262C45.3047 52.8846 38.5919 52.8894 32.2295 52.7262Z" fill="#7D7D7D"/>
<path d="M32.2295 54.3602C38.7383 54.2042 45.9407 54.2042 52.4519 54.3602C45.9407 54.5186 38.7407 54.5186 32.2295 54.3602Z" fill="#7D7D7D"/>
<path d="M32.2295 55.9974C37.4759 55.8342 42.7583 55.8342 48.0071 55.9974C42.7583 56.1582 37.4783 56.1582 32.2295 55.9974Z" fill="#7D7D7D"/>
<path d="M32.2295 57.6313C37.4759 57.4705 42.7583 57.4705 48.0071 57.6313C42.7583 57.7921 37.4783 57.7921 32.2295 57.6313Z" fill="#7D7D7D"/>
<path d="M73.7881 24.6719V37.6559H75.6097V40.8071L78.7585 37.6559H103.819V24.6719H73.7881Z" fill="white"/>
<path d="M73.7884 24.6728L73.8244 31.1792C73.8436 33.3392 73.8532 35.4992 73.8556 37.6592L73.7884 37.592H75.682V37.6616V40.8128L75.55 40.7576L78.694 37.6016L78.718 37.5752H78.754C86.134 37.5608 96.5404 37.5344 103.815 37.5512L103.704 37.6616L103.726 24.6776L103.815 24.7664C96.3292 24.7664 81.2692 24.7112 73.7836 24.6776L73.7884 24.6728ZM73.7884 24.6728C81.2716 24.6392 96.3364 24.5888 103.82 24.584H103.92V24.6728L103.942 37.6568V37.7672H103.829C96.5932 37.7912 86.1148 37.7456 78.7684 37.7432L78.8308 37.7168L75.6748 40.8608L75.5404 40.9928V40.8008V37.6496L75.6124 37.7216H73.7908H73.7236C73.7044 33.92 73.786 28.52 73.7908 24.6704L73.7884 24.6728Z" fill="#263238"/>
<path d="M83.51 27.4346H76.1084V34.8362H83.51V27.4346Z" fill="#455A64"/>
<path d="M78.749 32.4625V29.8105L81.473 31.1353L78.749 32.4625Z" fill="white"/>
<path d="M99.2881 27.4346H85.8145V28.049H99.2881V27.4346Z" fill="#A6A6A6"/>
<path d="M85.8145 29.7192C90.6817 29.5584 95.5825 29.5584 100.454 29.7192C95.5873 29.88 90.6865 29.88 85.8145 29.7192Z" fill="#7D7D7D"/>
<path d="M85.8145 31.354C90.9409 31.1932 96.1057 31.1932 101.234 31.354C96.1057 31.5148 90.9433 31.5148 85.8145 31.354Z" fill="#7D7D7D"/>
<path d="M85.8145 32.9888C89.4625 32.828 93.1393 32.828 96.7897 32.9888C93.1393 33.1496 89.4625 33.1496 85.8145 32.9888Z" fill="#7D7D7D"/>
<path d="M85.8145 34.6226C89.4625 34.4618 93.1393 34.4618 96.7897 34.6226C93.1393 34.7858 89.4625 34.7858 85.8145 34.6226Z" fill="#7D7D7D"/>
<path d="M48.1342 29.1338V42.1202H46.3102V45.269L43.1614 42.1202H18.1006V29.1338H48.1342Z" fill="white"/>
<path d="M48.132 29.1336C48.132 33.0072 48.216 38.3664 48.1992 42.1872H48.132H46.3104L46.3824 42.1152V45.264V45.4536L46.248 45.3192L43.092 42.1776L43.1544 42.2016C35.772 42.2016 25.3704 42.252 18.0936 42.2256H18V42.1152V29.1336V29.04H18.0912C25.5792 29.0544 40.6512 29.0904 48.1224 29.1288L48.132 29.1336ZM48.132 29.1336C40.6488 29.1744 25.572 29.2128 18.1008 29.2248L18.1896 29.1336L18.2112 42.12L18.1008 42.0096C25.3344 41.9928 35.8176 42.0216 43.1616 42.0336H43.2L43.224 42.0576L46.368 45.2136L46.236 45.2688V42.12V42.048H46.308H48.1296L48.0624 42.1152C48.0624 39.96 48.0728 37.8 48.0936 35.6352L48.1296 29.1264L48.132 29.1336Z" fill="#263238"/>
<path d="M28.0871 31.8984H20.6855V39.3H28.0871V31.8984Z" fill="#6A83AD"/>
<path opacity="0.2" d="M21.6813 34.2293C21.6457 34.4091 21.6688 34.5955 21.7473 34.7611C21.8257 34.9267 21.9553 35.0627 22.1169 35.1491C22.2786 35.2354 22.4637 35.2675 22.645 35.2405C22.8262 35.2136 22.994 35.1291 23.1236 34.9996C23.2532 34.87 23.3377 34.7022 23.3646 34.5209C23.3915 34.3397 23.3594 34.1546 23.2731 33.9929C23.1868 33.8313 23.0508 33.7017 22.8851 33.6232C22.7195 33.5448 22.5331 33.5217 22.3533 33.5573C22.1874 33.5902 22.0349 33.6716 21.9153 33.7913C21.7957 33.9109 21.7142 34.0634 21.6813 34.2293Z" fill="white"/>
<path opacity="0.2" d="M22.7373 39.3003H28.0893L25.4133 36.0459L22.7373 39.3003Z" fill="white"/>
<path d="M20.6855 39.2999H25.1015L22.8935 37.1807L20.6855 39.2999Z" fill="#6A83AD"/>
<path opacity="0.5" d="M20.6855 39.2999H25.1015L22.8935 37.1807L20.6855 39.2999Z" fill="white"/>
<path d="M43.8652 31.8984H30.3916V32.5128H43.8652V31.8984Z" fill="#A6A6A6"/>
<path d="M30.3916 34.1839C35.2588 34.0207 40.1596 34.0207 45.0316 34.1839C40.162 34.3447 35.2612 34.3447 30.3916 34.1839Z" fill="#7D7D7D"/>
<path d="M30.3916 35.8179C35.5204 35.6571 40.6828 35.6571 45.8116 35.8179C40.6828 35.9787 35.5204 35.9787 30.3916 35.8179Z" fill="#7D7D7D"/>
<path d="M30.3916 37.4526C34.0396 37.2918 37.7164 37.2918 41.3668 37.4526C37.7164 37.6134 34.0396 37.6134 30.3916 37.4526Z" fill="#7D7D7D"/>
<path d="M30.3916 39.0864C34.0396 38.9256 37.7164 38.9256 41.3668 39.0864C37.7164 39.2472 34.0396 39.2472 30.3916 39.0864Z" fill="#7D7D7D"/>
<path d="M76.1953 41.8682V54.8522H78.0193V58.0034L81.1681 54.8522H88.4881V41.8682H76.1953Z" fill="white"/>
<path d="M76.1953 41.8685L76.2673 54.8525L76.1953 54.7829H78.0193H78.0961V54.8597L78.1081 58.0109L77.9569 57.9485L81.0961 54.7877L81.1249 54.7589L88.4881 54.7445L88.3729 54.8597C88.3729 51.6269 88.3729 45.1109 88.3921 41.8757L88.4881 41.9717L76.1953 41.8757V41.8685ZM76.1953 41.8685C79.3153 41.8397 85.4713 41.7845 88.5841 41.7725C88.5841 45.0605 88.6057 51.5669 88.6033 54.8525V54.9605H88.4881H81.1681L81.2401 54.9317L78.0817 58.0709L77.9281 58.2221V58.0085V54.8573L78.0073 54.9365H76.1833H76.1113V54.8645L76.1833 41.8805L76.1953 41.8685Z" fill="#263238"/>
<path d="M85.9202 44.6309H78.5186V52.0325H85.9202V44.6309Z" fill="#6A83AD"/>
<path d="M80.4531 47.5616C80.4527 47.9025 80.5533 48.2359 80.7424 48.5196C80.9314 48.8033 81.2004 49.0246 81.5152 49.1554C81.8301 49.2862 82.1766 49.3206 82.511 49.2544C82.8455 49.1882 83.1527 49.0243 83.394 48.7834C83.6352 48.5425 83.7995 48.2354 83.8662 47.9011C83.9329 47.5667 83.8989 47.2201 83.7686 46.9051C83.6382 46.5901 83.4174 46.3209 83.1339 46.1314C82.8505 45.9419 82.5172 45.8408 82.1763 45.8408C81.7197 45.8408 81.2818 46.022 80.9587 46.3447C80.6356 46.6673 80.4538 47.105 80.4531 47.5616Z" fill="white"/>
<path d="M85.1402 52.0352H79.2002C79.2699 51.2971 79.6125 50.6115 80.1608 50.1125C80.7092 49.6135 81.424 49.3369 82.1654 49.3369C82.9068 49.3369 83.6216 49.6135 84.17 50.1125C84.7183 50.6115 85.0609 51.2971 85.1306 52.0352H85.1402Z" fill="white"/>
<path d="M52.0604 11.2031V24.1871H50.2364V27.3383L47.0876 24.1871H39.7676V11.2031H52.0604Z" fill="white"/>
<path d="M52.0603 11.2034L52.1323 24.1874V24.2594H52.0603H50.2387L50.3155 24.1802V27.3314V27.545L50.1619 27.3938L47.0155 24.2594L47.0875 24.2906L39.7675 24.305H39.6523V24.1874C39.6523 20.9018 39.6523 14.3906 39.6715 11.1074C42.7915 11.1266 48.9475 11.1674 52.0603 11.2034ZM52.0603 11.2034L39.7675 11.2994L39.8635 11.2034C39.8779 14.441 39.8827 20.9522 39.8851 24.1874L39.7675 24.0722C39.8131 24.0722 47.0923 24.0866 47.1307 24.0866L47.1595 24.1154L50.3011 27.2738L50.1475 27.3386L50.1595 24.1874V24.1106H50.2387H52.0603C51.8683 24.5498 52.1203 11.1074 52.0603 11.1986V11.2034Z" fill="#263238"/>
<path d="M42.3386 21.3672H49.7402V13.9656H42.3386V21.3672Z" fill="#455A64"/>
<path d="M47.5874 16.8005C47.5106 16.0253 46.9754 15.2549 46.037 15.2549C45.0986 15.2549 44.5658 16.0253 44.489 16.8005C44.3714 18.0005 45.1754 19.0829 46.037 20.0717C46.901 19.0877 47.7074 18.0005 47.5874 16.8005ZM46.037 17.6621C45.8691 17.6616 45.7051 17.6114 45.5657 17.5177C45.4263 17.4241 45.3178 17.2912 45.2538 17.136C45.1899 16.9807 45.1734 16.8099 45.2064 16.6453C45.2395 16.4806 45.3206 16.3295 45.4395 16.2109C45.5584 16.0923 45.7098 16.0116 45.8746 15.979C46.0393 15.9464 46.21 15.9634 46.3651 16.0278C46.5202 16.0922 46.6528 16.2011 46.746 16.3407C46.8393 16.4804 46.889 16.6446 46.889 16.8125C46.89 16.9247 46.8686 17.0361 46.8262 17.14C46.7837 17.244 46.721 17.3384 46.6418 17.4179C46.5625 17.4974 46.4682 17.5604 46.3644 17.6031C46.2606 17.6458 46.1493 17.6675 46.037 17.6669V17.6621Z" fill="white"/>
<path d="M107.426 109.639C77.042 109.785 42.9572 109.788 12.5732 109.639C42.9572 109.49 77.042 109.493 107.426 109.639Z" fill="#263238"/>
</svg>
