<svg width="153" height="185" viewBox="0 0 153 185" fill="none" xmlns="http://www.w3.org/2000/svg">
<path d="M107.555 108.998C111.249 130.751 128.113 148.297 135.471 155.03C143.458 162.338 152.082 161.104 152.888 146.298C153.509 134.868 151.532 121.857 147.666 110.227C144.276 100.032 138.546 90.3396 130.422 84.1464C128.387 82.5947 126.015 81.6594 123.562 81.4013C117.297 80.7454 111.468 84.6413 109.254 90.9784C107.286 96.6127 106.532 102.98 107.554 108.998H107.555Z" fill="url(#paint0_linear_52_5617)"/>
<path d="M45.4464 108.997C44.1886 116.407 41.4022 123.328 37.9837 129.501C37.658 130.091 37.3258 130.672 36.9883 131.248C30.491 142.339 22.1437 150.809 17.5308 155.029C9.54469 162.338 0.919995 161.102 0.112672 146.296C-0.508676 134.867 1.46932 121.856 5.33501 110.225C5.48013 109.787 5.63063 109.35 5.78543 108.914C6.04235 108.186 6.31218 107.46 6.5949 106.74C10.0704 97.8519 15.3873 89.6282 22.579 84.1453C24.6129 82.5947 26.9844 81.6583 29.4375 81.4002C35.7037 80.7443 41.5312 84.6402 43.7457 90.9773C45.714 96.6116 46.4676 102.98 45.4453 108.997H45.4464Z" fill="url(#paint1_linear_52_5617)"/>
<path opacity="0.1" d="M37.9838 129.502C37.658 130.092 37.3259 130.673 36.9883 131.249C24.6764 126.834 14.2339 119.362 5.78653 108.914C6.04345 108.186 6.31328 107.46 6.596 106.74C11.2862 112.725 16.6397 117.766 22.5726 121.776C27.294 124.965 32.4465 127.547 37.9838 129.502Z" fill="#131E2E"/>
<path opacity="0.1" d="M115.019 129.502C115.345 130.092 115.677 130.673 116.015 131.249C128.326 126.834 138.769 119.362 147.216 108.914C146.959 108.186 146.69 107.46 146.407 106.74C141.717 112.725 136.363 117.766 130.43 121.776C125.709 124.965 120.556 127.547 115.019 129.502Z" fill="#131E2E"/>
<path d="M128.457 111.808C128.457 119.578 127.268 127.545 125.098 135.221C99.4177 157.572 59.2128 156.784 28.7775 135.198C26.6114 127.529 25.4246 119.57 25.4246 111.808C25.4246 77.5833 48.4897 71.9661 76.9406 71.9661C105.391 71.9661 128.457 77.5833 128.457 111.808Z" fill="url(#paint2_linear_52_5617)"/>
<path d="M125.097 135.221C117.706 161.353 98.9328 184.097 76.9406 184.097C54.9483 184.097 36.1627 161.339 28.7764 135.196C29.8987 135.149 31.021 135.052 32.1347 134.901C40.5831 133.757 48.5789 129.575 54.3054 123.307C58.0206 119.242 60.7791 114.371 64.6501 110.452C64.6824 110.419 64.7135 110.388 64.7458 110.356C71.2302 103.863 81.8296 103.863 88.314 110.356C88.3463 110.388 88.3774 110.419 88.4097 110.452C92.2808 114.371 95.0392 119.242 98.7544 123.307C104.481 129.576 112.477 133.757 120.925 134.901C122.308 135.089 123.701 135.194 125.095 135.22L125.097 135.221Z" fill="url(#paint3_linear_52_5617)"/>
<path d="M17.8662 54.9618C10.2273 54.9618 4.03534 48.5031 4.03534 40.5364C4.03534 32.5697 10.2273 26.111 17.8662 26.111V54.9607V54.9618Z" fill="url(#paint4_linear_52_5617)"/>
<path d="M135.198 54.9618C142.837 54.9618 149.029 48.5031 149.029 40.5364C149.029 32.5697 142.837 26.111 135.198 26.111V54.9607V54.9618Z" fill="url(#paint5_linear_52_5617)"/>
<path d="M138.894 43.3648C138.894 73.5199 110.96 81.0728 76.5009 81.0728C42.0429 81.0728 14.1081 73.5199 14.1081 43.3648V37.7081C14.1091 7.55292 42.0429 0 76.5009 0C110.959 0 138.894 7.55292 138.894 37.7081V43.3648Z" fill="url(#paint6_linear_52_5617)"/>
<path d="M126.151 46.8052C126.151 63.5311 103.936 67.7203 76.532 67.7203C49.1282 67.7203 26.9134 63.5311 26.9134 46.8052V43.6676C26.9134 26.9418 49.1282 22.7526 76.532 22.7526C103.936 22.7526 126.151 26.9418 126.151 43.6676V46.8052Z" fill="url(#paint7_linear_52_5617)"/>
<path d="M63.0892 48.4796C63.3945 49.6602 62.2991 50.7299 61.1102 50.4207C58.3732 49.7082 55.5675 49.352 52.7607 49.352C49.9538 49.352 47.1481 49.7082 44.4112 50.4207C43.2233 50.7299 42.1279 49.6602 42.4321 48.4796C43.6114 43.9118 47.7888 40.5364 52.7607 40.5364C57.7325 40.5364 61.9089 43.9129 63.0892 48.4796Z" fill="url(#paint8_radial_52_5617)"/>
<path d="M89.9738 48.4796C89.6685 49.6602 90.764 50.7299 91.9529 50.4207C94.6898 49.7082 97.4956 49.352 100.302 49.352C103.109 49.352 105.915 49.7082 108.652 50.4207C109.84 50.7299 110.935 49.6602 110.631 48.4796C109.452 43.9118 105.274 40.5364 100.302 40.5364C95.3305 40.5364 91.1542 43.9129 89.9738 48.4796Z" fill="url(#paint9_radial_52_5617)"/>
<path opacity="0.76" d="M126.151 43.6687V46.8053C126.151 46.9919 126.147 47.1775 126.142 47.3609C125.656 31.0958 103.631 27.0004 76.5331 27.0004C49.4357 27.0004 27.409 31.0969 26.9231 47.3609C26.9166 47.1775 26.9145 46.9919 26.9145 46.8053V43.6687C26.9145 26.9418 49.1293 22.7537 76.5342 22.7537C103.939 22.7537 126.152 26.9418 126.152 43.6687H126.151Z" fill="#131E2E"/>
<path d="M104.33 2.27697C101.353 5.12558 99.3822 8.97136 98.4641 13.921C98.175 15.4866 96.7829 16.6117 95.18 16.6117H57.8217C56.2189 16.6117 54.8268 15.4855 54.5355 13.921C53.6185 8.97136 51.648 5.12451 48.6703 2.27803C57.0488 0.636698 66.5002 0 76.5009 0C86.5016 0 95.953 0.636698 104.33 2.27697Z" fill="url(#paint10_radial_52_5617)"/>
<path d="M104.33 2.27695C101.353 5.12555 99.3822 8.97134 98.4641 13.9209C98.175 15.4866 96.7829 16.6117 95.18 16.6117H57.8217C56.2189 16.6117 54.8268 15.4855 54.5355 13.9209C53.6185 8.97134 51.648 5.12449 48.6703 2.27801C52.6876 4.64563 55.0332 6.65811 55.8932 11.3016C56.1641 12.7702 57.4713 13.826 58.9741 13.826H94.0244C95.5283 13.826 96.8345 12.7691 97.1054 11.3016C97.9664 6.65704 100.401 3.53861 104.328 2.27588L104.33 2.27695Z" fill="url(#paint11_linear_52_5617)"/>
<path d="M76.532 142.248C83.9272 142.248 89.9222 136.301 89.9222 128.964C89.9222 121.627 83.9272 115.68 76.532 115.68C69.1369 115.68 63.1419 121.627 63.1419 128.964C63.1419 136.301 69.1369 142.248 76.532 142.248Z" fill="url(#paint12_linear_52_5617)"/>
<path d="M76.532 139.588C82.4465 139.588 87.2411 134.831 87.2411 128.964C87.2411 123.096 82.4465 118.339 76.532 118.339C70.6175 118.339 65.8229 123.096 65.8229 128.964C65.8229 134.831 70.6175 139.588 76.532 139.588Z" fill="url(#paint13_radial_52_5617)"/>
<path opacity="0.1" d="M87.2411 128.964C87.2411 129.304 87.225 129.641 87.1928 129.973C86.6811 124.577 82.1037 120.356 76.532 120.356C70.9603 120.356 66.383 124.577 65.8713 129.973C65.838 129.641 65.8229 129.304 65.8229 128.964C65.8229 123.095 70.6174 118.339 76.532 118.339C82.4467 118.339 87.2411 123.095 87.2411 128.964Z" fill="#131E2E"/>
<defs>
<linearGradient id="paint0_linear_52_5617" x1="143.066" y1="119.195" x2="114.685" y2="122.581" gradientUnits="userSpaceOnUse">
<stop stop-color="#E6E6E6"/>
<stop offset="1" stop-color="#A5B0B5"/>
</linearGradient>
<linearGradient id="paint1_linear_52_5617" x1="8.54065" y1="120.357" x2="39.8682" y2="120.357" gradientUnits="userSpaceOnUse">
<stop stop-color="#E6E6E6"/>
<stop offset="1" stop-color="#A5B0B5"/>
</linearGradient>
<linearGradient id="paint2_linear_52_5617" x1="76.9406" y1="125.814" x2="76.9406" y2="83.5578" gradientUnits="userSpaceOnUse">
<stop stop-color="#E6E6E6"/>
<stop offset="1" stop-color="#A5B0B5"/>
</linearGradient>
<linearGradient id="paint3_linear_52_5617" x1="76.9373" y1="159.934" x2="76.9373" y2="110.065" gradientUnits="userSpaceOnUse">
<stop stop-color="#E6E6E6"/>
<stop offset="1" stop-color="#A5B0B5"/>
</linearGradient>
<linearGradient id="paint4_linear_52_5617" x1="4.03534" y1="40.5364" x2="17.8662" y2="40.5364" gradientUnits="userSpaceOnUse">
<stop stop-color="#E6E6E6"/>
<stop offset="1" stop-color="#A5B0B5"/>
</linearGradient>
<linearGradient id="paint5_linear_52_5617" x1="135.198" y1="40.5364" x2="149.028" y2="40.5364" gradientUnits="userSpaceOnUse">
<stop stop-color="#E6E6E6"/>
<stop offset="1" stop-color="#A5B0B5"/>
</linearGradient>
<linearGradient id="paint6_linear_52_5617" x1="14.1091" y1="40.5364" x2="138.894" y2="40.5364" gradientUnits="userSpaceOnUse">
<stop stop-color="#E6E6E6"/>
<stop offset="1" stop-color="#A5B0B5"/>
</linearGradient>
<linearGradient id="paint7_linear_52_5617" x1="76.532" y1="27.8259" x2="76.532" y2="64.99" gradientUnits="userSpaceOnUse">
<stop stop-color="#304059"/>
<stop offset="1" stop-color="#131E2E"/>
</linearGradient>
<radialGradient id="paint8_radial_52_5617" cx="0" cy="0" r="1" gradientUnits="userSpaceOnUse" gradientTransform="translate(52.7617 45.6161) scale(10.6005 5.57386)">
<stop stop-color="#82FFF8"/>
<stop offset="1" stop-color="#5792AD"/>
</radialGradient>
<radialGradient id="paint9_radial_52_5617" cx="0" cy="0" r="1" gradientUnits="userSpaceOnUse" gradientTransform="translate(100.302 45.6161) rotate(180) scale(10.6005 5.57386)">
<stop stop-color="#82FFF8"/>
<stop offset="1" stop-color="#5792AD"/>
</radialGradient>
<radialGradient id="paint10_radial_52_5617" cx="0" cy="0" r="1" gradientUnits="userSpaceOnUse" gradientTransform="translate(76.5009 11.8966) scale(32.8433 11.4042)">
<stop stop-color="#82FFF8"/>
<stop offset="1" stop-color="#5792AD"/>
</radialGradient>
<linearGradient id="paint11_linear_52_5617" x1="76.5009" y1="3.47355" x2="76.5009" y2="16.3664" gradientUnits="userSpaceOnUse">
<stop stop-color="#5792AD" stop-opacity="0"/>
<stop offset="1" stop-color="#5792AD"/>
</linearGradient>
<linearGradient id="paint12_linear_52_5617" x1="67.3655" y1="120.395" x2="85.5701" y2="137.686" gradientUnits="userSpaceOnUse">
<stop stop-color="#E6E6E6"/>
<stop offset="0.2" stop-color="#A5B0B5"/>
<stop offset="0.37" stop-color="#CCD1D3"/>
<stop offset="0.57" stop-color="#B5BEC2"/>
<stop offset="0.74" stop-color="white"/>
<stop offset="1" stop-color="#A5B0B5"/>
</linearGradient>
<radialGradient id="paint13_radial_52_5617" cx="0" cy="0" r="1" gradientUnits="userSpaceOnUse" gradientTransform="translate(76.532 128.726) scale(10.8381 10.7524)">
<stop stop-color="#82FFF8"/>
<stop offset="1" stop-color="#5792AD"/>
</radialGradient>
</defs>
</svg>
