<svg width="311" height="304" viewBox="0 0 311 304" fill="none" xmlns="http://www.w3.org/2000/svg">
<path d="M28.6596 158.872L109.321 40.1115" stroke="#0A3163" stroke-width="0.75" stroke-miterlimit="10"/>
<path d="M109.321 40.1115L108.925 138.096" stroke="#0A3163" stroke-width="0.75" stroke-miterlimit="10"/>
<path d="M109.321 40.1115L190.49 109.894" stroke="#0A3163" stroke-width="0.75" stroke-miterlimit="10"/>
<path d="M109.321 40.1115L266.937 84.3104" stroke="#0A3163" stroke-width="0.75" stroke-miterlimit="10"/>
<path d="M266.937 84.3103L190.49 109.894" stroke="#0A3163" stroke-width="0.75" stroke-miterlimit="10"/>
<path d="M190.49 109.894L108.925 138.096" stroke="#0A3163" stroke-width="0.75" stroke-miterlimit="10"/>
<path d="M108.925 138.096L28.6596 158.872" stroke="#0A3163" stroke-width="0.75" stroke-miterlimit="10"/>
<path d="M28.6596 158.872L74.0754 219.874" stroke="#0A3163" stroke-width="0.75" stroke-miterlimit="10"/>
<path d="M74.0754 219.874L108.925 138.096" stroke="#0A3163" stroke-width="0.75" stroke-miterlimit="10"/>
<path d="M190.49 109.894L177.322 180.924" stroke="#0A3163" stroke-width="0.75" stroke-miterlimit="10"/>
<path d="M177.322 180.924L108.925 138.095" stroke="#0A3163" stroke-width="0.75" stroke-miterlimit="10"/>
<path d="M190.49 109.894L245.815 163.195" stroke="#0A3163" stroke-width="0.75" stroke-miterlimit="10"/>
<path d="M245.815 163.195L266.937 84.3104" stroke="#0A3163" stroke-width="0.75" stroke-miterlimit="10"/>
<path d="M245.815 163.195L177.322 180.924" stroke="#0A3163" stroke-width="0.75" stroke-miterlimit="10"/>
<path d="M177.322 180.924L74.0754 219.874" stroke="#0A3163" stroke-width="0.75" stroke-miterlimit="10"/>
<path d="M74.0754 219.874L157.397 275.58" stroke="#0A3163" stroke-width="0.75" stroke-miterlimit="10"/>
<path d="M157.397 275.58L177.322 180.924" stroke="#0A3163" stroke-width="0.75" stroke-miterlimit="10"/>
<path d="M177.322 180.924L197.784 259.977" stroke="#0A3163" stroke-width="0.75" stroke-miterlimit="10"/>
<path d="M197.784 259.977L245.815 163.195" stroke="#0A3163" stroke-width="0.75" stroke-miterlimit="10"/>
<path d="M157.397 275.58L197.784 259.977" stroke="#0A3163" stroke-width="0.75" stroke-miterlimit="10"/>
<path d="M110.331 44.0157C112.487 43.4576 113.783 41.2572 113.225 39.101C112.667 36.9448 110.466 35.6493 108.31 36.2074C106.154 36.7655 104.858 38.9659 105.416 41.1221C105.975 43.2783 108.175 44.5738 110.331 44.0157Z" fill="#64A2F2"/>
<path d="M29.6702 162.776C31.8264 162.218 33.1219 160.017 32.5638 157.861C32.0057 155.705 29.8053 154.409 27.6491 154.968C25.4929 155.526 24.1973 157.726 24.7555 159.882C25.3136 162.038 27.514 163.334 29.6702 162.776Z" fill="#64A2F2"/>
<path d="M110.542 141.843C112.698 141.285 113.994 139.084 113.436 136.928C112.877 134.772 110.677 133.476 108.521 134.035C106.365 134.593 105.069 136.793 105.627 138.949C106.185 141.105 108.386 142.401 110.542 141.843Z" fill="#64A2F2"/>
<path d="M191.501 113.798C193.657 113.24 194.952 111.039 194.394 108.883C193.836 106.727 191.636 105.431 189.479 105.99C187.323 106.548 186.028 108.748 186.586 110.904C187.144 113.061 189.344 114.356 191.501 113.798Z" fill="#64A2F2"/>
<path d="M266.929 88.4782C269.085 87.9201 270.381 85.7197 269.822 83.5635C269.264 81.4073 267.064 80.1118 264.908 80.6699C262.752 81.228 261.456 83.4284 262.014 85.5846C262.572 87.7408 264.773 89.0363 266.929 88.4782Z" fill="#64A2F2"/>
<path d="M246.013 167.31C248.169 166.752 249.464 164.551 248.906 162.395C248.348 160.239 246.148 158.943 243.992 159.502C241.835 160.06 240.54 162.26 241.098 164.416C241.656 166.572 243.857 167.868 246.013 167.31Z" fill="#64A2F2"/>
<path d="M178.333 184.828C180.489 184.27 181.784 182.07 181.226 179.914C180.668 177.757 178.468 176.462 176.312 177.02C174.155 177.578 172.86 179.779 173.418 181.935C173.976 184.091 176.176 185.386 178.333 184.828Z" fill="#64A2F2"/>
<path d="M77.9796 218.864C78.5382 221.022 77.2442 223.22 75.086 223.778C72.9278 224.337 70.7299 223.043 70.1713 220.885C69.6126 218.726 70.9067 216.529 73.0649 215.97C75.2231 215.411 77.4209 216.705 77.9796 218.864Z" fill="#64A2F2"/>
<path d="M158.169 278.563C160.325 278.005 161.621 275.804 161.063 273.648C160.505 271.492 158.304 270.196 156.148 270.754C153.992 271.312 152.696 273.513 153.254 275.669C153.813 277.825 156.013 279.121 158.169 278.563Z" fill="#64A2F2"/>
<path d="M198.795 263.881C200.951 263.323 202.247 261.123 201.688 258.967C201.13 256.81 198.93 255.515 196.774 256.073C194.618 256.631 193.322 258.832 193.88 260.988C194.438 263.144 196.639 264.44 198.795 263.881Z" fill="#64A2F2"/>
</svg>
