<svg width="296" height="291" viewBox="0 0 296 291" fill="none" xmlns="http://www.w3.org/2000/svg">
<g clip-path="url(#clip0_363_29162)">
<path d="M25.6321 152.269L102.941 38.4447" stroke="#BEBEBF" stroke-width="0.75" stroke-miterlimit="10"/>
<path d="M102.941 38.4452L102.562 132.357" stroke="#BEBEBF" stroke-width="0.75" stroke-miterlimit="10"/>
<path d="M102.941 38.4447L180.738 105.327" stroke="#BEBEBF" stroke-width="0.75" stroke-miterlimit="10"/>
<path d="M102.941 38.4447L254.007 80.8067" stroke="#BEBEBF" stroke-width="0.75" stroke-miterlimit="10"/>
<path d="M254.007 80.8065L180.737 105.327" stroke="#BEBEBF" stroke-width="0.75" stroke-miterlimit="10"/>
<path d="M180.738 105.327L102.562 132.357" stroke="#BEBEBF" stroke-width="0.75" stroke-miterlimit="10"/>
<path d="M102.562 132.356L25.6318 152.269" stroke="#BEBEBF" stroke-width="0.75" stroke-miterlimit="10"/>
<path d="M25.6318 152.269L69.1602 210.736" stroke="#BEBEBF" stroke-width="0.75" stroke-miterlimit="10"/>
<path d="M69.1608 210.737L102.562 132.357" stroke="#BEBEBF" stroke-width="0.75" stroke-miterlimit="10"/>
<path d="M180.738 105.327L168.117 173.406" stroke="#BEBEBF" stroke-width="0.75" stroke-miterlimit="10"/>
<path d="M168.116 173.405L102.562 132.357" stroke="#BEBEBF" stroke-width="0.75" stroke-miterlimit="10"/>
<path d="M180.737 105.327L233.763 156.413" stroke="#BEBEBF" stroke-width="0.75" stroke-miterlimit="10"/>
<path d="M233.762 156.413L254.007 80.8067" stroke="#BEBEBF" stroke-width="0.75" stroke-miterlimit="10"/>
<path d="M233.762 156.414L168.116 173.406" stroke="#BEBEBF" stroke-width="0.75" stroke-miterlimit="10"/>
<path d="M168.116 173.406L69.1599 210.737" stroke="#BEBEBF" stroke-width="0.75" stroke-miterlimit="10"/>
<path d="M69.1602 210.737L149.019 264.128" stroke="#BEBEBF" stroke-width="0.75" stroke-miterlimit="10"/>
<path d="M149.02 264.128L168.117 173.405" stroke="#BEBEBF" stroke-width="0.75" stroke-miterlimit="10"/>
<path d="M168.116 173.406L187.728 249.173" stroke="#BEBEBF" stroke-width="0.75" stroke-miterlimit="10"/>
<path d="M187.728 249.173L233.762 156.414" stroke="#BEBEBF" stroke-width="0.75" stroke-miterlimit="10"/>
<path d="M149.019 264.127L187.728 249.173" stroke="#BEBEBF" stroke-width="0.75" stroke-miterlimit="10"/>
<path d="M103.909 42.1865C105.976 41.6516 107.218 39.5427 106.683 37.4761C106.148 35.4095 104.039 34.1678 101.972 34.7027C99.9058 35.2376 98.6641 37.3466 99.199 39.4132C99.7339 41.4798 101.843 42.7214 103.909 42.1865Z" fill="#6A83AD"/>
<path d="M26.6009 156.011C28.6675 155.476 29.9092 153.367 29.3742 151.3C28.8393 149.234 26.7304 147.992 24.6638 148.527C22.5972 149.062 21.3555 151.171 21.8904 153.237C22.4254 155.304 24.5343 156.546 26.6009 156.011Z" fill="#6A83AD"/>
<path d="M104.112 135.948C106.178 135.413 107.42 133.304 106.885 131.238C106.35 129.171 104.241 127.93 102.175 128.464C100.108 128.999 98.8663 131.108 99.4012 133.175C99.9361 135.241 102.045 136.483 104.112 135.948Z" fill="#6A83AD"/>
<path d="M181.706 109.068C183.773 108.533 185.015 106.424 184.48 104.358C183.945 102.291 181.836 101.05 179.769 101.585C177.703 102.119 176.461 104.228 176.996 106.295C177.531 108.362 179.64 109.603 181.706 109.068Z" fill="#6A83AD"/>
<path d="M253.999 84.8008C256.066 84.2659 257.308 82.1569 256.773 80.0903C256.238 78.0237 254.129 76.7821 252.062 77.317C249.996 77.8519 248.754 79.9608 249.289 82.0274C249.824 84.094 251.933 85.3357 253.999 84.8008Z" fill="#6A83AD"/>
<path d="M233.952 160.356C236.019 159.822 237.261 157.713 236.726 155.646C236.191 153.579 234.082 152.338 232.015 152.873C229.949 153.408 228.707 155.517 229.242 157.583C229.777 159.65 231.886 160.891 233.952 160.356Z" fill="#6A83AD"/>
<path d="M169.085 177.147C171.152 176.613 172.394 174.504 171.859 172.437C171.324 170.37 169.215 169.129 167.148 169.664C165.082 170.199 163.84 172.308 164.375 174.374C164.91 176.441 167.019 177.682 169.085 177.147Z" fill="#6A83AD"/>
<path d="M72.9026 209.768C73.438 211.837 72.1977 213.943 70.1292 214.479C68.0607 215.014 65.9542 213.774 65.4188 211.705C64.8833 209.637 66.1236 207.53 68.1921 206.995C70.2606 206.459 72.3672 207.7 72.9026 209.768Z" fill="#6A83AD"/>
<path d="M149.76 266.986C151.827 266.451 153.068 264.342 152.533 262.276C151.998 260.209 149.89 258.968 147.823 259.503C145.756 260.037 144.515 262.146 145.05 264.213C145.585 266.28 147.693 267.521 149.76 266.986Z" fill="#6A83AD"/>
<path d="M188.697 252.915C190.763 252.38 192.005 250.271 191.47 248.205C190.935 246.138 188.826 244.896 186.759 245.431C184.693 245.966 183.451 248.075 183.986 250.142C184.521 252.208 186.63 253.45 188.697 252.915Z" fill="#6A83AD"/>
</g>
<defs>
<clipPath id="clip0_363_29162">
<rect width="245.718" height="236.859" fill="white" transform="translate(-1.83594 61.5726) rotate(-14.512)"/>
</clipPath>
</defs>
</svg>
